SplineFontDB: 3.0
FontName: WebAtlas-Light
FullName: WebAtlas-Light
FamilyName: WebAtlas
Weight: Lighter
Copyright: MIT License 2018, Louis MORAES.
Version: 0.6.0
ItalicAngle: 0
UnderlinePosition: -170
UnderlineWidth: 50
Ascent: 800
Descent: 200
InvalidEm: 0
sfntRevision: 0x00010000
LayerCount: 2
Layer: 0 1 "Arri+AOgA-re" 1
Layer: 1 1 "Avant" 0
XUID: [1021 206 1625637039 14079]
StyleMap: 0x0040
FSType: 8
OS2Version: 3
OS2_WeightWidthSlopeOnly: 0
OS2_UseTypoMetrics: 0
CreationTime: 1375896762
ModificationTime: 1556746139
PfmFamily: 81
TTFWeight: 400
TTFWidth: 5
LineGap: 0
VLineGap: 0
Panose: 0 0 5 0 0 0 0 0 0 0
OS2TypoAscent: 700
OS2TypoAOffset: 0
OS2TypoDescent: -201
OS2TypoDOffset: 0
OS2TypoLinegap: 299
OS2WinAscent: 999
OS2WinAOffset: 0
OS2WinDescent: 201
OS2WinDOffset: 0
HheadAscent: 999
HheadAOffset: 0
HheadDescent: -201
HheadDOffset: 0
OS2SubXSize: 650
OS2SubYSize: 600
OS2SubXOff: 0
OS2SubYOff: 75
OS2SupXSize: 650
OS2SupYSize: 600
OS2SupXOff: 0
OS2SupYOff: 350
OS2StrikeYSize: 50
OS2StrikeYPos: 292
OS2CapHeight: 690
OS2XHeight: 487
OS2Vendor: 'UKWN'
OS2CodePages: 20000097.00000000
OS2UnicodeRanges: 00000207.00000000.00000000.00000000
MarkAttachClasses: 1
DEI: 91125
TtTable: prep
MPPEM
PUSHW_1
 200
GT
IF
PUSHB_2
 1
 1
INSTCTRL
EIF
PUSHW_2
 2048
 2048
MUL
DUP
PUSHB_1
 1
SWAP
WCVTP
DUP
PUSHB_1
 3
SWAP
WCVTF
PUSHB_1
 20
RCVT
DUP
DUP
MPPEM
PUSHB_1
 14
LTEQ
MPPEM
PUSHB_1
 6
GTEQ
AND
IF
PUSHB_1
 52
ELSE
PUSHB_1
 40
EIF
ADD
FLOOR
DUP
ROLL
NEQ
IF
PUSHB_1
 2
CINDEX
SUB
PUSHB_1
 1
RCVT
MUL
SWAP
DIV
PUSHB_1
 2
SWAP
WCVTP
PUSHB_4
 10
 10
 5
 4
CALL
PUSHB_4
 11
 16
 5
 4
CALL
PUSHB_4
 17
 22
 5
 4
CALL
EIF
PUSHB_3
 4
 40
 8
RCVT
GT
WCVTP
PUSHB_4
 11
 16
 6
 4
CALL
PUSHB_2
 6
 1
WCVTP
PUSHB_2
 36
 1
GETINFO
LTEQ
IF
PUSHB_1
 64
GETINFO
IF
PUSHB_2
 6
 3
WCVTP
PUSHB_2
 38
 1
GETINFO
LTEQ
IF
PUSHW_1
 1024
GETINFO
IF
PUSHB_2
 6
 1
WCVTP
EIF
EIF
EIF
EIF
PUSHW_1
 511
SCANCTRL
PUSHB_1
 4
SCANTYPE
PUSHB_2
 5
 0
WCVTP
EndTTInstrs
TtTable: fpgm
PUSHB_1
 0
FDEF
PUSHB_1
 32
ADD
FLOOR
ENDF

StartChar: asterisk
Encoding: 42 42 0
Width: 590
VWidth: 0
GlyphClass: 2
Flags: W
LayerCount: 2
Fore
SplineSet
322.644233824 785.013839939 m 0,0,1
 337.938364323 785.665664299 337.938364323 785.665664299 343.427485999 780.3819518 c 128,-1,2
 348.916607675 775.0982393 348.916607675 775.0982393 349.140625 760.114439005 c 0,3,4
 349.246599809 733.405283049 349.246599809 733.405283049 349.457149525 680.385745386 c 2,5,-1
 349.538474233 659.906979241 l 1,6,-1
 369.038707593 666.162167122 l 2,7,8
 434.377442105 687.121201443 434.377442105 687.121201443 445.012532711 690.568194306 c 0,9,10
 460.577647957 695.672151131 460.577647957 695.672151131 467.253358917 691.868677816 c 128,-1,11
 473.929069876 688.065204502 473.929069876 688.065204502 477.739422262 671.79623465 c 0,12,13
 480.761482999 658.900699952 480.761482999 658.900699952 477.180570029 652.658444952 c 128,-1,14
 473.599657059 646.416189952 473.599657059 646.416189952 460.716199189 642.225648782 c 0,15,16
 446.400021846 637.543554716 446.400021846 637.543554716 420.212767915 628.900470906 c 128,-1,17
 394.05948945 620.268600674 394.05948945 620.268600674 384.957002206 617.285137631 c 2,18,-1
 365.472282631 610.898757822 l 1,19,-1
 377.458844808 594.262578237 l 2,20,21
 416.404293744 540.210092382 416.404293744 540.210092382 424.125002339 529.586624913 c 0,22,23
 428.551010919 523.481242289 428.551010919 523.481242289 430.644273541 518.280168605 c 0,24,25
 435.328954936 510.658360435 435.328954936 510.658360435 430.653735913 503.410508334 c 128,-1,26
 425.978516891 496.162656232 425.978516891 496.162656232 407.574657439 489.016519147 c 0,27,28
 394.278628654 484.151224694 394.278628654 484.151224694 382.958942395 499.738857862 c 0,29,30
 374.171669261 511.775896896 374.171669261 511.775896896 358.003551605 533.818000734 c 128,-1,31
 341.845308782 555.858359508 341.845308782 555.858359508 335.839227719 564.065504067 c 2,32,-1
 323.736282056 580.603837224 l 1,33,-1
 311.63085279 564.067321884 l 2,34,35
 273.540218101 512.033944876 273.540218101 512.033944876 264.636612165 499.911610136 c 0,36,37
 255.977531462 488.667918632 255.977531462 488.667918632 248.544584322 487.644258343 c 128,-1,38
 241.111637182 486.620598054 241.111637182 486.620598054 229.663933003 494.988249627 c 128,-1,39
 218.044991371 503.434886266 218.044991371 503.434886266 216.801195275 510.862108125 c 128,-1,40
 215.557399179 518.289329984 215.557399179 518.289329984 223.553423725 529.763774395 c 0,41,42
 231.464072951 540.750787208 231.464072951 540.750787208 248.32227634 564.099223173 c 128,-1,43
 265.174920151 587.444471068 265.174920151 587.444471068 270.088134452 594.257303855 c 2,44,-1
 282.069795867 610.871493073 l 1,45,-1
 262.613679139 617.278599716 l 2,46,47
 198.517423428 638.386179993 198.517423428 638.386179993 186.92581356 642.191859136 c 0,48,49
 173.230738585 646.873425862 173.230738585 646.873425862 169.900105692 653.648242237 c 128,-1,50
 166.569472798 660.423058613 166.569472798 660.423058613 171.056423222 674.045185389 c 0,51,52
 175.551834387 687.896027613 175.551834387 687.896027613 182.289419376 691.349153139 c 128,-1,53
 189.027004366 694.802278665 189.027004366 694.802278665 202.570616566 690.530908641 c 0,54,55
 214.069094971 686.783428837 214.069094971 686.783428837 239.82146346 678.555347565 c 128,-1,56
 265.503599828 670.349706 265.503599828 670.349706 278.388898527 666.175430469 c 2,57,-1
 297.939137258 659.842004673 l 1,58,-1
 298.011625435 680.392402776 l 2,59,60
 298.058478242 693.675173444 298.058478242 693.675173444 298.163944503 720.276440392 c 128,-1,61
 298.2694002 746.862993364 298.2694002 746.862993364 298.327637517 760.082864294 c 0,62,63
 298.531411833 773.892819533 298.531411833 773.892819533 303.682585803 779.153932928 c 128,-1,64
 308.833759772 784.415046323 308.833759772 784.415046323 322.644233824 785.013839939 c 0,0,1
EndSplineSet
Validated: 1
EndChar

StartChar: plus
Encoding: 43 43 1
Width: 640
VWidth: 37
GlyphClass: 2
Flags: W
LayerCount: 2
Fore
SplineSet
334.502929688 556.790039062 m 4,0,1
 350.013671875 556.790039062 350.013671875 556.790039062 355.862304688 550.116210938 c 132,-1,2
 361.7109375 543.442382812 361.7109375 543.442382812 361.7109375 525.858398438 c 6,3,-1
 361.7109375 370.946289062 l 5,4,-1
 361.7109375 355.946289062 l 5,5,-1
 374.685546875 355.946289062 l 5,6,-1
 520.178710938 355.946289062 l 6,7,8
 537.858398438 355.946289062 537.858398438 355.946289062 544.490234375 349.315429688 c 132,-1,9
 551.122070312 342.685546875 551.122070312 342.685546875 551.122070312 325.014648438 c 132,-1,10
 551.122070312 307.3359375 551.122070312 307.3359375 544.489257812 300.703125 c 132,-1,11
 537.856445312 294.0703125 537.856445312 294.0703125 520.178710938 294.0703125 c 6,12,-1
 374.685546875 294.0703125 l 5,13,-1
 361.7109375 294.0703125 l 5,14,-1
 361.7109375 279.0703125 l 5,15,-1
 361.7109375 124.796875 l 6,16,17
 361.7109375 106.576171875 361.7109375 106.576171875 355.934570312 99.7685546875 c 132,-1,18
 350.158203125 92.9599609375 350.158203125 92.9599609375 334.953125 92.9599609375 c 132,-1,19
 319.666992188 92.9599609375 319.666992188 92.9599609375 313.931640625 99.58984375 c 132,-1,20
 308.197265625 106.219726562 308.197265625 106.219726562 308.197265625 123.890625 c 6,21,-1
 308.209960938 279.069335938 l 5,22,-1
 308.2109375 294.0703125 l 5,23,-1
 295.234375 294.0703125 l 5,24,-1
 149.821289062 294.0703125 l 6,25,26
 132.143554688 294.0703125 132.143554688 294.0703125 125.510742188 300.703125 c 132,-1,27
 118.877929688 307.3359375 118.877929688 307.3359375 118.877929688 325.014648438 c 132,-1,28
 118.877929688 342.685546875 118.877929688 342.685546875 125.509765625 349.31640625 c 132,-1,29
 132.142578125 355.946289062 132.142578125 355.946289062 149.821289062 355.946289062 c 6,30,-1
 295.234375 355.946289062 l 5,31,-1
 308.209960938 355.946289062 l 5,32,-1
 308.209960938 370.946289062 l 5,33,-1
 308.209960938 525.158203125 l 6,34,35
 308.205078125 542.999023438 308.205078125 542.999023438 313.8671875 549.775390625 c 132,-1,36
 319.529296875 556.55078125 319.529296875 556.55078125 334.502929688 556.790039062 c 4,0,1
EndSplineSet
Validated: 1
EndChar

StartChar: hyphen
Encoding: 45 45 2
Width: 640
VWidth: 37
GlyphClass: 2
Flags: W
LayerCount: 2
Fore
SplineSet
148.563476562 278.049804688 m 6,0,-1
 518.747070312 278.049804688 l 6,1,2
 536.8046875 278.049804688 536.8046875 278.049804688 543.557617188 271.390625 c 132,-1,3
 550.310546875 264.731445312 550.310546875 264.731445312 550.310546875 247.138671875 c 132,-1,4
 550.310546875 229.4765625 550.310546875 229.4765625 543.685546875 222.852539062 c 132,-1,5
 537.060546875 216.227539062 537.060546875 216.227539062 519.3984375 216.227539062 c 6,6,-1
 148.563476562 216.227539062 l 6,7,8
 130.505859375 216.227539062 130.505859375 216.227539062 123.752929688 222.88671875 c 132,-1,9
 117 229.545898438 117 229.545898438 117 247.138671875 c 132,-1,10
 117 264.731445312 117 264.731445312 123.752929688 271.390625 c 132,-1,11
 130.505859375 278.049804688 130.505859375 278.049804688 148.563476562 278.049804688 c 6,0,-1
EndSplineSet
Validated: 1
EndChar

StartChar: less
Encoding: 60 60 3
Width: 519
GlyphClass: 2
Flags: W
LayerCount: 2
Fore
SplineSet
438.442382812 568.014648438 m 0,0,1
 437.991210938 568.028320312 437.991210938 568.028320312 437.505859375 568.028320312 c 0,2,3
 429.92578125 568.028320312 429.92578125 568.028320312 423.173828125 564.59375 c 2,4,-1
 42.6875 377.888671875 l 2,5,6
 35.3642578125 374.29296875 35.3642578125 374.29296875 30.1826171875 365.975585938 c 128,-1,7
 25 357.658203125 25 357.658203125 25 349.500976562 c 128,-1,8
 25 341.342773438 25 341.342773438 30.1826171875 333.025390625 c 128,-1,9
 35.365234375 324.708007812 35.365234375 324.708007812 42.6875 321.11328125 c 2,10,-1
 423.173828125 134.407226562 l 2,11,12
 429.924804688 130.978515625 429.924804688 130.978515625 437.49609375 130.978515625 c 0,13,14
 450.588867188 130.978515625 450.588867188 130.978515625 459.85546875 140.244140625 c 128,-1,15
 469.12109375 149.509765625 469.12109375 149.509765625 469.12109375 162.602539062 c 0,16,17
 469.12109375 170.887695312 469.12109375 170.887695312 463.821289062 179.26171875 c 128,-1,18
 458.521484375 187.635742188 458.521484375 187.635742188 451.034179688 191.182617188 c 2,19,-1
 128.399414062 349.500976562 l 1,20,-1
 451.034179688 507.819335938 l 2,21,22
 458.526367188 511.365234375 458.526367188 511.365234375 463.828125 519.740234375 c 128,-1,23
 469.130859375 528.115234375 469.130859375 528.115234375 469.130859375 536.404296875 c 0,24,25
 469.130859375 549.114257812 469.130859375 549.114257812 460.139648438 558.375976562 c 128,-1,26
 451.147460938 567.638671875 451.147460938 567.638671875 438.442382812 568.014648438 c 0,0,1
EndSplineSet
Validated: 9
EndChar

StartChar: greater
Encoding: 62 62 4
Width: 519
GlyphClass: 2
Flags: W
LayerCount: 2
Fore
SplineSet
55.6884765625 568.014648438 m 0,0,1
 56.1396484375 568.028320312 56.1396484375 568.028320312 56.625 568.028320312 c 0,2,3
 64.205078125 568.028320312 64.205078125 568.028320312 70.95703125 564.59375 c 2,4,-1
 451.443359375 377.888671875 l 2,5,6
 458.766601562 374.29296875 458.766601562 374.29296875 463.948242188 365.975585938 c 128,-1,7
 469.130859375 357.658203125 469.130859375 357.658203125 469.130859375 349.500976562 c 128,-1,8
 469.130859375 341.342773438 469.130859375 341.342773438 463.948242188 333.025390625 c 128,-1,9
 458.765625 324.708007812 458.765625 324.708007812 451.443359375 321.11328125 c 2,10,-1
 70.95703125 134.407226562 l 2,11,12
 64.2060546875 130.978515625 64.2060546875 130.978515625 56.634765625 130.978515625 c 0,13,14
 43.5419921875 130.978515625 43.5419921875 130.978515625 34.275390625 140.244140625 c 128,-1,15
 25.009765625 149.509765625 25.009765625 149.509765625 25.009765625 162.602539062 c 0,16,17
 25.009765625 170.887695312 25.009765625 170.887695312 30.3095703125 179.26171875 c 128,-1,18
 35.609375 187.635742188 35.609375 187.635742188 43.0966796875 191.182617188 c 2,19,-1
 365.731445312 349.500976562 l 1,20,-1
 43.0966796875 507.819335938 l 2,21,22
 35.6044921875 511.365234375 35.6044921875 511.365234375 30.302734375 519.740234375 c 128,-1,23
 25 528.115234375 25 528.115234375 25 536.404296875 c 0,24,25
 25 549.114257812 25 549.114257812 33.9912109375 558.375976562 c 128,-1,26
 42.9833984375 567.638671875 42.9833984375 567.638671875 55.6884765625 568.014648438 c 0,0,1
EndSplineSet
Validated: 1
EndChar

StartChar: K
Encoding: 75 75 5
Width: 486
VWidth: 0
GlyphClass: 2
Flags: W
LayerCount: 2
Fore
SplineSet
435.77734375 698.48046875 m 4,0,1
 448.74609375 698.491210938 448.74609375 698.491210938 457.373046875 689.864257812 c 132,-1,2
 466 681.237304688 466 681.237304688 466 669.047851562 c 4,3,4
 466 656.549804688 466 656.549804688 457.009765625 647.869140625 c 6,5,-1
 158.327148438 351.106445312 l 5,6,-1
 457.109375 49.9736328125 l 6,7,8
 465.91015625 41.3212890625 465.91015625 41.3212890625 465.91015625 28.9794921875 c 132,-1,9
 465.91015625 16.7900390625 465.91015625 16.7900390625 457.283203125 8.1630859375 c 132,-1,10
 448.657226562 -0.4638671875 448.657226562 -0.4638671875 436.467773438 -0.4638671875 c 4,11,12
 423.989257812 -0.4638671875 423.989257812 -0.4638671875 415.310546875 8.5029296875 c 6,13,-1
 108.76171875 317.462890625 l 5,14,-1
 108.76171875 28.4306640625 l 6,15,16
 108.764648438 15.8291015625 108.764648438 15.8291015625 100.137695312 7.2021484375 c 132,-1,17
 91.5107421875 -1.4248046875 91.5107421875 -1.4248046875 79.3212890625 -1.4248046875 c 132,-1,18
 67.1318359375 -1.4248046875 67.1318359375 -1.4248046875 58.5048828125 7.2021484375 c 132,-1,19
 49.8779296875 15.828125 49.8779296875 15.828125 49.8779296875 28.017578125 c 4,20,-1
 49.880859375 668.250976562 l 5,21,-1
 49.8779296875 668.66796875 l 6,22,23
 49.8779296875 680.67578125 49.8779296875 680.67578125 58.375 689.301757812 c 132,-1,24
 66.8720703125 697.927734375 66.8720703125 697.927734375 78.8779296875 698.107421875 c 4,25,26
 91.5107421875 698.111328125 91.5107421875 698.111328125 100.137695312 689.484375 c 132,-1,27
 108.764648438 680.857421875 108.764648438 680.857421875 108.764648438 668.66796875 c 6,28,-1
 108.76171875 668.250976562 l 5,29,-1
 108.76171875 384.86328125 l 5,30,-1
 415.510742188 689.637695312 l 6,31,32
 423.852539062 698.166015625 423.852539062 698.166015625 435.77734375 698.48046875 c 4,0,1
EndSplineSet
EndChar

StartChar: L
Encoding: 76 76 6
Width: 387
VWidth: 0
GlyphClass: 2
Flags: W
LayerCount: 2
Fore
SplineSet
79.2216796875 701.8359375 m 4,0,1
 91.939453125 701.838867188 91.939453125 701.838867188 100.623046875 693.155273438 c 132,-1,2
 109.306640625 684.470703125 109.306640625 684.470703125 109.306640625 672.200195312 c 4,3,-1
 109.303710938 205.827148438 l 6,4,5
 109.303710938 101.536132812 109.303710938 101.536132812 110.079101562 92.521484375 c 4,6,7
 112.1875 67.9951171875 112.1875 67.9951171875 119.267578125 63.533203125 c 4,8,9
 130.853515625 56.2294921875 130.853515625 56.2294921875 179.127929688 55.6796875 c 4,10,11
 196.43359375 55.482421875 196.43359375 55.482421875 248.513671875 56.314453125 c 132,-1,12
 300.59375 57.146484375 300.59375 57.146484375 336.915039062 57.146484375 c 4,13,14
 349.631835938 57.1494140625 349.631835938 57.1494140625 358.315429688 48.46484375 c 132,-1,15
 367 39.78125 367 39.78125 367 27.5107421875 c 132,-1,16
 367 15.240234375 367 15.240234375 358.315429688 6.556640625 c 132,-1,17
 349.631835938 -2.1279296875 349.631835938 -2.1279296875 337.361328125 -2.1279296875 c 4,18,19
 301.790039062 -2.125 301.790039062 -2.125 249.622070312 -2.9658203125 c 132,-1,20
 197.455078125 -3.8056640625 197.455078125 -3.8056640625 178.453125 -3.58984375 c 4,21,22
 113.427734375 -2.8486328125 113.427734375 -2.8486328125 87.6640625 13.3896484375 c 4,23,24
 55.658203125 33.560546875 55.658203125 33.560546875 51.025390625 87.443359375 c 4,25,26
 50.03125 99.0048828125 50.03125 99.0048828125 50.03125 205.827148438 c 6,27,-1
 50.03125 671.78125 l 6,28,29
 50.0283203125 684.288085938 50.0283203125 684.288085938 58.58203125 692.971679688 c 132,-1,30
 67.1357421875 701.654296875 67.1357421875 701.654296875 79.2216796875 701.8359375 c 4,0,1
EndSplineSet
EndChar

StartChar: M
Encoding: 77 77 7
Width: 547
VWidth: 0
GlyphClass: 2
Flags: W
LayerCount: 2
Fore
SplineSet
79.00390625 701.892578125 m 0,0,1
 88.5712890625 701.895507812 88.5712890625 701.895507812 96.8486328125 695.701171875 c 128,-1,2
 105.125976562 689.505859375 105.125976562 689.505859375 107.69921875 680.752929688 c 2,3,-1
 268.78515625 131.271484375 l 1,4,-1
 429.872070312 680.752929688 l 2,5,6
 432.4453125 689.505859375 432.4453125 689.505859375 440.72265625 695.701171875 c 128,-1,7
 449 701.896484375 449 701.896484375 458.124023438 701.896484375 c 0,8,9
 470.315429688 701.896484375 470.315429688 701.896484375 478.943359375 693.268554688 c 128,-1,10
 487.571289062 684.640625 487.571289062 684.640625 487.571289062 672.44921875 c 0,11,-1
 486.701171875 26.072265625 l 2,12,13
 486.704101562 13.505859375 486.704101562 13.505859375 478.076171875 4.8779296875 c 128,-1,14
 469.448242188 -3.75 469.448242188 -3.75 457.256835938 -3.75 c 128,-1,15
 445.065429688 -3.75 445.065429688 -3.75 436.436523438 4.8779296875 c 128,-1,16
 427.80859375 13.505859375 427.80859375 13.505859375 427.80859375 25.697265625 c 0,17,-1
 428.405273438 466.421875 l 1,18,-1
 297.040039062 18.32421875 l 2,19,20
 294.46875 9.5673828125 294.46875 9.5673828125 286.190429688 3.369140625 c 128,-1,21
 277.912109375 -2.8291015625 277.912109375 -2.8291015625 268.78515625 -2.8291015625 c 128,-1,22
 259.658203125 -2.8291015625 259.658203125 -2.8291015625 251.37890625 3.369140625 c 128,-1,23
 243.100585938 9.5673828125 243.100585938 9.5673828125 240.529296875 18.32421875 c 2,24,-1
 109.06640625 466.759765625 l 1,25,-1
 109.446289062 26.0048828125 l 2,26,27
 109.450195312 13.373046875 109.450195312 13.373046875 100.822265625 4.7451171875 c 128,-1,28
 92.1943359375 -3.8828125 92.1943359375 -3.8828125 80.0029296875 -3.8828125 c 128,-1,29
 67.8115234375 -3.8828125 67.8115234375 -3.8828125 59.18359375 4.7451171875 c 128,-1,30
 50.5546875 13.373046875 50.5546875 13.373046875 50.5546875 25.564453125 c 0,31,-1
 50 672.443359375 l 2,32,33
 50 684.45703125 50 684.45703125 58.498046875 693.083984375 c 128,-1,34
 66.99609375 701.711914062 66.99609375 701.711914062 79.00390625 701.892578125 c 0,0,1
EndSplineSet
EndChar

StartChar: N
Encoding: 78 78 8
Width: 546
VWidth: 0
GlyphClass: 2
Flags: W
LayerCount: 2
Fore
SplineSet
456.905273438 702.821289062 m 4,0,-1
 457.315429688 702.823242188 l 6,1,2
 469.518554688 702.823242188 469.518554688 702.823242188 478.154296875 694.186523438 c 132,-1,3
 486.791015625 685.55078125 486.791015625 685.55078125 486.791015625 673.34765625 c 4,4,-1
 485.918945312 28.4111328125 l 6,5,6
 485.8984375 16.228515625 485.8984375 16.228515625 477.26171875 7.607421875 c 132,-1,7
 468.625976562 -1.0146484375 468.625976562 -1.0146484375 456.443359375 -1.0146484375 c 4,8,9
 439.543945312 -1.0146484375 439.543945312 -1.0146484375 431.005859375 13.5703125 c 6,10,-1
 109.0390625 564.014648438 l 5,11,-1
 109.500976562 28.34765625 l 6,12,13
 109.504882812 15.7158203125 109.504882812 15.7158203125 100.868164062 7.080078125 c 132,-1,14
 92.232421875 -1.556640625 92.232421875 -1.556640625 80.029296875 -1.556640625 c 132,-1,15
 67.826171875 -1.556640625 67.826171875 -1.556640625 59.1904296875 7.080078125 c 132,-1,16
 50.5537109375 15.7158203125 50.5537109375 15.7158203125 50.5537109375 27.9189453125 c 4,17,-1
 50 672.919921875 l 6,18,19
 50 685.139648438 50 685.139648438 58.63671875 693.775390625 c 132,-1,20
 67.2724609375 702.412109375 67.2724609375 702.412109375 79.4755859375 702.412109375 c 4,21,22
 96.3759765625 702.412109375 96.3759765625 702.412109375 104.9140625 687.827148438 c 6,23,-1
 427.11328125 136.971679688 l 5,24,-1
 427.8359375 672.971679688 l 6,25,26
 427.833984375 685.385742188 427.833984375 685.385742188 436.3515625 694.020507812 c 132,-1,27
 444.869140625 702.65625 444.869140625 702.65625 456.905273438 702.821289062 c 4,0,-1
EndSplineSet
Validated: 1
EndChar

StartChar: O
Encoding: 79 79 9
Width: 581
VWidth: 0
GlyphClass: 2
Flags: W
LayerCount: 2
Fore
SplineSet
285.750976562 702.05078125 m 132,-1,1
 347.165039062 702.041992188 347.165039062 702.041992188 385.655273438 689.02734375 c 4,2,3
 402.666992188 683.275390625 402.666992188 683.275390625 430.703125 666.063476562 c 4,4,5
 463.995117188 645.624023438 463.995117188 645.624023438 480.98046875 607.240234375 c 132,-1,6
 497.96484375 568.856445312 497.96484375 568.856445312 508.048828125 513.018554688 c 4,7,8
 521.356445312 439.336914062 521.356445312 439.336914062 521.50390625 338.418945312 c 4,9,10
 521.727539062 254.07421875 521.727539062 254.07421875 502.89453125 174.29296875 c 4,11,12
 491.133789062 124.473632812 491.133789062 124.473632812 475.235351562 91.5263671875 c 132,-1,13
 459.336914062 58.5791015625 459.336914062 58.5791015625 430.412109375 40.71484375 c 4,14,15
 429.584960938 40.2041015625 429.584960938 40.2041015625 422.79296875 35.9443359375 c 132,-1,16
 416.000976562 31.685546875 416.000976562 31.685546875 413.83984375 30.4140625 c 132,-1,17
 411.678710938 29.142578125 411.678710938 29.142578125 404.328125 25.041015625 c 132,-1,18
 396.977539062 20.939453125 396.977539062 20.939453125 392.903320312 19.26953125 c 132,-1,19
 388.830078125 17.6005859375 388.830078125 17.6005859375 380.485351562 14.1171875 c 132,-1,20
 372.139648438 10.6337890625 372.139648438 10.6337890625 365.717773438 9.02734375 c 132,-1,21
 359.294921875 7.419921875 359.294921875 7.419921875 349.51953125 5.0166015625 c 132,-1,22
 339.744140625 2.6123046875 339.744140625 2.6123046875 330.536132812 1.529296875 c 132,-1,23
 321.329101562 0.4462890625 321.329101562 0.4462890625 309.686523438 -0.4169921875 c 132,-1,24
 298.043945312 -1.28125 298.043945312 -1.28125 285.756835938 -1.28125 c 132,-1,25
 273.469726562 -1.28125 273.469726562 -1.28125 261.826171875 -0.4169921875 c 132,-1,26
 250.18359375 0.4462890625 250.18359375 0.4462890625 240.975585938 1.529296875 c 132,-1,27
 231.766601562 2.6123046875 231.766601562 2.6123046875 221.991210938 5.0166015625 c 132,-1,28
 212.215820312 7.419921875 212.215820312 7.419921875 205.791992188 9.02734375 c 132,-1,29
 199.368164062 10.6337890625 199.368164062 10.6337890625 191.0234375 14.1171875 c 132,-1,30
 182.678710938 17.599609375 182.678710938 17.599609375 178.603515625 19.26953125 c 132,-1,31
 174.52734375 20.9404296875 174.52734375 20.9404296875 167.177734375 25.041015625 c 132,-1,32
 159.828125 29.1416015625 159.828125 29.1416015625 157.665039062 30.4140625 c 132,-1,33
 155.500976562 31.6865234375 155.500976562 31.6865234375 148.7109375 35.9443359375 c 132,-1,34
 141.919921875 40.2021484375 141.919921875 40.2021484375 141.08984375 40.71484375 c 4,35,36
 112.165039062 58.58203125 112.165039062 58.58203125 96.2802734375 91.5263671875 c 132,-1,37
 80.3955078125 124.470703125 80.3955078125 124.470703125 68.642578125 174.303710938 c 4,38,39
 49.8583984375 253.948242188 49.8583984375 253.948242188 50.0009765625 338.404296875 c 4,40,-1
 50.0009765625 338.440429688 l 6,41,42
 50.2958984375 439.77734375 50.2958984375 439.77734375 63.50390625 513.018554688 c 4,43,44
 73.5751953125 568.872070312 73.5751953125 568.872070312 90.5419921875 607.25390625 c 132,-1,45
 107.508789062 645.634765625 107.508789062 645.634765625 140.803710938 666.07421875 c 4,46,47
 168.844726562 683.287109375 168.844726562 683.287109375 185.848632812 689.036132812 c 4,48,0
 224.340820312 702.05078125 224.340820312 702.05078125 285.750976562 702.05078125 c 132,-1,1
285.728515625 642.83203125 m 132,-1,50
 234.052734375 642.836914062 234.052734375 642.836914062 204.791015625 632.943359375 c 4,51,52
 194.106445312 629.330078125 194.106445312 629.330078125 171.760742188 615.611328125 c 4,53,54
 157.328125 606.747070312 157.328125 606.747070312 143.28515625 575.3828125 c 132,-1,55
 129.2421875 544.018554688 129.2421875 544.018554688 121.756835938 502.509765625 c 4,56,57
 109.474609375 434.403320312 109.474609375 434.403320312 109.19140625 338.309570312 c 4,58,-1
 109.19140625 338.272460938 l 6,59,60
 109.067382812 260.77734375 109.067382812 260.77734375 126.255859375 187.89453125 c 4,61,62
 134.563476562 152.66796875 134.563476562 152.66796875 148.27734375 125.029296875 c 132,-1,63
 161.991210938 97.390625 161.991210938 97.390625 172.182617188 91.095703125 c 4,64,65
 176.1875 88.625 176.1875 88.625 185.7109375 82.3525390625 c 132,-1,66
 195.235351562 76.080078125 195.235351562 76.080078125 199.0625 73.9453125 c 132,-1,67
 202.889648438 71.810546875 202.889648438 71.810546875 212.41796875 67.70703125 c 132,-1,68
 221.947265625 63.6025390625 221.947265625 63.6025390625 230.623046875 62.14453125 c 132,-1,69
 239.298828125 60.6875 239.298828125 60.6875 253.547851562 59.3115234375 c 132,-1,70
 267.797851562 57.935546875 267.797851562 57.935546875 285.7265625 57.935546875 c 4,71,72
 307.091796875 57.935546875 307.091796875 57.935546875 321.926757812 59.009765625 c 132,-1,73
 336.762695312 60.083984375 336.762695312 60.083984375 349.73046875 64.7822265625 c 132,-1,74
 362.69921875 69.4794921875 362.69921875 69.4794921875 366.42578125 70.7490234375 c 132,-1,75
 370.151367188 72.0185546875 370.151367188 72.0185546875 383.84375 81.0205078125 c 132,-1,76
 397.53515625 90.0234375 397.53515625 90.0234375 399.271484375 91.095703125 c 4,77,78
 409.469726562 97.3974609375 409.469726562 97.3974609375 423.196289062 125.037109375 c 132,-1,79
 436.921875 152.676757812 436.921875 152.676757812 445.236328125 187.899414062 c 4,80,81
 462.473632812 260.923828125 462.473632812 260.923828125 462.260742188 338.27734375 c 4,82,-1
 462.260742188 338.31640625 l 6,83,84
 462.12109375 433.997070312 462.12109375 433.997070312 449.748046875 502.504882812 c 4,85,86
 442.252929688 544.004882812 442.252929688 544.004882812 428.193359375 575.372070312 c 132,-1,87
 414.134765625 606.740234375 414.134765625 606.740234375 399.6953125 615.60546875 c 4,88,89
 377.359375 629.323242188 377.359375 629.323242188 366.6640625 632.938476562 c 4,90,49
 337.401367188 642.83203125 337.401367188 642.83203125 285.728515625 642.83203125 c 132,-1,50
EndSplineSet
Validated: 33
EndChar

StartChar: k
Encoding: 107 107 10
Width: 421
GlyphClass: 2
Flags: W
LayerCount: 2
Fore
SplineSet
79.478515625 702.154296875 m 1,0,-1
 79.92578125 702.162109375 l 2,1,2
 92.3154296875 702.162109375 92.3154296875 702.162109375 101.084960938 693.393554688 c 128,-1,3
 109.853515625 684.625 109.853515625 684.625 109.853515625 672.234375 c 0,4,-1
 109.850585938 283.770507812 l 1,5,-1
 310.1171875 490.571289062 l 2,6,7
 318.428710938 499.399414062 318.428710938 499.399414062 330.540039062 499.953125 c 0,8,9
 331.209960938 499.984375 331.209960938 499.984375 331.905273438 499.984375 c 0,10,11
 344.294921875 499.984375 344.294921875 499.984375 353.064453125 491.215820312 c 128,-1,12
 361.833007812 482.447265625 361.833007812 482.447265625 361.833007812 470.056640625 c 128,-1,13
 361.833007812 457.6953125 361.833007812 457.6953125 353.109375 448.936523438 c 2,14,-1
 159.520507812 249.025390625 l 1,15,-1
 353.2421875 46.091796875 l 2,16,17
 361.845703125 37.35546875 361.845703125 37.35546875 361.845703125 25.09375 c 128,-1,18
 361.845703125 12.703125 361.845703125 12.703125 353.077148438 3.9345703125 c 128,-1,19
 344.30859375 -4.833984375 344.30859375 -4.833984375 331.91796875 -4.833984375 c 0,20,21
 318.8359375 -4.833984375 318.8359375 -4.833984375 309.952148438 4.7666015625 c 2,22,-1
 109.852539062 214.388671875 l 1,23,-1
 109.852539062 21.4560546875 l 2,24,25
 109.85546875 8.619140625 109.85546875 8.619140625 101.086914062 -0.150390625 c 128,-1,26
 92.318359375 -8.9189453125 92.318359375 -8.9189453125 79.927734375 -8.9189453125 c 128,-1,27
 67.5380859375 -8.9189453125 67.5380859375 -8.9189453125 58.76953125 -0.150390625 c 128,-1,28
 50 8.619140625 50 8.619140625 50 21.0087890625 c 0,29,-1
 50.00390625 671.811523438 l 2,30,31
 50.0009765625 684.434570312 50.0009765625 684.434570312 58.6376953125 693.203125 c 128,-1,32
 67.275390625 701.970703125 67.275390625 701.970703125 79.478515625 702.154296875 c 1,0,-1
EndSplineSet
Validated: 1
EndChar

StartChar: l
Encoding: 108 108 11
Width: 138
GlyphClass: 2
Flags: W
HStem: 682.154 20G<63.3742 69.926>
VStem: 39.9992 59.8516<0.120714 692.928>
LayerCount: 2
Fore
SplineSet
69.4765625 702.154296875 m 0,0,-1
 69.9267578125 702.153320312 l 2,1,2
 82.3173828125 702.153320312 82.3173828125 702.153320312 91.0859375 693.384765625 c 128,-1,3
 99.8544921875 684.616210938 99.8544921875 684.616210938 99.8544921875 672.225585938 c 0,4,-1
 99.8515625 21.451171875 l 2,5,6
 99.85546875 8.6142578125 99.85546875 8.6142578125 91.0869140625 -0.154296875 c 128,-1,7
 82.3173828125 -8.9228515625 82.3173828125 -8.9228515625 69.927734375 -8.9228515625 c 128,-1,8
 57.537109375 -8.9228515625 57.537109375 -8.9228515625 48.7685546875 -0.154296875 c 128,-1,9
 40 8.6142578125 40 8.6142578125 40 21.0048828125 c 0,10,-1
 40.0029296875 671.806640625 l 2,11,12
 40 684.434570312 40 684.434570312 48.63671875 693.203125 c 128,-1,13
 57.2734375 701.970703125 57.2734375 701.970703125 69.4765625 702.154296875 c 0,0,-1
EndSplineSet
Validated: 1
EndChar

StartChar: m
Encoding: 109 109 12
Width: 693
GlyphClass: 2
Flags: W
HStem: 441.102 59.8398<110.112 297.484 357.838 539.972>
VStem: 50.0058 60.1064<-2.86853 441.102> 323.067 59.8496<2.26019 416.518> 573.44 59.8496<2.20748 404.637>
LayerCount: 2
Fore
SplineSet
465.55078125 501.200195312 m 0,0,1
 543.952148438 501.202148438 543.952148438 501.202148438 584.944335938 459.439453125 c 0,2,3
 633.3203125 410.15234375 633.3203125 410.15234375 633.302734375 299.861328125 c 2,4,-1
 633.290039062 23.3720703125 l 2,5,6
 633.474609375 10.8466796875 633.474609375 10.8466796875 624.682617188 1.923828125 c 128,-1,7
 615.889648438 -6.998046875 615.889648438 -6.998046875 603.36328125 -6.9970703125 c 128,-1,8
 590.836914062 -6.99609375 590.836914062 -6.99609375 582.044921875 1.927734375 c 128,-1,9
 573.25390625 10.8515625 573.25390625 10.8515625 573.440429688 23.376953125 c 2,10,-1
 573.454101562 299.866210938 l 2,11,12
 573.459960938 385.696289062 573.459960938 385.696289062 542.231445312 417.510742188 c 0,13,14
 518.833007812 441.349609375 518.833007812 441.349609375 465.541992188 441.349609375 c 0,15,16
 403.4140625 441.349609375 403.4140625 441.349609375 357.837890625 441.118164062 c 1,17,18
 373.4765625 417.038085938 373.4765625 417.038085938 378.407226562 383.741210938 c 128,-1,19
 383.336914062 350.444335938 383.336914062 350.444335938 382.9296875 298.184570312 c 0,20,-1
 382.916992188 23.4248046875 l 2,21,22
 383.037109375 15.212890625 383.037109375 15.212890625 379.061523438 8.212890625 c 128,-1,23
 375.084960938 1.212890625 375.084960938 1.212890625 368.14453125 -2.865234375 c 128,-1,24
 361.203125 -6.943359375 361.203125 -6.943359375 352.991210938 -6.943359375 c 0,25,26
 340.465820312 -6.9423828125 340.465820312 -6.9423828125 331.673828125 1.98046875 c 128,-1,27
 322.8828125 10.9033203125 322.8828125 10.9033203125 323.067382812 23.4267578125 c 2,28,-1
 323.081054688 298.538085938 l 2,29,30
 323.825195312 393.69140625 323.825195312 393.69140625 301.170898438 416.577148438 c 0,31,32
 276.89453125 441.1015625 276.89453125 441.1015625 175.50390625 441.1015625 c 2,33,-1
 110.112304688 441.1015625 l 1,34,-1
 110.112304688 24.0126953125 l 2,35,36
 110.41015625 4.8125 110.41015625 4.8125 95.234375 -3.119140625 c 128,-1,37
 80.0595703125 -11.0498046875 80.0595703125 -11.0498046875 64.8837890625 -3.119140625 c 128,-1,38
 49.7080078125 4.8125 49.7080078125 4.8125 50.005859375 24.0126953125 c 2,39,-1
 50.005859375 466.234375 l 2,40,41
 49.7705078125 482.857421875 49.7705078125 482.857421875 62.8359375 492.836914062 c 0,42,43
 73.677734375 501.1171875 73.677734375 501.1171875 85.8330078125 500.94140625 c 2,44,-1
 175.50390625 500.94140625 l 2,45,46
 278.809570312 500.94140625 278.809570312 500.94140625 320.348632812 476.713867188 c 1,47,48
 322.407226562 487.326171875 322.407226562 487.326171875 330.7734375 494.172851562 c 128,-1,49
 339.140625 501.01953125 339.140625 501.01953125 349.951171875 500.938476562 c 0,50,51
 396.77734375 501.200195312 396.77734375 501.200195312 465.55078125 501.200195312 c 0,0,1
EndSplineSet
Validated: 33
EndChar

StartChar: n
Encoding: 110 110 13
Width: 442
GlyphClass: 2
Flags: W
LayerCount: 2
Fore
SplineSet
175.4765625 499.633789062 m 1,0,-1
 175.505859375 499.63671875 l 1,1,2
 241.135742188 499.63671875 241.135742188 499.63671875 279.879882812 491.322265625 c 128,-1,3
 318.623046875 483.0078125 318.623046875 483.0078125 343.583984375 458.083984375 c 0,4,5
 368.245117188 433.458984375 368.245117188 433.458984375 375.823242188 396.690429688 c 128,-1,6
 383.400390625 359.921875 383.400390625 359.921875 382.9296875 298.294921875 c 0,7,-1
 382.916015625 24.7958984375 l 2,8,9
 383.064453125 12.2958984375 383.064453125 12.2958984375 374.27734375 3.404296875 c 128,-1,10
 365.489257812 -5.4873046875 365.489257812 -5.4873046875 352.98828125 -5.486328125 c 128,-1,11
 340.487304688 -5.4853515625 340.487304688 -5.4853515625 331.701171875 3.4072265625 c 128,-1,12
 322.915039062 12.2998046875 322.915039062 12.2998046875 323.065429688 24.7998046875 c 2,13,-1
 323.080078125 298.411132812 l 1,14,-1
 323.080078125 298.525390625 l 2,15,16
 323.819335938 393.231445312 323.819335938 393.231445312 301.29296875 415.725585938 c 0,17,18
 277.205078125 439.780273438 277.205078125 439.780273438 175.50390625 439.780273438 c 2,19,-1
 110.111328125 439.659179688 l 1,20,-1
 110.111328125 24.63671875 l 2,21,22
 110.409179688 5.4365234375 110.409179688 5.4365234375 95.234375 -2.494140625 c 128,-1,23
 80.05859375 -10.4248046875 80.05859375 -10.4248046875 64.8828125 -2.494140625 c 128,-1,24
 49.7080078125 5.4365234375 49.7080078125 5.4365234375 50.005859375 24.63671875 c 2,25,-1
 50.005859375 466.114257812 l 2,26,27
 49.7734375 482.549804688 49.7734375 482.549804688 61.8037109375 492.772460938 c 0,28,29
 69.908203125 499.661132812 69.908203125 499.661132812 85.779296875 499.46484375 c 2,30,-1
 175.4765625 499.633789062 l 1,0,-1
EndSplineSet
Validated: 33
EndChar

StartChar: o
Encoding: 111 111 14
Width: 448
GlyphClass: 2
Flags: W
LayerCount: 2
Fore
SplineSet
219.299804688 501.611328125 m 1,0,1
 283.836914062 501.532226562 283.836914062 501.532226562 318.208007812 478.114257812 c 0,2,3
 362.66015625 453.670898438 362.66015625 453.670898438 376.444335938 379.204101562 c 0,4,5
 397.546875 267.763671875 397.546875 267.763671875 382.934570312 162.571289062 c 0,6,7
 382.35546875 159.47265625 382.35546875 159.47265625 380.140625 147.280273438 c 128,-1,8
 377.92578125 135.086914062 377.92578125 135.086914062 377.08984375 130.858398438 c 128,-1,9
 376.25390625 126.629882812 376.25390625 126.629882812 373.869140625 115.723632812 c 128,-1,10
 371.484375 104.817382812 371.484375 104.817382812 369.78125 99.5 c 128,-1,11
 368.078125 94.1826171875 368.078125 94.1826171875 364.96484375 84.9228515625 c 128,-1,12
 361.8515625 75.6640625 361.8515625 75.6640625 358.72265625 69.6171875 c 128,-1,13
 355.59375 63.5703125 355.59375 63.5703125 351.194335938 56.318359375 c 128,-1,14
 346.794921875 49.06640625 346.794921875 49.06640625 341.735351562 42.970703125 c 0,15,16
 310.641601562 11.2451171875 310.641601562 11.2451171875 262.868164062 0.6123046875 c 128,-1,17
 215.094726562 -10.0205078125 215.094726562 -10.0205078125 172.5234375 1.1923828125 c 0,18,19
 99.1044921875 20.20703125 99.1044921875 20.20703125 78.5400390625 72.453125 c 0,20,21
 37.6494140625 180.227539062 37.6494140625 180.227539062 55.3447265625 337.930664062 c 0,22,23
 60.708984375 372.8046875 60.708984375 372.8046875 63.515625 387.385742188 c 128,-1,24
 66.322265625 401.967773438 66.322265625 401.967773438 77.4130859375 427.494140625 c 128,-1,25
 88.50390625 453.020507812 88.50390625 453.020507812 105.754882812 467.841796875 c 0,26,27
 146.776367188 502.983398438 146.776367188 502.983398438 219.299804688 501.611328125 c 1,0,1
219.299804688 440.668945312 m 1,28,29
 152.466796875 439.965820312 152.466796875 439.965820312 137.501953125 408.875976562 c 0,30,31
 125.999023438 385.625 125.999023438 385.625 119.918945312 353.407226562 c 128,-1,32
 113.837890625 321.189453125 113.837890625 321.189453125 112.978515625 304.82421875 c 128,-1,33
 112.118164062 288.458984375 112.118164062 288.458984375 110.814453125 246.309570312 c 0,34,35
 112.009765625 153.450195312 112.009765625 153.450195312 135 100.987304688 c 0,36,37
 145.71875 68.091796875 145.71875 68.091796875 186.088867188 59.203125 c 1,38,39
 235.7734375 53.5615234375 235.7734375 53.5615234375 264.495117188 62.53125 c 0,40,41
 296.645507812 74.951171875 296.645507812 74.951171875 306.62890625 107.935546875 c 0,42,43
 328.458007812 164.896484375 328.458007812 164.896484375 327.6640625 255.546875 c 0,44,45
 327.509765625 259.201171875 327.509765625 259.201171875 327.217773438 266.557617188 c 0,46,47
 325.862304688 300.744140625 325.862304688 300.744140625 324.313476562 319.598632812 c 128,-1,48
 322.764648438 338.452148438 322.764648438 338.452148438 315.989257812 366.610351562 c 128,-1,49
 309.21484375 394.767578125 309.21484375 394.767578125 297.116210938 415.724609375 c 0,50,51
 278.703125 439.944335938 278.703125 439.944335938 219.299804688 440.668945312 c 1,28,29
EndSplineSet
Validated: 33
EndChar

StartChar: two
Encoding: 50 50 16
Width: 495
VWidth: 0
Flags: W
LayerCount: 2
Fore
SplineSet
56.490234375 693.159179688 m 128,-1,1
 62.9814453125 699.614257812 62.9814453125 699.614257812 78.890625 699.614257812 c 2,2,-1
 291.3671875 699.924804688 l 2,3,4
 375.573242188 700.107421875 375.573242188 700.107421875 411.815429688 647.4140625 c 0,5,6
 439.959960938 606.498046875 439.959960938 606.498046875 434.831054688 530.571289062 c 2,7,-1
 434.622070312 528.635742188 l 2,8,9
 425.8203125 458.71484375 425.8203125 458.71484375 366.127929688 400.431640625 c 0,10,11
 334.697265625 369.743164062 334.697265625 369.743164062 258.31640625 313.186523438 c 0,12,13
 121.681640625 213.125 121.681640625 213.125 108.26953125 121.821289062 c 0,14,-1
 108.154296875 120.268554688 l 1,15,-1
 108.07421875 69.3623046875 l 1,16,-1
 108.057617188 59.0458984375 l 1,17,-1
 108.056640625 58.544921875 l 1,18,-1
 118.874023438 58.544921875 l 1,19,-1
 406.228515625 58.544921875 l 2,20,21
 422.510742188 58.55078125 422.510742188 58.55078125 429.083007812 52.025390625 c 128,-1,22
 435.654296875 45.501953125 435.654296875 45.501953125 435.654296875 29.6689453125 c 128,-1,23
 435.654296875 13.705078125 435.654296875 13.705078125 429.1640625 7.2490234375 c 128,-1,24
 422.672851562 0.79296875 422.672851562 0.79296875 406.778320312 0.79296875 c 2,25,-1
 79.1298828125 0.8046875 l 2,26,27
 63.166015625 0.8046875 63.166015625 0.8046875 56.7099609375 7.2919921875 c 128,-1,28
 50.2529296875 13.78125 50.2529296875 13.78125 50.2529296875 29.65234375 c 2,29,-1
 50.400390625 124.274414062 l 1,30,-1
 50.73828125 128.96875 l 1,31,32
 67.591796875 246.41796875 67.591796875 246.41796875 230.6953125 361.190429688 c 0,33,34
 300.184570312 414.73046875 300.184570312 414.73046875 325.831054688 441.712890625 c 0,35,36
 370.345703125 485.189453125 370.345703125 485.189453125 376.947265625 535.185546875 c 0,37,38
 380.301757812 591.2265625 380.301757812 591.2265625 364.211914062 614.620117188 c 0,39,40
 345.208007812 642.299804688 345.208007812 642.299804688 291.407226562 642.170898438 c 2,41,-1
 79.5078125 641.860351562 l 2,42,43
 63.1787109375 641.860351562 63.1787109375 641.860351562 56.587890625 648.390625 c 128,-1,44
 50 654.916992188 50 654.916992188 50 670.737304688 c 128,-1,0
 50 686.705078125 50 686.705078125 56.490234375 693.159179688 c 128,-1,1
50.73828125 128.46875 m 1,45,-1
 50.73828125 128.46875 l 1,45,-1
50.400390625 123.774414062 m 1,46,-1
 50.400390625 123.774414062 l 1,46,-1
EndSplineSet
Validated: 33
EndChar

StartChar: semicolon
Encoding: 59 59 17
Width: 270
VWidth: 26
Flags: W
LayerCount: 2
Fore
SplineSet
181.15625 445.400390625 m 128,-1,1
 200.448100901 445.400390625 200.448100901 445.400390625 206.95647323 438.886434455 c 128,-1,2
 213.468752279 432.368568214 213.468752279 432.368568214 213.468752279 413.123190271 c 128,-1,3
 213.460672698 393.825273613 213.460672698 393.825273613 206.943415109 387.313502951 c 128,-1,4
 200.424225827 380.799802223 200.424225827 380.799802223 181.192961631 380.799802223 c 128,-1,5
 161.893795494 380.808205531 161.893795494 380.808205531 155.382511618 387.325311388 c 128,-1,6
 148.869140625 393.844506229 148.869140625 393.844506229 148.869140625 413.087890625 c 128,-1,7
 148.869140625 432.380976874 148.869140625 432.380976874 155.382549528 438.888692393 c 128,-1,0
 161.899944627 445.400390625 161.899944627 445.400390625 181.15625 445.400390625 c 128,-1,1
175.03211337 72.787201524 m 0,8,9
 188.348596134 72.8225428011 188.348596134 72.8225428011 199.972191216 63.5976103728 c 0,10,11
 212.892051707 50.0858879875 212.892051707 50.0858879875 212.815951956 41.368313584 c 0,12,13
 212.736838809 32.3055409363 212.736838809 32.3055409363 199.30058602 18.8689699565 c 2,14,-1
 84.1787451331 -92.9277668635 l 2,15,16
 70.3619748109 -106.712063447 70.3619748109 -106.712063447 61.1984263504 -106.704716271 c 128,-1,17
 52.0340229783 -106.697368408 52.0340229783 -106.697368408 38.3962649631 -93.0515340233 c 128,-1,18
 24.7692656159 -79.3841900584 24.7692656159 -79.3841900584 24.7725797274 -70.1866849848 c 128,-1,19
 24.7758921082 -60.9939829938 24.7758921082 -60.9939829938 38.2501955551 -47.5193602582 c 2,20,-1
 153.216247916 64.1261133321 l 2,21,22
 162.12058219 72.7527161724 162.12058219 72.7527161724 175.03211337 72.787201524 c 0,8,9
EndSplineSet
Validated: 1
EndChar

StartChar: comma
Encoding: 44 44 18
Width: 270
VWidth: -20
Flags: W
LayerCount: 2
Fore
SplineSet
174.90711337 72.437592149 m 0,0,1
 188.223249626 72.4729325065 188.223249626 72.4729325065 199.845857731 63.2483390823 c 0,2,3
 212.766100297 49.7358086921 212.766100297 49.7358086921 212.689999045 41.0182337243 c 0,4,5
 212.61088585 31.9556337841 212.61088585 31.9556337841 199.174719891 18.5194678241 c 2,6,-1
 84.0526706495 -93.2774713328 l 2,7,8
 70.2355462022 -107.062360101 70.2355462022 -107.062360101 61.0724267455 -107.055116927 c 128,-1,9
 51.9086188147 -107.047873208 51.9086188147 -107.047873208 38.2712740883 -93.4021291127 c 128,-1,10
 24.643750933 -79.7342276707 24.643750933 -79.7342276707 24.647068032 -70.5365617093 c 128,-1,11
 24.6503833702 -61.3437786265 24.6503833702 -61.3437786265 38.1250850545 -47.8690769422 c 2,12,-1
 153.091247916 63.7765039571 l 2,13,14
 161.99558219 72.4031067974 161.99558219 72.4031067974 174.90711337 72.437592149 c 0,0,1
EndSplineSet
Validated: 1
EndChar

StartChar: period
Encoding: 46 46 19
Width: 164
VWidth: -4
Flags: W
LayerCount: 2
Fore
SplineSet
82.29296875 90.5625 m 128,-1,1
 101.5703125 90.5712890625 101.5703125 90.5712890625 108.078125 84.0595703125 c 128,-1,2
 114.591796875 77.54296875 114.591796875 77.54296875 114.599609375 58.2978515625 c 128,-1,3
 114.591796875 39.00390625 114.591796875 39.00390625 108.076171875 32.5 c 128,-1,4
 101.555664062 25.9912109375 101.555664062 25.9912109375 82.287109375 26 c 128,-1,5
 63.009765625 26 63.009765625 26 56.5078125 32.5107421875 c 128,-1,6
 50 39.02734375 50 39.02734375 50 58.287109375 c 128,-1,7
 50 77.5556640625 50 77.5556640625 56.509765625 84.0556640625 c 128,-1,0
 63.02734375 90.5625 63.02734375 90.5625 82.29296875 90.5625 c 128,-1,1
EndSplineSet
Validated: 1
EndChar

StartChar: slash
Encoding: 47 47 20
Width: 640
VWidth: 79
Flags: W
LayerCount: 2
Fore
SplineSet
501.331544354 773.988064809 m 2,0,-1
 502.523135586 774.006835938 l 2,1,2
 520.632714926 774.006835938 520.632714926 774.006835938 526.664549029 767.969950928 c 128,-1,3
 532.700195312 761.929250547 532.700195312 761.929250547 532.700195312 743.637695312 c 0,4,5
 532.700195312 735.847193754 532.700195312 735.847193754 528.88947373 728.920888517 c 0,6,-1
 528.636364264 728.432288565 l 1,7,-1
 194.793341695 42.5031131317 l 2,8,9
 186.327459182 25.8193359375 186.327459182 25.8193359375 167.681640625 25.8193359375 c 0,10,11
 149.347325092 25.8193359375 149.347325092 25.8193359375 143.324619688 31.8448311542 c 128,-1,12
 137.299804688 37.8724369433 137.299804688 37.8724369433 137.299804688 56.1884765625 c 0,13,14
 137.299804688 64.0396275826 137.299804688 64.0396275826 141.184981009 71.0139120352 c 0,15,-1
 141.466185049 71.553257625 l 1,16,-1
 475.305344827 757.472631971 l 2,17,18
 483.512947293 773.496898472 483.512947293 773.496898472 501.331544354 773.988064809 c 2,0,-1
EndSplineSet
Validated: 1
EndChar

StartChar: zero
Encoding: 48 48 21
Width: 518
VWidth: 0
Flags: W
LayerCount: 2
Fore
SplineSet
50.00390625 436.140625 m 2,0,1
 49.6064453125 556.114257812 49.6064453125 556.114257812 95.03515625 626.763671875 c 0,2,3
 141.881835938 699.62109375 141.881835938 699.62109375 212.936523438 699.62109375 c 2,4,-1
 295.430664062 699.62109375 l 2,5,6
 366.5234375 699.62109375 366.5234375 699.62109375 413.200195312 626.83984375 c 0,7,8
 457.948242188 555.953125 457.948242188 555.953125 458.280273438 436.104492188 c 2,9,-1
 458.280273438 267.723632812 l 2,10,11
 458.666992188 147.95703125 458.666992188 147.95703125 413.411132812 75.4482421875 c 0,12,13
 389.61328125 37.322265625 389.61328125 37.322265625 359.043945312 18.8037109375 c 0,14,15
 329.228515625 0.30078125 329.228515625 0.30078125 295.176757812 0.30078125 c 2,16,-1
 212.192382812 0.30078125 l 2,17,18
 141.931640625 0.30078125 141.931640625 0.30078125 94.900390625 75.404296875 c 0,19,20
 50.0009765625 148.096679688 50.0009765625 148.096679688 50.00390625 267.758789062 c 2,21,-1
 50.00390625 436.140625 l 2,0,1
361.6640625 594.560546875 m 0,22,23
 331.541015625 638.365234375 331.541015625 638.365234375 295.484375 638.815429688 c 2,24,-1
 212.936523438 638.815429688 l 2,25,26
 178.780273438 638.815429688 178.780273438 638.815429688 146.83984375 594.727539062 c 0,27,28
 110.80859375 546.440429688 110.80859375 546.440429688 110.80859375 436.104492188 c 2,29,-1
 110.80859375 267.759765625 l 2,30,31
 110.80078125 156.986328125 110.80078125 156.986328125 146.91015625 107.038085938 c 0,32,33
 177.71875 61.0927734375 177.71875 61.0927734375 212.192382812 61.0927734375 c 2,34,-1
 295.176757812 61.0927734375 l 2,35,36
 329.805664062 61.0927734375 329.805664062 61.0927734375 361.435546875 106.9921875 c 0,37,38
 397.475585938 156.868164062 397.475585938 156.868164062 397.475585938 267.758789062 c 2,39,-1
 397.475585938 436.138671875 l 2,40,41
 397.12890625 546.159179688 397.12890625 546.159179688 361.6640625 594.560546875 c 0,22,23
EndSplineSet
Validated: 33
EndChar

StartChar: one
Encoding: 49 49 22
Width: 302
VWidth: 79
Flags: W
LayerCount: 2
Fore
SplineSet
50 669.958007812 m 128,-1,1
 50 686.555664062 50 686.555664062 57.0126953125 693.423828125 c 128,-1,2
 64.03125 700.297851562 64.03125 700.297851562 81.00390625 700.34765625 c 2,3,-1
 212.198242188 700.34765625 l 2,4,5
 228.932617188 700.297851562 228.932617188 700.297851562 235.783203125 693.396484375 c 128,-1,6
 242.633789062 686.495117188 242.633789062 686.495117188 242.633789062 669.958007812 c 2,7,-1
 242.633789062 30.0341796875 l 2,8,9
 242.63671875 12.8203125 242.63671875 12.8203125 235.71875 5.876953125 c 128,-1,10
 228.803710938 -1.06640625 228.803710938 -1.06640625 212.231445312 -0.951171875 c 0,11,12
 195.473632812 -1.0673828125 195.473632812 -1.0673828125 188.654296875 5.802734375 c 128,-1,13
 181.833984375 12.673828125 181.833984375 12.673828125 181.829101562 29.451171875 c 2,14,-1
 181.841796875 628.755859375 l 1,15,-1
 181.841796875 639.055664062 l 1,16,-1
 181.341796875 639.555664062 l 1,17,-1
 171.041015625 639.555664062 l 1,18,-1
 80.955078125 639.555664062 l 2,19,20
 63.9189453125 639.502929688 63.9189453125 639.502929688 56.958984375 646.424804688 c 128,-1,0
 50 653.348632812 50 653.348632812 50 669.958007812 c 128,-1,1
EndSplineSet
Validated: 1
EndChar

StartChar: three
Encoding: 51 51 23
Width: 501
VWidth: 0
Flags: W
LayerCount: 2
Fore
SplineSet
56.3984375 692.676757812 m 128,-1,1
 62.7958984375 699.029296875 62.7958984375 699.029296875 78.591796875 698.911132812 c 2,2,-1
 303.688476562 699.208984375 l 2,3,4
 384.559570312 699.310546875 384.559570312 699.310546875 418.33203125 647.787109375 c 0,5,6
 447.764648438 603.086914062 447.764648438 603.086914062 429.559570312 536.463867188 c 0,7,8
 409.919921875 468.236328125 409.919921875 468.236328125 329.4296875 407.661132812 c 2,9,-1
 316.892578125 398.078125 l 1,10,-1
 316.288085938 397.615234375 l 1,11,-1
 316.951171875 397.244140625 l 1,12,-1
 330.725585938 389.568359375 l 2,13,14
 383.28515625 360.697265625 383.28515625 360.697265625 406.225585938 330.967773438 c 0,15,16
 441.459960938 284.1015625 441.459960938 284.1015625 441.45703125 215.25390625 c 0,17,18
 441.459960938 145.522460938 441.459960938 145.522460938 400.641601562 78.8798828125 c 0,19,20
 352.694335938 -0.775390625 352.694335938 -0.775390625 289.055664062 -0.775390625 c 2,21,-1
 79.4248046875 -0.775390625 l 2,22,23
 63.0791015625 -0.95703125 63.0791015625 -0.95703125 56.6455078125 5.4375 c 128,-1,24
 50.2119140625 11.830078125 50.2119140625 11.830078125 50.353515625 27.796875 c 0,25,26
 50.2109375 43.7392578125 50.2109375 43.7392578125 56.5830078125 50.076171875 c 128,-1,27
 62.958984375 56.4150390625 62.958984375 56.4150390625 78.9248046875 56.3671875 c 2,28,-1
 289.092773438 56.3671875 l 2,29,30
 320.375 56.5126953125 320.375 56.5126953125 351.881835938 108.641601562 c 0,31,32
 384.806640625 162.125976562 384.806640625 162.125976562 384.326171875 215.248046875 c 0,33,34
 384.815429688 264.501953125 384.815429688 264.501953125 360.419921875 296.791015625 c 0,35,36
 327.953125 339.2109375 327.953125 339.2109375 255.517578125 364.899414062 c 0,37,38
 238.096679688 370.928710938 238.096679688 370.928710938 237.944335938 392.23046875 c 0,39,40
 238.096679688 414.311523438 238.096679688 414.311523438 256.078125 419.750976562 c 0,41,42
 346.7734375 446.810546875 346.7734375 446.810546875 374.578125 551.760742188 c 0,43,44
 385.65625 593.4453125 385.65625 593.4453125 370.6953125 616.2734375 c 0,45,46
 354.440429688 642.14453125 354.440429688 642.14453125 303.734375 642.078125 c 2,47,-1
 79.1044921875 641.76953125 l 2,48,49
 62.9736328125 641.659179688 62.9736328125 641.659179688 56.486328125 648.0859375 c 128,-1,50
 50 654.510742188 50 654.510742188 50 670.340820312 c 128,-1,0
 50 686.32421875 50 686.32421875 56.3984375 692.676757812 c 128,-1,1
EndSplineSet
Validated: 33
EndChar

StartChar: four
Encoding: 52 52 24
Width: 498
VWidth: 0
Flags: W
LayerCount: 2
Fore
SplineSet
294.459960938 646.411132812 m 1,0,-1
 293.956054688 646.911132812 l 1,1,-1
 284.905273438 646.787109375 l 1,2,-1
 276.8515625 646.677734375 l 1,3,-1
 271.563476562 646.606445312 l 1,4,-1
 271.120117188 646.318359375 l 1,5,-1
 268.627929688 640.953125 l 1,6,-1
 108.559570312 314.41796875 l 1,7,-1
 107.32421875 312.10546875 l 1,8,-1
 107.265625 311.865234375 l 1,9,-1
 107.2890625 309.234375 l 1,10,-1
 107.40234375 296.676757812 l 1,11,-1
 107.493164062 286.565429688 l 1,12,-1
 107.498046875 286.075195312 l 1,13,-1
 107.98828125 286.0703125 l 1,14,-1
 118.1015625 285.975585938 l 1,15,-1
 284.927734375 284.256835938 l 1,16,-1
 293.958007812 284.16015625 l 1,17,-1
 294.459960938 284.66015625 l 1,18,-1
 294.459960938 295.056640625 l 1,19,-1
 294.459960938 635.98828125 l 1,20,-1
 294.459960938 646.411132812 l 1,0,-1
243.911132812 699.583007812 m 0,21,22
 249.821289062 704.028320312 249.821289062 704.028320312 256.057617188 704.110351562 c 2,23,-1
 320.13671875 704.939453125 l 2,24,25
 331.458984375 705.204101562 331.458984375 705.204101562 339.99609375 696.553710938 c 0,26,27
 348.380859375 688.278320312 348.380859375 688.278320312 348.380859375 676.337890625 c 2,28,-1
 348.380859375 294.825195312 l 1,29,-1
 348.380859375 284.62109375 l 1,30,-1
 348.875976562 284.12109375 l 1,31,-1
 359.080078125 284.025390625 l 1,32,-1
 410.037109375 283.549804688 l 2,33,34
 421.97265625 283.901367188 421.97265625 283.901367188 430.025390625 275.340820312 c 0,35,36
 438.42578125 266.706054688 438.42578125 266.706054688 438.57421875 254.948242188 c 0,37,38
 438.42578125 242.787109375 438.42578125 242.787109375 430.1953125 234.73046875 c 0,39,40
 421.973632812 226.333984375 421.973632812 226.333984375 410.44921875 226.34765625 c 2,41,-1
 359.283203125 226.825195312 l 1,42,-1
 348.88671875 226.921875 l 1,43,-1
 348.380859375 226.926757812 l 1,44,-1
 348.380859375 216.025390625 l 2,45,46
 348.380859375 184.954101562 348.380859375 184.954101562 348.369140625 122.415039062 c 128,-1,47
 348.357421875 59.8720703125 348.357421875 59.8720703125 348.357421875 29.8056640625 c 2,48,-1
 348.41796875 25.83984375 l 2,49,50
 347.8359375 14.39453125 347.8359375 14.39453125 340.17578125 7.25390625 c 0,51,52
 331.45703125 -1.298828125 331.45703125 -1.298828125 319.78125 -1.296875 c 0,53,54
 309.297851562 -1.298828125 309.297851562 -1.298828125 301.576171875 7.248046875 c 0,55,56
 297.020507812 12.240234375 297.020507812 12.240234375 294.463867188 28.2177734375 c 2,57,-1
 294.463867188 216.763671875 l 1,58,-1
 294.463867188 226.967773438 l 1,59,-1
 294.463867188 227.462890625 l 1,60,-1
 285.109375 227.563476562 l 1,61,-1
 78.765625 229.650390625 l 2,62,63
 67.375 229.485351562 67.375 229.485351562 59.1533203125 237.903320312 c 0,64,65
 50.6640625 246.967773438 50.6640625 246.967773438 50.5634765625 257.984375 c 2,66,-1
 50 319.446289062 l 2,67,68
 50 326.711914062 50 326.711914062 53.3798828125 333.03125 c 2,69,-1
 234.461914062 688.9375 l 2,70,71
 237.39453125 695.004882812 237.39453125 695.004882812 243.911132812 699.583007812 c 0,21,22
EndSplineSet
Validated: 1
EndChar

StartChar: six
Encoding: 54 54 25
Width: 494
VWidth: 0
Flags: W
LayerCount: 2
Fore
SplineSet
50 508.44140625 m 2,0,1
 50 578.043945312 50 578.043945312 117.772460938 640.065429688 c 0,2,3
 182.06640625 699.71875 182.06640625 699.71875 242.17578125 699.71875 c 2,4,-1
 404.176757812 699.71875 l 2,5,6
 421.321289062 699.71875 421.321289062 699.71875 428.170898438 692.896484375 c 128,-1,7
 435.018554688 686.079101562 435.018554688 686.079101562 434.842773438 669.6328125 c 0,8,9
 435.020507812 653.21875 435.020507812 653.21875 428.227539062 646.459960938 c 128,-1,10
 421.4296875 639.696289062 421.4296875 639.696289062 404.69140625 639.524414062 c 2,11,-1
 242.24609375 639.53515625 l 2,12,13
 202.44921875 639.990234375 202.44921875 639.990234375 158.274414062 595.58984375 c 0,14,15
 110.170898438 551.892578125 110.170898438 551.892578125 110.170898438 508.44140625 c 2,16,-1
 110.170898438 426.307617188 l 1,17,-1
 110.170898438 415.9453125 l 1,18,-1
 110.170898438 415.442382812 l 1,19,-1
 110.673828125 415.4453125 l 1,20,-1
 121.036132812 415.5078125 l 1,21,-1
 241.8203125 416.30078125 l 2,22,23
 296.514648438 416.46484375 296.514648438 416.46484375 333.100585938 404.8359375 c 0,24,25
 376.786132812 392.150390625 376.786132812 392.150390625 400.198242188 361.068359375 c 0,26,27
 433.249023438 317.506835938 433.249023438 317.506835938 434.2734375 190.473632812 c 0,28,29
 434.250976562 101.18359375 434.250976562 101.18359375 382.537109375 50.6083984375 c 0,30,31
 357.166015625 26.1171875 357.166015625 26.1171875 319.696289062 13.1474609375 c 0,32,33
 286.186523438 0.1728515625 286.186523438 0.1728515625 242.918945312 -0.923828125 c 0,34,35
 149.778320312 -2.6923828125 149.778320312 -2.6923828125 98.849609375 49.724609375 c 0,36,37
 50 99.9921875 50 99.9921875 50 190.201171875 c 2,38,-1
 50 508.44140625 l 2,0,1
158.274414062 595.58984375 m 1,39,-1
 158.274414062 595.58984375 l 1,39,-1
352.374023438 324.53125 m 0,40,41
 340.764648438 339.790039062 340.764648438 339.790039062 315.891601562 347.198242188 c 0,42,43
 289.631835938 356.059570312 289.631835938 356.059570312 242.064453125 356.108398438 c 2,44,-1
 120.899414062 355.23046875 l 1,45,-1
 110.66796875 355.162109375 l 1,46,-1
 110.170898438 355.159179688 l 1,47,-1
 110.170898438 344.430664062 l 1,48,-1
 110.170898438 190.169921875 l 2,49,50
 110.361328125 124.216796875 110.361328125 124.216796875 141.998046875 91.701171875 c 0,51,52
 176.137695312 56.03515625 176.137695312 56.03515625 240.9140625 59.1171875 c 2,53,-1
 242.17578125 59.1171875 l 2,54,55
 305.970703125 59.1171875 305.970703125 59.1171875 340.611328125 93.7138671875 c 0,56,57
 374.015625 126.184570312 374.015625 126.184570312 374.080078125 190.118164062 c 0,58,59
 373.3671875 297.041015625 373.3671875 297.041015625 352.374023438 324.53125 c 0,40,41
EndSplineSet
Validated: 33
EndChar

StartChar: five
Encoding: 53 53 26
Width: 495
VWidth: 0
Flags: W
LayerCount: 2
Fore
SplineSet
50.58203125 669.0625 m 2,0,1
 50.763671875 685.624023438 50.763671875 685.624023438 57.6103515625 692.421875 c 128,-1,2
 64.4560546875 699.219726562 64.4560546875 699.219726562 80.677734375 699.219726562 c 2,3,-1
 404.841796875 699.219726562 l 2,4,5
 421.607421875 699.219726562 421.607421875 699.219726562 428.515625 692.360351562 c 128,-1,6
 435.422851562 685.500976562 435.422851562 685.500976562 435.51953125 669.122070312 c 128,-1,7
 435.422851562 652.828125 435.422851562 652.828125 428.56640625 646.012695312 c 128,-1,8
 421.708007812 639.196289062 421.708007812 639.196289062 405.366210938 639.025390625 c 2,9,-1
 121.563476562 639.025390625 l 1,10,-1
 111.263671875 639.025390625 l 1,11,-1
 110.763671875 638.525390625 l 1,12,-1
 110.763671875 628.225585938 l 1,13,-1
 110.763671875 490.962890625 l 2,14,15
 110.806640625 465.465820312 110.806640625 465.465820312 119.6953125 456.8046875 c 0,16,17
 131.765625 445.9375 131.765625 445.9375 167.440429688 445.115234375 c 0,18,19
 175.594726562 444.907226562 175.594726562 444.907226562 221.298828125 443.668945312 c 0,20,21
 249.568359375 442.751953125 249.568359375 442.751953125 273.459960938 442.23046875 c 0,22,23
 339.37109375 441.750976562 339.37109375 441.750976562 385.2421875 392.35546875 c 0,24,25
 435.265625 338.10546875 435.265625 338.10546875 434.9375 238.854492188 c 0,26,27
 435.271484375 133.188476562 435.271484375 133.188476562 396.510742188 70.6484375 c 0,28,29
 352.30078125 -1.5048828125 352.30078125 -1.5048828125 271.784179688 -1.5048828125 c 2,30,-1
 80.7548828125 -1.5048828125 l 2,31,32
 63.814453125 -1.384765625 63.814453125 -1.384765625 56.9052734375 5.4814453125 c 128,-1,33
 50 12.3447265625 50 12.3447265625 50 28.591796875 c 0,34,35
 50 45.0849609375 50 45.0849609375 56.818359375 51.8603515625 c 128,-1,36
 63.638671875 58.63671875 63.638671875 58.63671875 80.09765625 58.689453125 c 2,37,-1
 273.288085938 58.689453125 l 2,38,39
 318.177734375 58.5419921875 318.177734375 58.5419921875 345.216796875 102.112304688 c 0,40,41
 374.470703125 150.807617188 374.470703125 150.807617188 374.755859375 238.9296875 c 0,42,43
 374.463867188 314.559570312 374.463867188 314.559570312 340.758789062 351.78515625 c 0,44,45
 312.801757812 381.9375 312.801757812 381.9375 273.16015625 382.048828125 c 0,46,47
 254.4140625 381.950195312 254.4140625 381.950195312 220.127929688 383.479492188 c 0,48,49
 192.041015625 384.005859375 192.041015625 384.005859375 166.729492188 384.9140625 c 0,50,51
 106.465820312 385.991210938 106.465820312 385.991210938 77.572265625 413.822265625 c 0,52,53
 50.58203125 440.012695312 50.58203125 440.012695312 50.58203125 492.25390625 c 2,54,-1
 50.58203125 669.0625 l 2,0,1
EndSplineSet
Validated: 33
EndChar

StartChar: seven
Encoding: 55 55 27
Width: 495
VWidth: 0
Flags: W
LayerCount: 2
Fore
SplineSet
50 672.82421875 m 128,-1,1
 50 689.791992188 50 689.791992188 57.1845703125 696.8125 c 128,-1,2
 64.3740234375 703.836914062 64.3740234375 703.836914062 81.6064453125 703.836914062 c 2,3,-1
 404.350585938 703.836914062 l 2,4,5
 421.341796875 703.8125 421.341796875 703.8125 428.329101562 696.755859375 c 128,-1,6
 435.318359375 689.697265625 435.318359375 689.697265625 435.318359375 672.82421875 c 0,7,8
 435.318359375 665.974609375 435.318359375 665.974609375 432.459960938 659.797851562 c 2,9,-1
 154.538085938 12.9755859375 l 2,10,11
 146.189453125 -4.986328125 146.189453125 -4.986328125 126.40234375 -4.986328125 c 0,12,13
 109.377929688 -4.986328125 109.377929688 -4.986328125 102.37890625 2.0703125 c 128,-1,14
 95.3779296875 9.1279296875 95.3779296875 9.1279296875 95.3779296875 26.0263671875 c 0,15,16
 95.3779296875 32.857421875 95.3779296875 32.857421875 98.2734375 39.0888671875 c 2,17,-1
 348.6875 626.48046875 l 1,18,-1
 355.458984375 641.102539062 l 1,19,-1
 355.787109375 641.8125 l 1,20,-1
 355.004882812 641.8125 l 1,21,-1
 338.883789062 641.8125 l 1,22,-1
 81.6064453125 641.8125 l 2,23,24
 64.248046875 641.8125 64.248046875 641.8125 57.123046875 648.90625 c 128,-1,0
 50 655.998046875 50 655.998046875 50 672.82421875 c 128,-1,1
EndSplineSet
Validated: 1
EndChar

StartChar: eight
Encoding: 56 56 28
Width: 487
VWidth: 0
Flags: W
LayerCount: 2
Fore
SplineSet
50 518.698242188 m 0,0,1
 50 594.233398438 50 594.233398438 108.640625 648.877929688 c 0,2,3
 167.595703125 703.81640625 167.595703125 703.81640625 238.946289062 703.81640625 c 128,-1,4
 310.30859375 703.81640625 310.30859375 703.81640625 369.298828125 648.84375 c 0,5,6
 427.948242188 594.178710938 427.948242188 594.178710938 427.892578125 518.639648438 c 0,7,8
 427.793945312 422.955078125 427.793945312 422.955078125 336.408203125 363.30078125 c 2,9,-1
 324.010742188 355.208984375 l 1,10,-1
 323.409179688 354.81640625 l 1,11,-1
 323.986328125 354.388671875 l 1,12,-1
 335.883789062 345.578125 l 2,13,14
 367.36328125 322.264648438 367.36328125 322.264648438 371.263671875 318.69140625 c 0,15,16
 427.892578125 256.171875 427.892578125 256.171875 427.892578125 186.752929688 c 128,-1,17
 427.892578125 117.4375 427.892578125 117.4375 369.645507812 58.45703125 c 0,18,19
 308.37890625 -3.564453125 308.37890625 -3.564453125 238.946289062 -3.564453125 c 128,-1,20
 169.513671875 -3.564453125 169.513671875 -3.564453125 108.248046875 58.4560546875 c 0,21,22
 50 117.4375 50 117.4375 50 186.752929688 c 128,-1,23
 50 255.975585938 50 255.975585938 107.010742188 318.752929688 c 0,24,25
 111.420898438 322.645507812 111.420898438 322.645507812 142.102539062 345.43359375 c 2,26,-1
 153.984375 354.258789062 l 1,27,-1
 154.561523438 354.6875 l 1,28,-1
 153.958984375 355.079101562 l 1,29,-1
 141.5546875 363.155273438 l 2,30,31
 50 422.76171875 50 422.76171875 50 518.698242188 c 0,0,1
368.931640625 518.693359375 m 0,32,33
 368.95703125 567.622070312 368.95703125 567.622070312 327.284179688 606.391601562 c 0,34,35
 288.637695312 644.842773438 288.637695312 644.842773438 238.946289062 644.842773438 c 128,-1,36
 189.243164062 644.842773438 189.243164062 644.842773438 150.618164062 606.40234375 c 0,37,38
 108.9609375 567.662109375 108.9609375 567.662109375 108.9609375 518.698242188 c 0,39,40
 108.9609375 468.946289062 108.9609375 468.946289062 150.426757812 427.668945312 c 0,41,42
 189.190429688 386.41796875 189.190429688 386.41796875 238.946289062 386.41796875 c 0,43,44
 288.036132812 386.41796875 288.036132812 386.41796875 327.051757812 427.838867188 c 0,45,46
 368.893554688 469.276367188 368.893554688 469.276367188 368.931640625 518.693359375 c 0,32,33
368.931640625 186.752929688 m 0,47,48
 368.931640625 233.807617188 368.931640625 233.807617188 327.55859375 279.15625 c 0,49,50
 286.55859375 327.446289062 286.55859375 327.446289062 238.946289062 327.446289062 c 0,51,52
 191.827148438 327.446289062 191.827148438 327.446289062 150.663085938 279.08984375 c 0,53,54
 108.9609375 233.564453125 108.9609375 233.564453125 108.9609375 186.752929688 c 0,55,56
 108.9609375 141.622070312 108.9609375 141.622070312 150.232421875 99.8583984375 c 0,57,58
 191.12109375 55.4091796875 191.12109375 55.4091796875 238.946289062 55.4091796875 c 128,-1,59
 286.831054688 55.4091796875 286.831054688 55.4091796875 327.729492188 99.8564453125 c 0,60,61
 368.931640625 141.551757812 368.931640625 141.551757812 368.931640625 186.752929688 c 0,47,48
EndSplineSet
Validated: 33
EndChar

StartChar: nine
Encoding: 57 57 29
Width: 494
VWidth: 0
Flags: W
LayerCount: 2
Fore
SplineSet
50.5673828125 512.293945312 m 0,0,1
 50.5673828125 601.991210938 50.5673828125 601.991210938 102.329101562 652.279296875 c 0,2,3
 155.098632812 703.55859375 155.098632812 703.55859375 242.243164062 703.774414062 c 0,4,5
 332.818359375 707.643554688 332.818359375 707.643554688 385.912109375 653.053710938 c 0,6,7
 434.661132812 602.919921875 434.661132812 602.919921875 434.853515625 512.72265625 c 2,8,-1
 434.853515625 188.297851562 l 2,9,10
 434.853515625 118.369140625 434.853515625 118.369140625 374.78125 58.5654296875 c 0,11,12
 314.936523438 -0.98828125 314.936523438 -0.98828125 254.943359375 -0.98828125 c 2,13,-1
 80.662109375 -0.98828125 l 2,14,15
 63.76953125 -0.9931640625 63.76953125 -0.9931640625 56.884765625 5.853515625 c 128,-1,16
 50 12.6982421875 50 12.6982421875 50 29.109375 c 128,-1,17
 50 45.677734375 50 45.677734375 56.8115234375 52.44140625 c 128,-1,18
 63.6220703125 59.2080078125 63.6220703125 59.2080078125 80.09375 59.2080078125 c 2,19,-1
 254.943359375 59.1943359375 l 2,20,21
 293.205078125 59.1943359375 293.205078125 59.1943359375 332.271484375 101.25 c 0,22,23
 374.66015625 143.43359375 374.66015625 143.43359375 374.66015625 188.297851562 c 2,24,-1
 374.66015625 301.072265625 l 1,25,-1
 374.66015625 311.434570312 l 1,26,-1
 374.66015625 311.9375 l 1,27,-1
 374.157226562 311.934570312 l 1,28,-1
 363.794921875 311.873046875 l 1,29,-1
 242.822265625 311.078125 l 2,30,31
 133.470703125 311.19140625 133.470703125 311.19140625 83.5615234375 383.408203125 c 0,32,33
 51.103515625 430.377929688 51.103515625 430.377929688 50.5673828125 512.293945312 c 0,0,1
374.66015625 512.524414062 m 2,34,35
 374.495117188 578.479492188 374.495117188 578.479492188 342.767578125 611.083984375 c 0,36,37
 308.551757812 646.828125 308.551757812 646.828125 243.923828125 643.74609375 c 0,38,39
 178.793945312 643.655273438 178.793945312 643.655273438 144.220703125 609.139648438 c 0,40,41
 110.813476562 576.678710938 110.813476562 576.678710938 110.763671875 512.576171875 c 0,42,43
 111.200195312 449.205078125 111.200195312 449.205078125 133.04296875 417.626953125 c 0,44,45
 164.997070312 371.361328125 164.997070312 371.361328125 242.73046875 371.260742188 c 2,46,-1
 363.931640625 372.138671875 l 1,47,-1
 374.163085938 372.20703125 l 1,48,-1
 374.66015625 372.209960938 l 1,49,-1
 374.66015625 372.70703125 l 1,50,-1
 374.66015625 382.938476562 l 1,51,-1
 374.66015625 512.524414062 l 2,34,35
EndSplineSet
Validated: 33
EndChar

StartChar: colon
Encoding: 58 58 30
Width: 364
VWidth: 77
Flags: W
LayerCount: 2
Fore
SplineSet
181.981445312 537.401367188 m 128,-1,1
 203.987304688 537.401367188 203.987304688 537.401367188 211.837890625 529.555664062 c 128,-1,2
 219.685546875 521.711914062 219.685546875 521.711914062 219.685546875 499.75 c 128,-1,3
 219.672851562 477.748046875 219.672851562 477.748046875 211.821289062 469.896484375 c 128,-1,4
 203.97265625 462.048828125 203.97265625 462.048828125 182 462.048828125 c 128,-1,5
 160.00390625 462.048828125 160.00390625 462.048828125 152.158203125 469.892578125 c 128,-1,6
 144.314453125 477.734375 144.314453125 477.734375 144.314453125 499.715820312 c 128,-1,7
 144.314453125 521.711914062 144.314453125 521.711914062 152.158203125 529.557617188 c 128,-1,0
 160 537.401367188 160 537.401367188 181.981445312 537.401367188 c 128,-1,1
181.981445312 221.037109375 m 128,-1,9
 203.965820312 221.037109375 203.965820312 221.037109375 211.819335938 213.188476562 c 128,-1,10
 219.672851562 205.33984375 219.672851562 205.33984375 219.685546875 183.38671875 c 128,-1,11
 219.672851562 161.395507812 219.672851562 161.395507812 211.823242188 153.549804688 c 128,-1,12
 203.975585938 145.704101562 203.975585938 145.704101562 182 145.704101562 c 128,-1,13
 160.00390625 145.704101562 160.00390625 145.704101562 152.158203125 153.547851562 c 128,-1,14
 144.314453125 161.389648438 144.314453125 161.389648438 144.314453125 183.37109375 c 128,-1,15
 144.314453125 205.35546875 144.314453125 205.35546875 152.15625 213.196289062 c 128,-1,8
 159.997070312 221.037109375 159.997070312 221.037109375 181.981445312 221.037109375 c 128,-1,9
EndSplineSet
Validated: 1
EndChar

StartChar: equal
Encoding: 61 61 31
Width: 640
VWidth: 0
Flags: W
LayerCount: 2
Fore
SplineSet
148.600473789 523.45703125 m 2,0,-1
 514.827372756 523.457031819 l 2,1,2
 532.652043868 523.46194022 532.652043868 523.46194022 539.288912559 516.916875498 c 128,-1,3
 545.92578125 510.371810775 545.92578125 510.371810775 545.92578125 493 c 128,-1,4
 545.92578125 475.564971203 545.92578125 475.564971203 539.414549072 469.053969973 c 128,-1,5
 532.903316894 462.542968742 532.903316894 462.542968742 515.469229833 462.542968742 c 2,6,-1
 148.598408494 462.555663493 l 6,7,8
 130.772378916 462.550754718 130.772378916 462.550754718 124.136189458 469.093339871 c 128,-1,9
 117.5 475.635925023 117.5 475.635925023 117.5 493 c 128,-1,10
 117.5 510.370868692 117.5 510.370868692 124.137078988 516.913949971 c 128,-1,11
 130.774157977 523.45703125 130.774157977 523.45703125 148.600473789 523.45703125 c 2,0,-1
148.602539062 293.244140625 m 2,12,-1
 514.823242188 293.244140625 l 2,13,14
 532.650067344 293.244140625 532.650067344 293.244140625 539.287924297 286.698084502 c 128,-1,15
 545.92578125 280.152028379 545.92578125 280.152028379 545.92578125 262.787109375 c 128,-1,16
 545.92578125 245.351977444 545.92578125 245.351977444 539.414586253 238.841027785 c 128,-1,17
 532.903391257 232.330078125 532.903391257 232.330078125 515.46875 232.330078125 c 2,18,-1
 148.602539062 232.330078125 l 2,19,20
 130.775713906 232.330078125 130.775713906 232.330078125 124.137856953 238.876134248 c 128,-1,21
 117.5 245.422190371 117.5 245.422190371 117.5 262.787109375 c 128,-1,22
 117.5 280.152572253 117.5 280.152572253 124.138075853 286.698356439 c 128,-1,23
 130.776151707 293.244140625 130.776151707 293.244140625 148.602539062 293.244140625 c 2,12,-1
EndSplineSet
Validated: 1
EndChar

StartChar: percent
Encoding: 37 37 32
Width: 620
VWidth: 0
Flags: W
LayerCount: 2
Fore
SplineSet
104.231445312 719.452148438 m 128,-1,1
 133.182617188 748.421875 133.182617188 748.421875 195.471075638 748.421875 c 0,2,3
 251.140091827 748.421875 251.140091827 748.421875 277.004944857 719.450195312 c 128,-1,4
 302.868926165 690.478515625 302.868926165 690.478515625 302.868926165 628.122070312 c 128,-1,5
 302.868926165 565.810546875 302.868926165 565.810546875 277.005816579 536.858398438 c 128,-1,6
 251.143578714 507.90625 251.143578714 507.90625 195.471075638 507.90625 c 0,7,8
 133.1796875 507.90625 133.1796875 507.90625 104.229492188 536.856445312 c 128,-1,9
 75.279296875 565.807617188 75.279296875 565.807617188 75.279296875 628.122070312 c 128,-1,0
 75.279296875 690.482421875 75.279296875 690.482421875 104.231445312 719.452148438 c 128,-1,1
252.602840753 692.11328125 m 128,-1,11
 232.247268541 714.9140625 232.247268541 714.9140625 195.471075638 714.9140625 c 0,12,13
 154.303710938 714.9140625 154.303710938 714.9140625 131.502929688 692.114257812 c 128,-1,14
 108.702148438 669.315429688 108.702148438 669.315429688 108.702148438 628.122070312 c 128,-1,15
 108.702148438 586.96875 108.702148438 586.96875 131.504882812 564.192382812 c 128,-1,16
 154.30859375 541.415039062 154.30859375 541.415039062 195.471075638 541.415039062 c 0,17,18
 232.239423046 541.415039062 232.239423046 541.415039062 252.598482145 564.190429688 c 128,-1,19
 272.958412965 586.965820312 272.958412965 586.965820312 272.958412965 628.122070312 c 128,-1,10
 272.958412965 669.313476562 272.958412965 669.313476562 252.602840753 692.11328125 c 128,-1,11
362.9933117 168.416015625 m 128,-1,21
 388.856421286 197.365234375 388.856421286 197.365234375 444.528924362 197.365234375 c 0,22,23
 506.8203125 197.365234375 506.8203125 197.365234375 535.770507812 168.41796875 c 128,-1,24
 564.720703125 139.470703125 564.720703125 139.470703125 564.720703125 77.1640625 c 128,-1,25
 564.720703125 14.849609375 564.720703125 14.849609375 535.770507812 -14.1005859375 c 128,-1,26
 506.8203125 -43.05078125 506.8203125 -43.05078125 444.528924362 -43.05078125 c 0,27,28
 388.856421286 -43.05078125 388.856421286 -43.05078125 362.994183421 -14.0986328125 c 128,-1,29
 337.131073835 14.853515625 337.131073835 14.853515625 337.131073835 77.1640625 c 128,-1,20
 337.131073835 139.467773438 337.131073835 139.467773438 362.9933117 168.416015625 c 128,-1,21
508.436523438 141.15234375 m 128,-1,31
 485.661132812 163.95703125 485.661132812 163.95703125 444.528924362 163.95703125 c 0,32,33
 407.755346624 163.95703125 407.755346624 163.95703125 387.398030969 141.157226562 c 128,-1,34
 367.041587035 118.358398438 367.041587035 118.358398438 367.041587035 77.1640625 c 128,-1,35
 367.041587035 35.966796875 367.041587035 35.966796875 387.397159247 13.1630859375 c 128,-1,36
 407.751859737 -9.6416015625 407.751859737 -9.6416015625 444.528924362 -9.6416015625 c 0,37,38
 485.66015625 -9.6416015625 485.66015625 -9.6416015625 508.436523438 13.1650390625 c 128,-1,39
 531.212890625 35.97265625 531.212890625 35.97265625 531.212890625 77.1640625 c 128,-1,30
 531.212890625 118.348632812 531.212890625 118.348632812 508.436523438 141.15234375 c 128,-1,31
477.803710938 769.510742188 m 2,40,41
 485.592773438 787.421875 485.592773438 787.421875 502.358398438 788 c 0,42,43
 519.950195312 788 519.950195312 788 526.140625 780.560546875 c 0,44,45
 532.274414062 773.654296875 532.274414062 773.654296875 532.274414062 754.189453125 c 0,46,47
 532.274414062 748.106445312 532.274414062 748.106445312 528.654296875 742.595703125 c 2,48,-1
 144.28125 -64.7333984375 l 2,49,50
 136.172851562 -82.69921875 136.172851562 -82.69921875 118.80078125 -82.69921875 c 0,51,52
 101.729492188 -82.69921875 101.729492188 -82.69921875 95.83203125 -75.3388671875 c 0,53,54
 89.9345703125 -68.53515625 89.9345703125 -68.53515625 89.9345703125 -48.8466796875 c 0,55,56
 89.9345703125 -42.9208984375 89.9345703125 -42.9208984375 93.3125 -37.6494140625 c 2,57,-1
 477.803710938 769.510742188 l 2,40,41
EndSplineSet
Validated: 1
EndChar

StartChar: question
Encoding: 63 63 33
Width: 489
VWidth: 0
Flags: W
LayerCount: 2
Fore
SplineSet
77.6103515625 700.421875 m 1,0,-1
 297.129882812 700.421875 l 2,1,2
 364.23046875 700.421875 364.23046875 700.421875 404.521484375 652.88671875 c 0,3,4
 439.89453125 611.155273438 439.89453125 611.155273438 439.997070312 551.909179688 c 128,-1,5
 440.099609375 492.603515625 440.099609375 492.603515625 404.797851562 450.860351562 c 0,6,7
 364.576171875 403.297851562 364.576171875 403.297851562 297.27734375 403.297851562 c 0,8,9
 249.014648438 403.297851562 249.014648438 403.297851562 223.293945312 390.364257812 c 0,10,11
 204.698242188 381.012695312 204.698242188 381.012695312 196.936523438 363.08203125 c 0,12,13
 194.040039062 356.390625 194.040039062 356.390625 192.314453125 347.870117188 c 128,-1,14
 190.588867188 339.350585938 190.588867188 339.350585938 190.013671875 327.33984375 c 128,-1,15
 189.438476562 315.328125 189.438476562 315.328125 189.336914062 306.908203125 c 128,-1,16
 189.235351562 298.48828125 189.235351562 298.48828125 189.458007812 281.91796875 c 128,-1,17
 189.681640625 265.348632812 189.681640625 265.348632812 189.681640625 257.788085938 c 2,18,-1
 189.681640625 195.512695312 l 1,19,-1
 189.68359375 195.177734375 l 2,20,21
 189.68359375 183.91796875 189.68359375 183.91796875 181.71484375 175.950195312 c 128,-1,22
 173.747070312 167.981445312 173.747070312 167.981445312 162.487304688 167.981445312 c 128,-1,23
 151.227539062 167.981445312 151.227539062 167.981445312 143.259765625 175.950195312 c 128,-1,24
 135.291015625 183.91796875 135.291015625 183.91796875 135.291015625 195.177734375 c 2,25,-1
 135.29296875 195.512695312 l 1,26,-1
 135.29296875 257.788085938 l 2,27,28
 135.29296875 264.658203125 135.29296875 264.658203125 134.573242188 286.311523438 c 128,-1,29
 133.854492188 307.963867188 133.854492188 307.963867188 134.068359375 320.08203125 c 128,-1,30
 134.282226562 332.19921875 134.282226562 332.19921875 137.37890625 350.877929688 c 128,-1,31
 140.475585938 369.556640625 140.475585938 369.556640625 147.0234375 384.68359375 c 0,32,33
 162.627929688 420.735351562 162.627929688 420.735351562 198.860351562 438.955078125 c 0,34,35
 236.103515625 457.68359375 236.103515625 457.68359375 297.27734375 457.68359375 c 0,36,37
 339.33984375 457.68359375 339.33984375 457.68359375 363.268554688 485.979492188 c 0,38,39
 385.680664062 512.483398438 385.680664062 512.483398438 385.612304688 551.814453125 c 128,-1,40
 385.543945312 591.161132812 385.543945312 591.161132812 363.033203125 617.717773438 c 0,41,42
 339.029296875 646.037109375 339.029296875 646.037109375 297.129882812 646.037109375 c 2,43,-1
 77.6103515625 646.037109375 l 1,44,-1
 77.146484375 646.033203125 l 2,45,46
 65.88671875 646.033203125 65.88671875 646.033203125 57.9189453125 654.001953125 c 128,-1,47
 49.9501953125 661.969726562 49.9501953125 661.969726562 49.9501953125 673.229492188 c 128,-1,48
 49.9501953125 684.489257812 49.9501953125 684.489257812 57.9189453125 692.45703125 c 128,-1,49
 65.88671875 700.42578125 65.88671875 700.42578125 77.146484375 700.42578125 c 2,50,-1
 77.6103515625 700.421875 l 1,0,-1
162.380859375 53.470703125 m 128,-1,52
 173.715820312 53.470703125 173.715820312 53.470703125 181.73828125 45.4482421875 c 128,-1,53
 189.760742188 37.42578125 189.760742188 37.42578125 189.760742188 26.0908203125 c 128,-1,54
 189.760742188 14.7529296875 189.760742188 14.7529296875 181.73828125 6.73046875 c 128,-1,55
 173.716796875 -1.2919921875 173.716796875 -1.2919921875 162.380859375 -1.29296875 c 128,-1,56
 151.04296875 -1.29296875 151.04296875 -1.29296875 143.020507812 6.7294921875 c 128,-1,57
 134.998046875 14.751953125 134.998046875 14.751953125 134.998046875 26.087890625 c 128,-1,58
 134.998046875 37.4267578125 134.998046875 37.4267578125 143.020507812 45.4482421875 c 128,-1,51
 151.04296875 53.470703125 151.04296875 53.470703125 162.380859375 53.470703125 c 128,-1,52
EndSplineSet
EndChar

StartChar: a
Encoding: 97 97 34
Width: 429
VWidth: 0
Flags: W
LayerCount: 2
Fore
SplineSet
171.288085938 499.555664062 m 0,0,1
 237.4375 499.443359375 237.4375 499.443359375 269.883789062 492.015625 c 0,2,3
 301.266601562 484.83203125 301.266601562 484.83203125 332.302734375 456.801757812 c 0,4,-1
 332.310546875 456.793945312 l 2,5,6
 369.62890625 423.069335938 369.62890625 423.069335938 369.590820312 350.701171875 c 2,7,-1
 369.421875 29.6904296875 l 1,8,-1
 369.423828125 29.2978515625 l 2,9,10
 369.423828125 22.1162109375 369.423828125 22.1162109375 365.904296875 15.6298828125 c 128,-1,11
 362.385742188 9.1435546875 362.385742188 9.1435546875 356.330078125 4.9267578125 c 128,-1,12
 350.2734375 0.708984375 350.2734375 0.708984375 343.13671875 -0.0869140625 c 0,13,14
 339.403320312 -1.08203125 339.403320312 -1.08203125 335.533203125 -1.08203125 c 0,15,16
 312.904296875 -1.080078125 312.904296875 -1.080078125 270.524414062 -1.8740234375 c 128,-1,17
 228.145507812 -2.66796875 228.145507812 -2.66796875 209.88671875 -2.4296875 c 128,-1,18
 191.626953125 -2.1923828125 191.626953125 -2.1923828125 166.573242188 0.921875 c 128,-1,19
 141.51953125 4.037109375 141.51953125 4.037109375 123.3046875 10.953125 c 0,20,21
 81.888671875 26.677734375 81.888671875 26.677734375 64.67578125 67.4521484375 c 0,22,23
 50 102.219726562 50 102.219726562 50 167.486328125 c 0,24,25
 50 227.40625 50 227.40625 93.001953125 260.305664062 c 0,26,27
 128.373046875 287.368164062 128.373046875 287.368164062 181.840820312 287.436523438 c 0,28,-1
 310.432617188 287.57421875 l 1,29,-1
 310.466796875 350.73046875 l 2,30,31
 310.4765625 368.551757812 310.4765625 368.551757812 305.997070312 384.055664062 c 128,-1,32
 301.518554688 399.559570312 301.518554688 399.559570312 297.979492188 405.440429688 c 128,-1,33
 294.440429688 411.322265625 294.440429688 411.322265625 292.668945312 412.921875 c 0,34,35
 290.614257812 414.778320312 290.614257812 414.778320312 286.353515625 418.744140625 c 128,-1,36
 282.092773438 422.7109375 282.092773438 422.7109375 280.931640625 423.645507812 c 128,-1,37
 279.770507812 424.579101562 279.770507812 424.579101562 276.705078125 426.86328125 c 128,-1,38
 273.639648438 429.147460938 273.639648438 429.147460938 271.374023438 429.94921875 c 128,-1,39
 269.108398438 430.75 269.108398438 430.75 265.412109375 431.987304688 c 128,-1,40
 261.716796875 433.224609375 261.716796875 433.224609375 256.694335938 434.374023438 c 0,41,42
 223.213867188 442.036132812 223.213867188 442.036132812 120.260742188 439.834960938 c 0,43,44
 119.720703125 439.81640625 119.720703125 439.81640625 119.23046875 439.81640625 c 0,45,46
 106.989257812 439.81640625 106.989257812 439.81640625 98.326171875 448.48046875 c 128,-1,47
 89.6630859375 457.143554688 89.6630859375 457.143554688 89.6630859375 469.384765625 c 128,-1,48
 89.6630859375 481.529296875 89.6630859375 481.529296875 98.2578125 490.192382812 c 128,-1,49
 106.852539062 498.85546875 106.852539062 498.85546875 118.997070312 498.951171875 c 0,50,51
 148.995117188 499.59375 148.995117188 499.59375 171.288085938 499.555664062 c 0,0,1
310.399414062 228.444335938 m 1,52,-1
 181.916015625 228.30859375 l 2,53,54
 148.434570312 228.265625 148.434570312 228.265625 128.935546875 213.346679688 c 0,55,56
 109.135742188 198.198242188 109.135742188 198.198242188 109.135742188 167.490234375 c 0,57,58
 109.135742188 114.1875 109.135742188 114.1875 119.155273438 90.4521484375 c 0,59,60
 123.58984375 79.947265625 123.58984375 79.947265625 128.71875 75.076171875 c 128,-1,61
 133.84765625 70.2041015625 133.84765625 70.2041015625 144.298828125 66.236328125 c 0,62,63
 167.390625 57.46875 167.390625 57.46875 290.56640625 57.9404296875 c 0,64,65
 303.543945312 57.990234375 303.543945312 57.990234375 310.309570312 58.0107421875 c 1,66,-1
 310.399414062 228.444335938 l 1,52,-1
EndSplineSet
Validated: 33
EndChar

StartChar: backslash
Encoding: 92 92 35
Width: 640
VWidth: 79
Flags: W
LayerCount: 2
Fore
SplineSet
168.668455645 773.988064809 m 2,0,1
 186.487052707 773.496898472 186.487052707 773.496898472 194.694655173 757.472631971 c 2,2,-1
 528.533814951 71.553257625 l 1,3,-1
 528.666958266 71.2796960103 l 2,4,5
 532.700195312 64.0396275826 532.700195312 64.0396275826 532.700195312 56.1884765625 c 0,6,7
 532.700195312 37.8641503861 532.700195312 37.8641503861 526.67438176 31.8438138543 c 128,-1,8
 520.644423054 25.8193359375 520.644423054 25.8193359375 502.318359375 25.8193359375 c 0,9,10
 483.672540818 25.8193359375 483.672540818 25.8193359375 475.206658305 42.5031131317 c 2,11,-1
 141.363635736 728.432288565 l 1,12,-1
 141.243193385 728.679754939 l 2,13,14
 137.299804688 735.847193754 137.299804688 735.847193754 137.299804688 743.637695312 c 0,15,16
 137.299804688 761.940231555 137.299804688 761.940231555 143.334379925 767.972761672 c 128,-1,17
 149.370499834 774.006835938 149.370499834 774.006835938 167.476864414 774.006835938 c 2,18,-1
 168.668455645 773.988064809 l 2,0,1
EndSplineSet
Validated: 1
EndChar

StartChar: b
Encoding: 98 98 36
Width: 429
VWidth: 0
Flags: W
LayerCount: 2
Fore
SplineSet
80.029296875 701.877929688 m 1,0,1
 92.091796875 701.697265625 92.091796875 701.697265625 100.62890625 693.032226562 c 128,-1,2
 109.165039062 684.366210938 109.165039062 684.366210938 109.162109375 671.87890625 c 2,3,-1
 109.162109375 499.779296875 l 1,4,5
 195.165039062 500.369140625 195.165039062 500.369140625 214.55859375 498.848632812 c 0,6,7
 268.728515625 494.599609375 268.728515625 494.599609375 307.025390625 468.079101562 c 0,8,9
 350.94140625 437.66796875 350.94140625 437.66796875 363.78125 352.834960938 c 0,10,11
 369.833984375 312.849609375 369.833984375 312.849609375 369.94140625 234.6015625 c 0,12,13
 370.034179688 174.779296875 370.034179688 174.779296875 357.782226562 120.545898438 c 0,14,15
 349.36328125 83.2783203125 349.36328125 83.2783203125 337.973632812 59.6376953125 c 128,-1,16
 326.583984375 35.998046875 326.583984375 35.998046875 302.565429688 22.4970703125 c 0,17,18
 292.001953125 16.55859375 292.001953125 16.55859375 281.361328125 12.349609375 c 128,-1,19
 270.720703125 8.140625 270.720703125 8.140625 255.805664062 5.541015625 c 128,-1,20
 240.891601562 2.94140625 240.891601562 2.94140625 230.955078125 1.4365234375 c 128,-1,21
 221.018554688 -0.068359375 221.018554688 -0.068359375 199.220703125 -0.6318359375 c 128,-1,22
 177.422851562 -1.1943359375 177.422851562 -1.1943359375 166.5 -1.2958984375 c 128,-1,23
 155.576171875 -1.396484375 155.576171875 -1.396484375 125.204101562 -1.224609375 c 128,-1,24
 94.83203125 -1.052734375 94.83203125 -1.052734375 80.3876953125 -1.052734375 c 0,25,26
 77.6728515625 -1.0478515625 77.6728515625 -1.0478515625 74.3076171875 -0.23046875 c 128,-1,27
 70.94140625 0.587890625 70.94140625 0.587890625 67.7744140625 1.990234375 c 128,-1,28
 64.607421875 3.3935546875 64.607421875 3.3935546875 62.4521484375 5.0439453125 c 0,29,30
 61.875 5.466796875 61.875 5.466796875 61.3291015625 5.91015625 c 0,31,32
 50.0263671875 14.7734375 50.0263671875 14.7734375 50.0029296875 29.138671875 c 2,33,-1
 50 672.297851562 l 0,34,35
 50 684.54296875 50 684.54296875 58.6669921875 693.208984375 c 128,-1,36
 67.3330078125 701.875 67.3330078125 701.875 79.578125 701.875 c 2,37,-1
 80.029296875 701.877929688 l 1,0,1
160.529296875 440.93359375 m 0,38,39
 158.0703125 440.918945312 158.0703125 440.918945312 139.057617188 440.793945312 c 128,-1,40
 120.045898438 440.668945312 120.045898438 440.668945312 109.163085938 440.612304688 c 1,41,-1
 109.163085938 58.201171875 l 1,42,43
 186.388671875 58.3203125 186.388671875 58.3203125 221.045898438 61.1552734375 c 128,-1,44
 255.704101562 63.990234375 255.704101562 63.990234375 273.595703125 74.0517578125 c 0,45,46
 275.650390625 75.20703125 275.650390625 75.20703125 280.225585938 82.5712890625 c 128,-1,47
 284.80078125 89.9345703125 284.80078125 89.9345703125 290.71875 104.161132812 c 128,-1,48
 296.63671875 118.388671875 296.63671875 118.388671875 300.065429688 133.567382812 c 0,49,50
 310.869140625 181.3984375 310.869140625 181.3984375 310.78125 234.50390625 c 0,51,52
 310.66015625 308.483398438 310.66015625 308.483398438 305.294921875 343.974609375 c 0,53,54
 296.276367188 403.551757812 296.276367188 403.551757812 273.338867188 419.436523438 c 0,55,56
 248.208007812 436.840820312 248.208007812 436.840820312 209.94140625 439.842773438 c 0,57,58
 193.475585938 441.133789062 193.475585938 441.133789062 160.529296875 440.93359375 c 0,38,39
EndSplineSet
Validated: 33
EndChar

StartChar: c
Encoding: 99 99 37
Width: 426
VWidth: 0
Flags: W
LayerCount: 2
Fore
SplineSet
236.478515625 500.77734375 m 0,0,1
 250.389648438 500.924804688 250.389648438 500.924804688 282.926757812 500.352539062 c 128,-1,2
 315.46484375 499.780273438 315.46484375 499.780273438 335.1640625 499.80859375 c 0,3,4
 348.219726562 499.8125 348.219726562 499.8125 357.112304688 490.919921875 c 128,-1,5
 366.004882812 482.02734375 366.004882812 482.02734375 366.004882812 469.461914062 c 128,-1,6
 366.004882812 456.897460938 366.004882812 456.897460938 357.112304688 448.004882812 c 128,-1,7
 348.219726562 439.112304688 348.219726562 439.112304688 335.654296875 439.112304688 c 0,8,9
 314.756835938 439.0859375 314.756835938 439.0859375 285.813476562 439.53515625 c 128,-1,10
 256.87109375 439.984375 256.87109375 439.984375 245.7109375 440.047851562 c 128,-1,11
 234.549804688 440.110351562 234.549804688 440.110351562 213.784179688 439.297851562 c 0,12,13
 174.419921875 436.7421875 174.419921875 436.7421875 149.123046875 419.224609375 c 0,14,15
 125.43359375 402.817382812 125.43359375 402.817382812 116.3046875 344.96875 c 0,16,17
 110.805664062 310.116210938 110.805664062 310.116210938 110.701171875 236.190429688 c 0,18,-1
 110.701171875 236.184570312 l 2,19,20
 110.599609375 174.783203125 110.599609375 174.783203125 118.549804688 134.83984375 c 0,21,22
 123.104492188 111.961914062 123.104492188 111.961914062 131.250976562 95.7490234375 c 128,-1,23
 139.3984375 79.537109375 139.3984375 79.537109375 146.6796875 75.54296875 c 0,24,25
 171.350585938 62.01171875 171.350585938 62.01171875 212.567382812 59.693359375 c 0,26,27
 223.350585938 59.0869140625 223.350585938 59.0869140625 335.022460938 59.7890625 c 0,28,29
 335.313476562 59.7958984375 335.313476562 59.7958984375 335.62109375 59.7958984375 c 0,30,31
 348.186523438 59.7958984375 348.186523438 59.7958984375 357.079101562 50.9033203125 c 128,-1,32
 365.971679688 42.009765625 365.971679688 42.009765625 365.971679688 29.4453125 c 128,-1,33
 365.971679688 16.880859375 365.971679688 16.880859375 357.079101562 7.98828125 c 128,-1,34
 348.186523438 -0.904296875 348.186523438 -0.904296875 335.62109375 -0.904296875 c 0,35,36
 221.844726562 -1.6181640625 221.844726562 -1.6181640625 209.150390625 -0.904296875 c 0,37,38
 154.20703125 2.1875 154.20703125 2.1875 117.483398438 22.3291015625 c 0,39,40
 74.34375 45.9921875 74.34375 45.9921875 59.015625 122.993164062 c 0,41,42
 49.8896484375 168.834960938 49.8896484375 168.834960938 50.0009765625 236.270507812 c 0,43,44
 50.111328125 314.913085938 50.111328125 314.913085938 56.345703125 354.42578125 c 0,45,46
 69.5224609375 437.922851562 69.5224609375 437.922851562 114.5625 469.115234375 c 0,47,48
 153.694335938 496.213867188 153.694335938 496.213867188 209.846679688 499.859375 c 0,49,50
 221.703125 500.62890625 221.703125 500.62890625 236.478515625 500.77734375 c 0,0,1
EndSplineSet
Validated: 33
EndChar

StartChar: d
Encoding: 100 100 38
Width: 429
VWidth: 0
Flags: W
LayerCount: 2
Fore
SplineSet
339.913085938 701.877929688 m 1,0,-1
 340.364257812 701.875 l 2,1,2
 352.609375 701.875 352.609375 701.875 361.275390625 693.208984375 c 128,-1,3
 369.942382812 684.54296875 369.942382812 684.54296875 369.942382812 672.297851562 c 0,4,-1
 369.939453125 29.138671875 l 2,5,6
 369.916015625 14.7734375 369.916015625 14.7734375 358.61328125 5.91015625 c 0,7,8
 358.067382812 5.466796875 358.067382812 5.466796875 357.490234375 5.0439453125 c 0,9,10
 355.334960938 3.3935546875 355.334960938 3.3935546875 352.16796875 1.990234375 c 128,-1,11
 349.000976562 0.587890625 349.000976562 0.587890625 345.634765625 -0.23046875 c 128,-1,12
 342.26953125 -1.0478515625 342.26953125 -1.0478515625 339.5546875 -1.052734375 c 0,13,14
 325.110351562 -1.052734375 325.110351562 -1.052734375 294.73828125 -1.224609375 c 128,-1,15
 264.366210938 -1.396484375 264.366210938 -1.396484375 253.442382812 -1.2958984375 c 128,-1,16
 242.51953125 -1.1943359375 242.51953125 -1.1943359375 220.721679688 -0.6318359375 c 128,-1,17
 198.923828125 -0.068359375 198.923828125 -0.068359375 188.987304688 1.4365234375 c 128,-1,18
 179.05078125 2.94140625 179.05078125 2.94140625 164.13671875 5.541015625 c 128,-1,19
 149.221679688 8.140625 149.221679688 8.140625 138.581054688 12.349609375 c 128,-1,20
 127.940429688 16.55859375 127.940429688 16.55859375 117.376953125 22.4970703125 c 0,21,22
 93.3583984375 35.998046875 93.3583984375 35.998046875 81.96875 59.6376953125 c 128,-1,23
 70.5791015625 83.2783203125 70.5791015625 83.2783203125 62.16015625 120.545898438 c 0,24,25
 49.908203125 174.779296875 49.908203125 174.779296875 50.0009765625 234.6015625 c 0,26,27
 50.1083984375 312.849609375 50.1083984375 312.849609375 56.1611328125 352.834960938 c 0,28,29
 69.0009765625 437.66796875 69.0009765625 437.66796875 112.916992188 468.079101562 c 0,30,31
 151.213867188 494.599609375 151.213867188 494.599609375 205.383789062 498.848632812 c 0,32,33
 224.77734375 500.369140625 224.77734375 500.369140625 310.780273438 499.779296875 c 1,34,-1
 310.780273438 671.87890625 l 2,35,36
 310.77734375 684.366210938 310.77734375 684.366210938 319.313476562 693.032226562 c 128,-1,37
 327.850585938 701.697265625 327.850585938 701.697265625 339.913085938 701.877929688 c 1,0,-1
259.413085938 440.93359375 m 0,38,39
 226.466796875 441.133789062 226.466796875 441.133789062 210.000976562 439.842773438 c 0,40,41
 171.734375 436.840820312 171.734375 436.840820312 146.603515625 419.436523438 c 0,42,43
 123.666015625 403.551757812 123.666015625 403.551757812 114.647460938 343.974609375 c 0,44,45
 109.282226562 308.483398438 109.282226562 308.483398438 109.161132812 234.50390625 c 0,46,47
 109.073242188 181.3984375 109.073242188 181.3984375 119.876953125 133.567382812 c 0,48,49
 123.305664062 118.388671875 123.305664062 118.388671875 129.223632812 104.161132812 c 128,-1,50
 135.141601562 89.9345703125 135.141601562 89.9345703125 139.716796875 82.5712890625 c 128,-1,51
 144.291992188 75.20703125 144.291992188 75.20703125 146.346679688 74.0517578125 c 0,52,53
 164.23828125 63.990234375 164.23828125 63.990234375 198.896484375 61.1552734375 c 128,-1,54
 233.553710938 58.3203125 233.553710938 58.3203125 310.779296875 58.201171875 c 1,55,-1
 310.779296875 440.612304688 l 1,56,57
 299.896484375 440.668945312 299.896484375 440.668945312 280.884765625 440.793945312 c 128,-1,58
 261.872070312 440.918945312 261.872070312 440.918945312 259.413085938 440.93359375 c 0,38,39
EndSplineSet
Validated: 33
EndChar

StartChar: e
Encoding: 101 101 39
Width: 430
VWidth: 0
Flags: W
LayerCount: 2
Fore
SplineSet
214.190429688 500.188476562 m 0,0,1
 298.19921875 500.188476562 298.19921875 500.188476562 336.836914062 456.637695312 c 0,2,3
 370.015625 419.240234375 370.015625 419.240234375 370.015625 346.548828125 c 0,4,5
 370.015625 308.426757812 370.015625 308.426757812 366.629882812 290.23828125 c 0,6,7
 360.96875 259.828125 360.96875 259.828125 341.58203125 243.5 c 0,8,9
 327.970703125 232.034179688 327.970703125 232.034179688 307.658203125 226.888671875 c 128,-1,10
 287.344726562 221.743164062 287.344726562 221.743164062 274.670898438 221.315429688 c 128,-1,11
 261.99609375 220.88671875 261.99609375 220.88671875 223.615234375 220.838867188 c 2,12,-1
 115.15625 220.704101562 l 1,13,14
 115.478515625 108.146484375 115.478515625 108.146484375 135.099609375 80.3935546875 c 0,15,16
 141.715820312 71.0341796875 141.715820312 71.0341796875 145.750976562 68.828125 c 128,-1,17
 149.787109375 66.623046875 149.787109375 66.623046875 167.458984375 64.0322265625 c 0,18,19
 199.248046875 59.3720703125 199.248046875 59.3720703125 317.036132812 61.890625 c 0,20,21
 317.629882812 61.912109375 317.629882812 61.912109375 318.208984375 61.912109375 c 0,22,23
 331.3203125 61.912109375 331.3203125 61.912109375 340.599609375 52.6328125 c 128,-1,24
 349.87890625 43.353515625 349.87890625 43.353515625 349.87890625 30.2421875 c 128,-1,25
 349.87890625 17.2060546875 349.87890625 17.2060546875 340.65234375 7.9267578125 c 128,-1,26
 331.426757812 -1.3525390625 331.426757812 -1.3525390625 318.390625 -1.427734375 c 0,27,28
 195.287109375 -4.0595703125 195.287109375 -4.0595703125 158.268554688 1.3681640625 c 0,29,30
 108.217773438 8.7060546875 108.217773438 8.7060546875 83.3837890625 43.8330078125 c 0,31,32
 70.74609375 61.708984375 70.74609375 61.708984375 63.1103515625 82.7275390625 c 128,-1,33
 55.474609375 103.747070312 55.474609375 103.747070312 53.0322265625 129.1015625 c 128,-1,34
 50.58984375 154.456054688 50.58984375 154.456054688 50.13671875 171.962890625 c 128,-1,35
 49.68359375 189.469726562 49.68359375 189.469726562 50.728515625 219.340820312 c 128,-1,36
 51.7734375 249.211914062 51.7734375 249.211914062 51.794921875 260.244140625 c 0,37,38
 51.9228515625 324.430664062 51.9228515625 324.430664062 58.0185546875 365.525390625 c 128,-1,39
 64.115234375 406.620117188 64.115234375 406.620117188 81.724609375 436.844726562 c 0,40,41
 118.62109375 500.188476562 118.62109375 500.188476562 214.190429688 500.188476562 c 0,0,1
214.190429688 436.85546875 m 0,42,43
 179.448242188 436.853515625 179.448242188 436.853515625 163.17578125 429.881835938 c 128,-1,44
 146.90234375 422.911132812 146.90234375 422.911132812 136.4453125 404.961914062 c 0,45,46
 117.865234375 373.071289062 117.865234375 373.071289062 115.489257812 284.0390625 c 1,47,-1
 223.53125 284.173828125 l 2,48,49
 291.66015625 284.259765625 291.66015625 284.259765625 300.783203125 291.943359375 c 0,50,51
 302.849609375 293.68359375 302.849609375 293.68359375 304.366210938 301.83203125 c 0,52,53
 306.681640625 314.264648438 306.681640625 314.264648438 306.681640625 346.549804688 c 0,54,55
 306.681640625 395.1953125 306.681640625 395.1953125 289.459960938 414.607421875 c 0,56,57
 269.721679688 436.85546875 269.721679688 436.85546875 214.190429688 436.85546875 c 0,42,43
EndSplineSet
EndChar

StartChar: f
Encoding: 102 102 40
Width: 352
VWidth: 0
Flags: W
HStem: -1.3252 21G<126.64 138.906> 440.336 59.252<34.2174 103.149 162.401 254.711> 642.966 59.252<184.518 343.048>
VStem: 103.149 59.249<7.62765 440.336 499.588 627.576>
LayerCount: 2
Fore
SplineSet
322.008789062 702.217773438 m 1,0,-1
 322.372070312 702.21875 l 2,1,2
 334.637695312 702.21875 334.637695312 702.21875 343.319335938 693.538085938 c 128,-1,3
 352 684.857421875 352 684.857421875 352 672.591796875 c 128,-1,4
 352 660.326171875 352 660.326171875 343.319335938 651.64453125 c 128,-1,5
 334.637695312 642.963867188 334.637695312 642.963867188 322.372070312 642.963867188 c 2,6,-1
 322.008789062 642.965820312 l 2,7,8
 249.864257812 642.965820312 249.864257812 642.965820312 225.88671875 640.400390625 c 0,9,10
 195.552734375 637.15625 195.552734375 637.15625 184.157226562 627.859375 c 0,11,12
 173.203125 618.926757812 173.203125 618.926757812 168.166992188 593.458984375 c 0,13,14
 162.434570312 564.475585938 162.434570312 564.475585938 162.400390625 499.587890625 c 1,15,-1
 233.672851562 499.587890625 l 2,16,17
 246.301757812 499.58984375 246.301757812 499.58984375 254.982421875 490.909179688 c 128,-1,18
 263.663085938 482.227539062 263.663085938 482.227539062 263.663085938 469.961914062 c 128,-1,19
 263.663085938 457.696289062 263.663085938 457.696289062 254.982421875 449.014648438 c 128,-1,20
 246.301757812 440.333984375 246.301757812 440.333984375 234.036132812 440.333984375 c 0,21,-1
 162.397460938 440.3359375 l 1,22,-1
 162.397460938 28.7470703125 l 1,23,-1
 162.400390625 28.302734375 l 2,24,25
 162.400390625 16.037109375 162.400390625 16.037109375 153.719726562 7.35546875 c 128,-1,26
 145.038085938 -1.3251953125 145.038085938 -1.3251953125 132.772460938 -1.3251953125 c 128,-1,27
 120.506835938 -1.3251953125 120.506835938 -1.3251953125 111.826171875 7.35546875 c 128,-1,28
 103.145507812 16.037109375 103.145507812 16.037109375 103.145507812 28.302734375 c 2,29,-1
 103.1484375 28.7470703125 l 1,30,-1
 103.1484375 440.3359375 l 1,31,-1
 55.2548828125 440.3359375 l 1,32,-1
 54.892578125 440.333984375 l 2,33,34
 42.626953125 440.333984375 42.626953125 440.333984375 33.9453125 449.014648438 c 128,-1,35
 25.2646484375 457.696289062 25.2646484375 457.696289062 25.2646484375 469.961914062 c 128,-1,36
 25.2646484375 482.227539062 25.2646484375 482.227539062 33.9453125 490.909179688 c 128,-1,37
 42.626953125 499.58984375 42.626953125 499.58984375 54.892578125 499.58984375 c 2,38,-1
 55.2548828125 499.587890625 l 1,39,-1
 103.151367188 499.587890625 l 1,40,41
 103.1796875 570.237304688 103.1796875 570.237304688 110.043945312 604.952148438 c 0,42,43
 119.219726562 651.3515625 119.219726562 651.3515625 146.704101562 673.771484375 c 0,44,45
 171.743164062 694.197265625 171.743164062 694.197265625 219.583984375 699.314453125 c 0,46,47
 246.724609375 702.217773438 246.724609375 702.217773438 322.008789062 702.217773438 c 1,0,-1
EndSplineSet
Validated: 1
EndChar

StartChar: g
Encoding: 103 103 41
Width: 429
VWidth: 0
Flags: W
LayerCount: 2
Fore
SplineSet
247.874023438 500.833007812 m 0,0,1
 258.151367188 500.807617188 258.151367188 500.807617188 287.595703125 500.298828125 c 128,-1,2
 317.040039062 499.7890625 317.040039062 499.7890625 336.240234375 499.815429688 c 0,3,4
 337.158203125 499.905273438 337.158203125 499.905273438 338.129882812 499.939453125 c 0,5,6
 351.293945312 499.942382812 351.293945312 499.942382812 360.283203125 490.953125 c 128,-1,7
 369.272460938 481.963867188 369.272460938 481.963867188 369.272460938 469.26171875 c 0,8,-1
 369.26953125 2.8603515625 l 2,9,10
 369.26953125 -69.322265625 369.26953125 -69.322265625 355.936523438 -110.583984375 c 0,11,12
 340.686523438 -157.771484375 340.686523438 -157.771484375 304.091796875 -180.616210938 c 0,13,14
 296.138671875 -185.581054688 296.138671875 -185.581054688 287.995117188 -189.514648438 c 128,-1,15
 279.8515625 -193.448242188 279.8515625 -193.448242188 269.204101562 -196.254882812 c 128,-1,16
 258.555664062 -199.061523438 258.555664062 -199.061523438 251.475585938 -201.112304688 c 128,-1,17
 244.396484375 -203.163085938 244.396484375 -203.163085938 230.314453125 -204.413085938 c 128,-1,18
 216.232421875 -205.663085938 216.232421875 -205.663085938 210.02734375 -206.430664062 c 128,-1,19
 203.823242188 -207.198242188 203.823242188 -207.198242188 186.119140625 -207.490234375 c 128,-1,20
 168.415039062 -207.782226562 168.415039062 -207.782226562 162.897460938 -207.865234375 c 128,-1,21
 157.37890625 -207.948242188 157.37890625 -207.948242188 135.864257812 -207.880859375 c 128,-1,22
 114.350585938 -207.814453125 114.350585938 -207.814453125 108.779296875 -207.814453125 c 0,23,24
 95.697265625 -207.817382812 95.697265625 -207.817382812 86.7080078125 -198.828125 c 128,-1,25
 77.71875 -189.838867188 77.71875 -189.838867188 77.71875 -177.13671875 c 128,-1,26
 77.71875 -164.434570312 77.71875 -164.434570312 86.7080078125 -155.4453125 c 128,-1,27
 95.697265625 -146.456054688 95.697265625 -146.456054688 108.3984375 -146.456054688 c 0,28,29
 242.947265625 -146.458007812 242.947265625 -146.458007812 271.602539062 -128.5703125 c 0,30,31
 289.192382812 -117.58984375 289.192382812 -117.58984375 297.552734375 -91.716796875 c 0,32,33
 307.379882812 -61.310546875 307.379882812 -61.310546875 307.8828125 -3.298828125 c 1,34,35
 232.720703125 -4.2890625 232.720703125 -4.2890625 209.821289062 -3.0009765625 c 0,36,37
 154.643554688 0.1025390625 154.643554688 0.1025390625 117.770507812 20.328125 c 0,38,39
 74.4501953125 44.0888671875 74.4501953125 44.0888671875 59.056640625 121.415039062 c 0,40,41
 49.8916015625 167.46484375 49.8916015625 167.46484375 50.0009765625 235.173828125 c 0,42,43
 50.1142578125 314.140625 50.1142578125 314.140625 56.375 353.82421875 c 0,44,45
 69.6064453125 437.6796875 69.6064453125 437.6796875 114.833984375 469 c 0,46,47
 154.1328125 496.2109375 154.1328125 496.2109375 210.517578125 499.872070312 c 0,48,49
 222.46875 500.647460938 222.46875 500.647460938 237.259765625 500.796875 c 0,50,51
 242.323242188 500.84765625 242.323242188 500.84765625 247.874023438 500.833007812 c 0,0,1
237.787109375 439.78515625 m 0,52,53
 224.26171875 439.685546875 224.26171875 439.685546875 214.466796875 439.049804688 c 0,54,55
 174.936523438 436.483398438 174.936523438 436.483398438 149.534179688 418.893554688 c 0,56,57
 125.745117188 402.418945312 125.745117188 402.418945312 116.579101562 344.325195312 c 0,58,59
 111.057617188 309.3359375 111.057617188 309.3359375 110.951171875 235.086914062 c 0,60,-1
 110.951171875 235.080078125 l 2,61,62
 110.8515625 173.4140625 110.8515625 173.4140625 118.833007812 133.311523438 c 0,63,64
 123.40625 110.337890625 123.40625 110.337890625 131.587890625 94.0576171875 c 128,-1,65
 139.768554688 77.7783203125 139.768554688 77.7783203125 147.080078125 73.767578125 c 0,66,67
 171.852539062 60.1796875 171.852539062 60.1796875 213.243164062 57.8515625 c 0,68,69
 232.6328125 56.7607421875 232.6328125 56.7607421875 307.915039062 57.673828125 c 1,70,-1
 307.915039062 439.01953125 l 1,71,72
 297.997070312 439.124023438 297.997070312 439.124023438 282.926757812 439.366210938 c 128,-1,73
 267.857421875 439.608398438 267.857421875 439.608398438 257.079101562 439.728515625 c 128,-1,74
 246.30078125 439.848632812 246.30078125 439.848632812 237.787109375 439.78515625 c 0,52,53
EndSplineSet
Validated: 33
EndChar

StartChar: i
Encoding: 105 105 42
Width: 140
VWidth: 0
Flags: W
LayerCount: 2
Fore
SplineSet
70.666015625 688.844726562 m 128,-1,1
 83.2041015625 688.844726562 83.2041015625 688.844726562 92.078125 679.971679688 c 128,-1,2
 100.951171875 671.09765625 100.951171875 671.09765625 100.951171875 658.559570312 c 128,-1,3
 100.951171875 646.021484375 100.951171875 646.021484375 92.078125 637.1484375 c 128,-1,4
 83.2041015625 628.275390625 83.2041015625 628.275390625 70.666015625 628.275390625 c 128,-1,5
 58.1259765625 628.275390625 58.1259765625 628.275390625 49.2529296875 637.1484375 c 128,-1,6
 40.3798828125 646.021484375 40.3798828125 646.021484375 40.3798828125 658.559570312 c 128,-1,7
 40.3798828125 671.09765625 40.3798828125 671.09765625 49.2529296875 679.971679688 c 128,-1,0
 58.1259765625 688.844726562 58.1259765625 688.844726562 70.666015625 688.844726562 c 128,-1,1
70.2646484375 501.489257812 m 0,8,9
 83.2548828125 501.4921875 83.2548828125 501.4921875 92.126953125 492.620117188 c 128,-1,10
 100.999023438 483.748046875 100.999023438 483.748046875 100.999023438 471.211914062 c 0,11,-1
 100.99609375 29.794921875 l 1,12,-1
 100.999023438 29.3447265625 l 2,13,14
 100.999023438 16.8095703125 100.999023438 16.8095703125 92.126953125 7.9375 c 128,-1,15
 83.2548828125 -0.9345703125 83.2548828125 -0.9345703125 70.7197265625 -0.9345703125 c 128,-1,16
 58.18359375 -0.9345703125 58.18359375 -0.9345703125 49.3115234375 7.9375 c 128,-1,17
 40.439453125 16.8095703125 40.439453125 16.8095703125 40.439453125 29.3447265625 c 2,18,-1
 40.4423828125 29.794921875 l 1,19,-1
 40.4423828125 470.783203125 l 2,20,21
 40.439453125 483.561523438 40.439453125 483.561523438 49.1787109375 492.431640625 c 128,-1,22
 57.9169921875 501.302734375 57.9169921875 501.302734375 70.2646484375 501.489257812 c 0,8,9
EndSplineSet
Validated: 1
EndChar

StartChar: j
Encoding: 106 106 43
Width: 133
VWidth: 0
Flags: W
LayerCount: 2
Fore
SplineSet
64.580078125 688.166992188 m 128,-1,1
 77.1455078125 688.165039062 77.1455078125 688.165039062 86.0390625 679.272460938 c 128,-1,2
 94.9326171875 670.37890625 94.9326171875 670.37890625 94.93359375 657.813476562 c 128,-1,3
 94.93359375 645.247070312 94.93359375 645.247070312 86.0400390625 636.352539062 c 128,-1,4
 77.146484375 627.458984375 77.146484375 627.458984375 64.580078125 627.458007812 c 128,-1,5
 52.0126953125 627.458007812 52.0126953125 627.458007812 43.119140625 636.3515625 c 128,-1,6
 34.224609375 645.24609375 34.224609375 645.24609375 34.224609375 657.813476562 c 128,-1,7
 34.2265625 670.379882812 34.2265625 670.379882812 43.1201171875 679.2734375 c 128,-1,0
 52.013671875 688.166992188 52.013671875 688.166992188 64.580078125 688.166992188 c 128,-1,1
64.126953125 500.14453125 m 1,8,-1
 64.583984375 500.146484375 l 2,9,10
 77.1494140625 500.146484375 77.1494140625 500.146484375 86.0419921875 491.25390625 c 128,-1,11
 94.935546875 482.360351562 94.935546875 482.360351562 94.935546875 469.794921875 c 2,12,-1
 94.9326171875 469.366210938 l 1,13,-1
 94.9326171875 8.3994140625 l 2,14,15
 94.9326171875 -64.658203125 94.9326171875 -64.658203125 87.869140625 -100.380859375 c 0,16,17
 78.46875 -147.912109375 78.46875 -147.912109375 50.3125 -170.87890625 c 0,18,19
 24.6611328125 -191.802734375 24.6611328125 -191.802734375 -24.3447265625 -197.04296875 c 0,20,21
 -52.134765625 -200.013671875 -52.134765625 -200.013671875 -129.268554688 -200.013671875 c 0,22,23
 -142.245117188 -200.016601562 -142.245117188 -200.016601562 -151.137695312 -191.124023438 c 128,-1,24
 -160.030273438 -182.23046875 -160.030273438 -182.23046875 -160.030273438 -169.665039062 c 128,-1,25
 -160.030273438 -157.099609375 -160.030273438 -157.099609375 -151.137695312 -148.20703125 c 128,-1,26
 -142.245117188 -139.314453125 -142.245117188 -139.314453125 -129.6796875 -139.314453125 c 0,27,28
 -55.37109375 -139.31640625 -55.37109375 -139.31640625 -30.798828125 -136.688476562 c 0,29,30
 0.2763671875 -133.366210938 0.2763671875 -133.366210938 11.94921875 -123.845703125 c 0,31,32
 23.16796875 -114.694335938 23.16796875 -114.694335938 28.326171875 -88.6064453125 c 0,33,34
 34.23828125 -58.7138671875 34.23828125 -58.7138671875 34.23828125 8.4013671875 c 2,35,-1
 34.23828125 469.368164062 l 1,36,-1
 34.2353515625 469.796875 l 2,37,38
 34.2353515625 482.172851562 34.2353515625 482.172851562 42.9931640625 491.065429688 c 128,-1,39
 51.751953125 499.95703125 51.751953125 499.95703125 64.126953125 500.14453125 c 1,8,-1
EndSplineSet
Validated: 33
EndChar

StartChar: p
Encoding: 112 112 44
Width: 433
Flags: W
LayerCount: 2
Fore
SplineSet
157.583984375 498.888671875 m 0,0,1
 214.108398438 498.848632812 214.108398438 498.848632812 246.633789062 494.262695312 c 128,-1,2
 279.158203125 489.67578125 279.158203125 489.67578125 305.694335938 474.759765625 c 0,3,4
 330.009765625 461.091796875 330.009765625 461.091796875 341.53515625 437.170898438 c 128,-1,5
 353.059570312 413.249023438 353.059570312 413.249023438 361.583007812 375.51953125 c 0,6,7
 374 320.545898438 374 320.545898438 373.901367188 260.03125 c 0,8,9
 373.791015625 180.782226562 373.791015625 180.782226562 367.668945312 140.331054688 c 0,10,11
 354.669921875 54.458984375 354.669921875 54.458984375 310.203125 23.6640625 c 0,12,13
 271.452148438 -3.1708984375 271.452148438 -3.1708984375 216.598632812 -7.47265625 c 0,14,15
 198.8203125 -8.8662109375 198.8203125 -8.8662109375 109.88671875 -8.3271484375 c 1,16,-1
 109.88671875 -174.171875 l 2,17,18
 110.059570312 -186.6953125 110.059570312 -186.6953125 101.264648438 -195.612304688 c 128,-1,19
 92.4697265625 -204.530273438 92.4697265625 -204.530273438 79.9453125 -204.530273438 c 128,-1,20
 67.419921875 -204.530273438 67.419921875 -204.530273438 58.625 -195.612304688 c 128,-1,21
 49.830078125 -186.6953125 49.830078125 -186.6953125 50.00390625 -174.171875 c 2,22,-1
 50.00390625 468.05078125 l 2,23,24
 49.7763671875 485.711914062 49.7763671875 485.711914062 64.13671875 493.782226562 c 0,25,26
 72.87890625 498.696289062 72.87890625 498.696289062 80.7529296875 498.618164062 c 0,27,28
 95.669921875 498.618164062 95.669921875 498.618164062 121.192382812 498.756835938 c 128,-1,29
 146.713867188 498.895507812 146.713867188 498.895507812 157.583984375 498.888671875 c 0,0,1
109.884765625 438.704101562 m 1,30,-1
 109.885742188 51.57421875 l 1,31,32
 198.153320312 51.15625 198.153320312 51.15625 211.916015625 52.2353515625 c 0,33,34
 250.654296875 55.2724609375 250.654296875 55.2724609375 276.109375 72.900390625 c 0,35,36
 299.326171875 88.978515625 299.326171875 88.978515625 308.45703125 149.294921875 c 0,37,38
 313.909179688 185.3125 313.909179688 185.3125 314.013671875 260.122070312 c 0,39,-1
 314.013671875 260.12890625 l 2,40,41
 314.100585938 313.9296875 314.100585938 313.9296875 303.168945312 362.327148438 c 0,42,43
 299.697265625 377.693359375 299.697265625 377.693359375 293.700195312 392.091796875 c 128,-1,44
 287.704101562 406.490234375 287.704101562 406.490234375 283.068359375 413.938476562 c 128,-1,45
 278.43359375 421.387695312 278.43359375 421.387695312 276.3515625 422.557617188 c 0,46,47
 258.045898438 432.846679688 258.045898438 432.846679688 223.395507812 435.720703125 c 128,-1,48
 188.744140625 438.595703125 188.744140625 438.595703125 109.884765625 438.704101562 c 1,30,-1
EndSplineSet
Validated: 33
EndChar

StartChar: q
Encoding: 113 113 45
Width: 433
Flags: W
LayerCount: 2
Fore
SplineSet
266.31640625 500.444335938 m 0,0,1
 277.158203125 500.463867188 277.158203125 500.463867188 302.680664062 500.323242188 c 128,-1,2
 328.203125 500.18359375 328.203125 500.18359375 343.145507812 500.18359375 c 0,3,4
 353.620117188 500.319335938 353.620117188 500.319335938 361.680664062 494.491210938 c 0,5,6
 374.099609375 485.51171875 374.099609375 485.51171875 373.89453125 469.618164062 c 2,7,-1
 373.89453125 -172.603515625 l 2,8,9
 374.068359375 -185.126953125 374.068359375 -185.126953125 365.2734375 -194.044921875 c 128,-1,10
 356.478515625 -202.961914062 356.478515625 -202.961914062 343.955078125 -202.961914062 c 128,-1,11
 331.4296875 -202.961914062 331.4296875 -202.961914062 322.635742188 -194.044921875 c 128,-1,12
 313.840820312 -185.126953125 313.840820312 -185.126953125 314.013671875 -172.603515625 c 2,13,-1
 314.013671875 -6.759765625 l 1,14,15
 225.091796875 -7.296875 225.091796875 -7.296875 207.303710938 -5.90234375 c 0,16,17
 152.442382812 -1.599609375 152.442382812 -1.599609375 113.697265625 25.232421875 c 0,18,19
 69.2294921875 56.0263671875 69.2294921875 56.0263671875 56.2314453125 141.8984375 c 0,20,21
 50.1103515625 182.330078125 50.1103515625 182.330078125 50.0009765625 261.598632812 c 0,22,23
 49.9013671875 322.110351562 49.9013671875 322.110351562 62.3173828125 377.077148438 c 0,24,25
 70.83984375 414.807617188 70.83984375 414.807617188 82.365234375 438.729492188 c 128,-1,26
 93.8896484375 462.651367188 93.8896484375 462.651367188 118.205078125 476.319335938 c 0,27,28
 144.743164062 491.235351562 144.743164062 491.235351562 177.267578125 495.822265625 c 128,-1,29
 209.79296875 500.408203125 209.79296875 500.408203125 266.31640625 500.444335938 c 0,0,1
314.014648438 440.259765625 m 1,30,31
 235.154296875 440.147460938 235.154296875 440.147460938 200.504882812 437.2734375 c 128,-1,32
 165.854492188 434.3984375 165.854492188 434.3984375 147.55078125 424.110351562 c 0,33,34
 145.46875 422.939453125 145.46875 422.939453125 140.833984375 415.490234375 c 128,-1,35
 136.198242188 408.041015625 136.198242188 408.041015625 130.202148438 393.641601562 c 128,-1,36
 124.205078125 379.2421875 124.205078125 379.2421875 120.734375 363.876953125 c 0,37,38
 109.799804688 315.466796875 109.799804688 315.466796875 109.88671875 261.680664062 c 0,39,-1
 109.88671875 261.671875 l 2,40,41
 109.991210938 186.87109375 109.991210938 186.87109375 115.444335938 150.846679688 c 0,42,43
 124.57421875 90.53125 124.57421875 90.53125 147.791992188 74.4521484375 c 0,44,45
 173.248046875 56.8232421875 173.248046875 56.8232421875 211.985351562 53.78515625 c 0,46,47
 225.735351562 52.70703125 225.735351562 52.70703125 314.014648438 53.126953125 c 1,48,-1
 314.014648438 440.259765625 l 1,30,31
EndSplineSet
Validated: 33
EndChar

StartChar: r
Encoding: 114 114 46
Width: 272
Flags: W
LayerCount: 2
Fore
SplineSet
202.161132812 501.900390625 m 5,0,-1
 202.525390625 501.90234375 l 6,1,2
 215.141601562 501.90234375 215.141601562 501.90234375 224.069335938 492.973632812 c 132,-1,3
 232.998046875 484.044921875 232.998046875 484.044921875 232.998046875 471.428710938 c 132,-1,4
 232.998046875 458.8125 232.998046875 458.8125 224.069335938 449.883789062 c 132,-1,5
 215.141601562 440.955078125 215.141601562 440.955078125 202.525390625 440.955078125 c 6,6,-1
 202.157226562 440.958007812 l 6,7,8
 129.436523438 440.958007812 129.436523438 440.958007812 112.22265625 421.897460938 c 4,9,10
 100.944335938 409.409179688 100.944335938 409.409179688 100.944335938 357.314453125 c 6,11,-1
 100.944335938 22.1806640625 l 6,12,13
 100.947265625 9.197265625 100.947265625 9.197265625 92.0185546875 0.2685546875 c 132,-1,14
 83.08984375 -8.66015625 83.08984375 -8.66015625 70.4736328125 -8.66015625 c 132,-1,15
 57.857421875 -8.66015625 57.857421875 -8.66015625 48.9287109375 0.2685546875 c 132,-1,16
 40 9.197265625 40 9.197265625 40 21.8134765625 c 4,17,-1
 40.0029296875 357.314453125 l 6,18,19
 40.0029296875 382.368164062 40.0029296875 382.368164062 40.9677734375 396.279296875 c 132,-1,20
 41.931640625 410.190429688 41.931640625 410.190429688 48.2216796875 429.557617188 c 132,-1,21
 54.5107421875 448.924804688 54.5107421875 448.924804688 66.9951171875 462.747070312 c 4,22,23
 102.362304688 501.900390625 102.362304688 501.900390625 202.161132812 501.900390625 c 5,0,-1
EndSplineSet
Validated: 1
EndChar

StartChar: s
Encoding: 115 115 47
Width: 392
VWidth: 0
Flags: W
LayerCount: 2
Fore
SplineSet
216.287109375 499.698242188 m 2,0,-1
 216.295898438 499.698242188 l 1,1,-1
 301.956054688 499.6484375 l 1,2,-1
 302.385742188 499.651367188 l 2,3,4
 314.766601562 499.651367188 314.766601562 499.651367188 323.528320312 490.889648438 c 128,-1,5
 332.291015625 482.126953125 332.291015625 482.126953125 332.291015625 469.747070312 c 128,-1,6
 332.291015625 457.366210938 332.291015625 457.366210938 323.528320312 448.604492188 c 128,-1,7
 314.766601562 439.842773438 314.766601562 439.842773438 302.385742188 439.842773438 c 2,8,-1
 301.920898438 439.845703125 l 1,9,-1
 216.270507812 439.895507812 l 2,10,11
 156.873046875 439.895507812 156.873046875 439.895507812 140.178710938 434.275390625 c 0,12,13
 125.171875 429.223632812 125.171875 429.223632812 117.021484375 403.23828125 c 0,14,15
 109.883789062 380.487304688 109.883789062 380.487304688 109.802734375 348.504882812 c 2,16,-1
 109.802734375 348.498046875 l 2,17,18
 109.731445312 324.735351562 109.731445312 324.735351562 123.403320312 307.6796875 c 0,19,20
 143.752929688 282.293945312 143.752929688 282.293945312 193.106445312 279.02734375 c 0,21,22
 268.71875 274.025390625 268.71875 274.025390625 305.526367188 228.104492188 c 0,23,24
 332.400390625 194.576171875 332.400390625 194.576171875 332.266601562 149.71484375 c 0,25,26
 332.16015625 108.65625 332.16015625 108.65625 322.305664062 77.2431640625 c 0,27,28
 305.036132812 22.19921875 305.036132812 22.19921875 261.170898438 7.4296875 c 0,29,30
 235.185546875 -1.318359375 235.185546875 -1.318359375 165.977539062 -1.318359375 c 0,31,-1
 80.30859375 -1.2685546875 l 1,32,-1
 79.9580078125 -1.2705078125 l 2,33,34
 67.5771484375 -1.2705078125 67.5771484375 -1.2705078125 58.8154296875 7.4912109375 c 128,-1,35
 50.0537109375 16.25390625 50.0537109375 16.25390625 50.0537109375 28.634765625 c 128,-1,36
 50.0537109375 41.0146484375 50.0537109375 41.0146484375 58.8154296875 49.77734375 c 128,-1,37
 67.5771484375 58.5390625 67.5771484375 58.5390625 79.9580078125 58.5390625 c 2,38,-1
 80.34375 58.5361328125 l 1,39,-1
 165.994140625 58.486328125 l 2,40,41
 225.393554688 58.4873046875 225.393554688 58.4873046875 242.087890625 64.107421875 c 0,42,43
 257.091796875 69.158203125 257.091796875 69.158203125 265.244140625 95.142578125 c 0,44,45
 272.379882812 117.89453125 272.379882812 117.89453125 272.461914062 149.875976562 c 0,46,-1
 272.461914062 149.891601562 l 2,47,48
 272.532226562 173.645507812 272.532226562 173.645507812 258.861328125 190.700195312 c 0,49,50
 238.509765625 216.08984375 238.509765625 216.08984375 189.158203125 219.35546875 c 0,51,52
 113.546875 224.357421875 113.546875 224.357421875 76.7412109375 270.27734375 c 0,53,54
 49.8681640625 303.801757812 49.8681640625 303.801757812 50.0009765625 348.65625 c 0,55,-1
 50.0009765625 348.671875 l 2,56,57
 50.1044921875 389.725585938 50.1044921875 389.725585938 59.958984375 421.13671875 c 0,58,59
 77.2265625 476.180664062 77.2265625 476.180664062 121.096679688 490.950195312 c 0,60,61
 147.081054688 499.698242188 147.081054688 499.698242188 216.287109375 499.698242188 c 2,0,-1
EndSplineSet
Validated: 33
EndChar

StartChar: t
Encoding: 116 116 48
Width: 345
VWidth: 0
Flags: W
HStem: -0.946289 59.4619<201.856 300.757> 440.192 59.8086<49.5135 119.565 179.384 273.016>
VStem: 119.565 59.8184<72.39 440.204 499.989 697.636>
LayerCount: 2
Fore
SplineSet
149.474609375 705.77734375 m 128,-1,1
 161.625 705.77734375 161.625 705.77734375 170.50390625 697.883789062 c 128,-1,2
 179.383789062 689.990234375 179.383789062 689.990234375 179.383789062 675.866210938 c 2,3,-1
 179.383789062 499.989257812 l 1,4,-1
 251.299804688 499.989257812 l 2,5,6
 251.701171875 500.000976562 251.701171875 500.000976562 252.1484375 500.000976562 c 0,7,8
 264.528320312 500.000976562 264.528320312 500.000976562 273.291015625 491.239257812 c 128,-1,9
 282.052734375 482.4765625 282.052734375 482.4765625 282.052734375 470.096679688 c 128,-1,10
 282.052734375 457.715820312 282.052734375 457.715820312 273.291015625 448.954101562 c 128,-1,11
 264.528320312 440.192382812 264.528320312 440.192382812 252.1484375 440.192382812 c 0,12,13
 251.701171875 440.192382812 251.701171875 440.192382812 251.299804688 440.204101562 c 2,14,-1
 179.383789062 440.204101562 l 1,15,-1
 179.383789062 201.475585938 l 2,16,17
 179.383789062 135.265625 179.383789062 135.265625 185.188476562 105.909179688 c 0,18,19
 190.272460938 80.1982421875 190.272460938 80.1982421875 201.345703125 71.16796875 c 0,20,21
 217.59765625 57.91015625 217.59765625 57.91015625 243.450195312 58.515625 c 2,22,-1
 273.673828125 59.22265625 l 2,23,24
 293.02734375 59.67578125 293.02734375 59.67578125 301.008789062 44.802734375 c 128,-1,25
 308.990234375 29.9287109375 308.990234375 29.9287109375 301.010742188 14.78515625 c 128,-1,26
 293.03125 -0.359375 293.03125 -0.359375 273.673828125 -0.5625 c 2,27,-1
 237.091796875 -0.9462890625 l 2,28,29
 195.66796875 -1.3798828125 195.66796875 -1.3798828125 163.51953125 24.84375 c 0,30,31
 135.80078125 47.4541015625 135.80078125 47.4541015625 126.538085938 94.296875 c 0,32,33
 119.565429688 129.559570312 119.565429688 129.559570312 119.565429688 201.475585938 c 2,34,-1
 119.565429688 440.204101562 l 1,35,-1
 71.23046875 440.204101562 l 2,36,37
 70.8291015625 440.192382812 70.8291015625 440.192382812 70.3818359375 440.192382812 c 0,38,39
 58.001953125 440.192382812 58.001953125 440.192382812 49.2392578125 448.954101562 c 128,-1,40
 40.4775390625 457.715820312 40.4775390625 457.715820312 40.4775390625 470.096679688 c 128,-1,41
 40.4775390625 482.4765625 40.4775390625 482.4765625 49.2392578125 491.239257812 c 128,-1,42
 58.001953125 500.000976562 58.001953125 500.000976562 70.3818359375 500.000976562 c 0,43,44
 70.8291015625 500.000976562 70.8291015625 500.000976562 71.23046875 499.989257812 c 2,45,-1
 119.565429688 499.989257812 l 1,46,-1
 119.565429688 675.866210938 l 2,47,48
 119.565429688 689.990234375 119.565429688 689.990234375 128.4453125 697.883789062 c 128,-1,0
 137.32421875 705.77734375 137.32421875 705.77734375 149.474609375 705.77734375 c 128,-1,1
EndSplineSet
Validated: 33
EndChar

StartChar: u
Encoding: 117 117 49
Width: 430
VWidth: 0
Flags: W
LayerCount: 2
Fore
SplineSet
79.4501953125 502.107421875 m 1,0,-1
 79.8984375 502.110351562 l 2,1,2
 92.2783203125 502.110351562 92.2783203125 502.110351562 101.041015625 493.348632812 c 128,-1,3
 109.802734375 484.5859375 109.802734375 484.5859375 109.802734375 472.206054688 c 0,4,-1
 109.799804688 152.551757812 l 2,5,6
 110.051757812 106.645507812 110.051757812 106.645507812 130.793945312 84.041015625 c 0,7,8
 154.53125 58.1708984375 154.53125 58.1708984375 210.001953125 58.1708984375 c 128,-1,9
 265.650390625 58.1708984375 265.650390625 58.1708984375 289.7890625 84.353515625 c 0,10,11
 310.861328125 107.208007812 310.861328125 107.208007812 310.206054688 151.951171875 c 0,12,-1
 310.203125 471.784179688 l 2,13,14
 310.200195312 484.610351562 310.200195312 484.610351562 318.961914062 493.373046875 c 128,-1,15
 327.724609375 502.134765625 327.724609375 502.134765625 340.104492188 502.134765625 c 128,-1,16
 352.485351562 502.134765625 352.485351562 502.134765625 361.247070312 493.373046875 c 128,-1,17
 370.009765625 484.610351562 370.009765625 484.610351562 370.009765625 472.23046875 c 0,18,-1
 370.005859375 152.389648438 l 1,19,-1
 370.005859375 152.828125 l 2,20,21
 371.012695312 84.2236328125 371.012695312 84.2236328125 333.7578125 43.8154296875 c 0,22,23
 291.858398438 -1.6318359375 291.858398438 -1.6318359375 210.00390625 -1.6318359375 c 128,-1,24
 128.244140625 -1.6318359375 128.244140625 -1.6318359375 86.7314453125 43.6064453125 c 0,25,26
 50.3779296875 83.2236328125 50.3779296875 83.2236328125 50 152.224609375 c 0,27,-1
 50 471.784179688 l 2,28,29
 49.99609375 484.401367188 49.99609375 484.401367188 58.6259765625 493.162109375 c 128,-1,30
 67.2568359375 501.923828125 67.2568359375 501.923828125 79.4501953125 502.107421875 c 1,0,-1
EndSplineSet
Validated: 37
EndChar

StartChar: v
Encoding: 118 118 50
Width: 434
VWidth: 0
Flags: W
LayerCount: 2
Fore
SplineSet
345.424804688 499.373046875 m 4,0,1
 357.390625 498.82421875 357.390625 498.82421875 365.859375 489.958984375 c 132,-1,2
 374.328125 481.094726562 374.328125 481.094726562 374.328125 469.116210938 c 4,3,4
 374.328125 464.92578125 374.328125 464.92578125 373.190429688 460.891601562 c 6,5,-1
 255.694335938 20.6923828125 l 6,6,7
 253.209960938 11.3876953125 253.209960938 11.3876953125 244.63671875 4.8017578125 c 132,-1,8
 236.0625 -1.783203125 236.0625 -1.783203125 226.432617188 -1.7841796875 c 6,9,-1
 185.965820312 -1.7841796875 l 6,10,11
 176.080078125 -1.783203125 176.080078125 -1.783203125 167.450195312 5.0205078125 c 132,-1,12
 158.821289062 11.8251953125 158.821289062 11.8251953125 156.514648438 21.4384765625 c 6,13,-1
 50.9287109375 461.638671875 l 6,14,15
 50 465.30078125 50 465.30078125 50 469.080078125 c 4,16,17
 50 481.620117188 50 481.620117188 58.875 490.494140625 c 132,-1,18
 67.7490234375 499.369140625 67.7490234375 499.369140625 80.2890625 499.369140625 c 4,19,20
 90.3076171875 499.369140625 90.3076171875 499.369140625 98.9638671875 492.453125 c 132,-1,21
 107.619140625 485.538085938 107.619140625 485.538085938 109.831054688 475.765625 c 6,22,-1
 206.686523438 71.9599609375 l 5,23,-1
 314.66796875 476.512695312 l 6,24,25
 317.053710938 485.990234375 317.053710938 485.990234375 325.66015625 492.697265625 c 132,-1,26
 334.265625 499.404296875 334.265625 499.404296875 344.0390625 499.404296875 c 4,27,28
 344.74609375 499.404296875 344.74609375 499.404296875 345.424804688 499.373046875 c 4,0,1
EndSplineSet
Validated: 1
EndChar

StartChar: w
Encoding: 119 119 51
Width: 688
VWidth: 0
Flags: W
LayerCount: 2
Fore
SplineSet
79.357421875 499.987304688 m 0,0,1
 91.9580078125 500.177734375 91.9580078125 500.177734375 100.874023438 491.270507812 c 128,-1,2
 109.790039062 482.36328125 109.790039062 482.36328125 109.611328125 469.76171875 c 2,3,-1
 109.611328125 151.51953125 l 2,4,5
 109.877929688 105.806640625 109.877929688 105.806640625 130.536132812 83.2939453125 c 0,6,7
 154.194335938 57.5107421875 154.194335938 57.5107421875 209.483398438 57.5107421875 c 128,-1,8
 264.9453125 57.5107421875 264.9453125 57.5107421875 289.005859375 83.6064453125 c 0,9,10
 310.010742188 106.390625 310.010742188 106.390625 309.357421875 150.98046875 c 0,11,-1
 309.353515625 378.712890625 l 2,12,13
 309.188476562 391.173828125 309.188476562 391.173828125 317.94140625 400.04296875 c 128,-1,14
 326.6953125 408.912109375 326.6953125 408.912109375 339.157226562 408.912109375 c 128,-1,15
 351.618164062 408.912109375 351.618164062 408.912109375 360.37109375 400.04296875 c 128,-1,16
 369.125 391.173828125 369.125 391.173828125 368.9609375 378.712890625 c 2,17,-1
 368.995117188 151.44921875 l 2,18,19
 369.2421875 106.493164062 369.2421875 106.493164062 390.529296875 83.2939453125 c 0,20,21
 414.189453125 57.5107421875 414.189453125 57.5107421875 469.4765625 57.5107421875 c 128,-1,22
 524.939453125 57.5107421875 524.939453125 57.5107421875 549 83.6064453125 c 0,23,24
 570.004882812 106.390625 570.004882812 106.390625 569.3515625 150.98046875 c 0,25,-1
 569.348632812 469.76171875 l 2,26,27
 569.172851562 482.098632812 569.172851562 482.098632812 577.768554688 490.94921875 c 128,-1,28
 586.364257812 499.80078125 586.364257812 499.80078125 598.702148438 499.987304688 c 0,29,30
 611.302734375 500.176757812 611.302734375 500.176757812 620.217773438 491.26953125 c 128,-1,31
 629.1328125 482.362304688 629.1328125 482.362304688 628.954101562 469.76171875 c 2,32,-1
 628.954101562 151.516601562 l 1,33,-1
 628.954101562 151.418945312 l 2,34,35
 629.82421875 83.3369140625 629.82421875 83.3369140625 592.823242188 43.203125 c 0,36,37
 551.061523438 -2.09375 551.061523438 -2.09375 469.4765625 -2.09375 c 128,-1,38
 387.982421875 -2.09375 387.982421875 -2.09375 346.610351562 42.9951171875 c 0,39,40
 342.97265625 46.9599609375 342.97265625 46.9599609375 339.65234375 51.291015625 c 1,41,42
 336.3671875 47.0419921875 336.3671875 47.0419921875 332.830078125 43.203125 c 0,43,44
 291.068359375 -2.09375 291.068359375 -2.09375 209.483398438 -2.09375 c 128,-1,45
 127.989257812 -2.09375 127.989257812 -2.09375 86.6171875 42.9951171875 c 0,46,47
 67.4697265625 63.8603515625 67.4697265625 63.8603515625 58.8251953125 91.5087890625 c 128,-1,48
 50.1806640625 119.157226562 50.1806640625 119.157226562 50.00390625 151.25390625 c 0,49,-1
 50.00390625 469.76171875 l 2,50,51
 49.828125 482.098632812 49.828125 482.098632812 58.423828125 490.94921875 c 128,-1,52
 67.01953125 499.80078125 67.01953125 499.80078125 79.357421875 499.987304688 c 0,0,1
EndSplineSet
Validated: 33
EndChar

StartChar: x
Encoding: 120 120 52
Width: 434
VWidth: 0
Flags: W
LayerCount: 2
Fore
SplineSet
78.68359375 499.844726562 m 0,0,1
 79.4228515625 499.8828125 79.4228515625 499.8828125 80.1962890625 499.8828125 c 128,-1,2
 80.9697265625 499.8828125 80.9697265625 499.8828125 81.708984375 499.844726562 c 0,3,4
 98.2646484375 499.094726562 98.2646484375 499.094726562 106.571289062 484.75 c 2,5,-1
 212.431640625 307.887695312 l 1,6,-1
 318.29296875 484.75 l 2,7,8
 327.055664062 499.854492188 327.055664062 499.854492188 344.516601562 499.854492188 c 0,9,10
 344.91796875 499.854492188 344.91796875 499.854492188 345.259765625 499.844726562 c 0,11,12
 357.506835938 499.547851562 357.506835938 499.547851562 366.173828125 490.66796875 c 128,-1,13
 374.841796875 481.788085938 374.841796875 481.788085938 374.841796875 469.537109375 c 0,14,15
 374.841796875 460.930664062 374.841796875 460.930664062 370.319335938 453.607421875 c 2,16,-1
 247.751953125 248.856445312 l 1,17,-1
 370.319335938 44.138671875 l 2,18,19
 374.624023438 36.9482421875 374.624023438 36.9482421875 374.624023438 28.5673828125 c 0,20,21
 374.624023438 16.015625 374.624023438 16.015625 365.741210938 7.1328125 c 128,-1,22
 356.858398438 -1.75 356.858398438 -1.75 344.306640625 -1.75 c 0,23,24
 327.12109375 -1.75 327.12109375 -1.75 318.29296875 12.99609375 c 2,25,-1
 212.431640625 189.858398438 l 1,26,-1
 106.571289062 12.99609375 l 2,27,28
 97.7412109375 -1.7373046875 97.7412109375 -1.7373046875 80.5654296875 -1.7373046875 c 0,29,30
 68.013671875 -1.7373046875 68.013671875 -1.7373046875 59.130859375 7.146484375 c 128,-1,31
 50.248046875 16.029296875 50.248046875 16.029296875 50.248046875 28.5810546875 c 0,32,33
 50.248046875 36.955078125 50.248046875 36.955078125 54.544921875 44.138671875 c 2,34,-1
 177.112304688 248.856445312 l 1,35,-1
 54.544921875 453.607421875 l 2,36,37
 50 460.942382812 50 460.942382812 50 469.572265625 c 0,38,39
 50 481.46484375 50 481.46484375 58.404296875 490.333984375 c 128,-1,40
 66.80859375 499.204101562 66.80859375 499.204101562 78.68359375 499.844726562 c 0,0,1
EndSplineSet
Validated: 1
EndChar

StartChar: y
Encoding: 121 121 53
Width: 417
VWidth: 0
Flags: W
LayerCount: 2
Fore
SplineSet
79.390625 501.171875 m 0,0,-1
 79.8388671875 501.174804688 l 2,1,2
 92.1787109375 501.174804688 92.1787109375 501.174804688 100.912109375 492.44140625 c 128,-1,3
 109.645507812 483.708984375 109.645507812 483.708984375 109.645507812 471.369140625 c 0,4,-1
 109.631835938 198.828125 l 2,5,6
 108.958984375 103.538085938 108.958984375 103.538085938 129.497070312 80.919921875 c 0,7,8
 150.291992188 58.0185546875 150.291992188 58.0185546875 240.118164062 58.0185546875 c 2,9,-1
 297.057617188 58.1337890625 l 1,10,-1
 297.057617188 470.3125 l 1,11,-1
 297.0546875 470.737304688 l 2,12,13
 297.0546875 482.973632812 297.0546875 482.973632812 305.713867188 491.763671875 c 128,-1,14
 314.373046875 500.5546875 314.373046875 500.5546875 326.608398438 500.73828125 c 0,15,16
 339.482421875 500.741210938 339.482421875 500.741210938 348.2734375 491.950195312 c 128,-1,17
 357.065429688 483.158203125 357.065429688 483.158203125 357.065429688 470.737304688 c 2,18,-1
 357.0625 470.3125 l 1,19,-1
 357.0625 14.61328125 l 2,20,21
 357.0625 -57.60546875 357.0625 -57.60546875 350.079101562 -92.9228515625 c 0,22,23
 340.786132812 -139.911132812 340.786132812 -139.911132812 312.950195312 -162.6171875 c 0,24,25
 287.58984375 -183.301757812 287.58984375 -183.301757812 239.145507812 -188.48046875 c 0,26,27
 211.684570312 -191.416992188 211.684570312 -191.416992188 135.421875 -191.416992188 c 2,28,-1
 134.9765625 -191.419921875 l 2,29,30
 122.5546875 -191.419921875 122.5546875 -191.419921875 113.763671875 -182.62890625 c 128,-1,31
 104.97265625 -173.837890625 104.97265625 -173.837890625 104.97265625 -161.416015625 c 128,-1,32
 104.97265625 -148.994140625 104.97265625 -148.994140625 113.763671875 -140.202148438 c 128,-1,33
 122.5546875 -131.411132812 122.5546875 -131.411132812 134.9765625 -131.411132812 c 2,34,-1
 135.421875 -131.415039062 l 2,35,36
 208.469726562 -131.415039062 208.469726562 -131.415039062 232.765625 -128.817382812 c 0,37,38
 263.481445312 -125.533203125 263.481445312 -125.533203125 275.024414062 -116.120117188 c 0,39,40
 286.116210938 -107.072265625 286.116210938 -107.072265625 291.215820312 -81.28515625 c 0,41,42
 296.372070312 -55.208984375 296.372070312 -55.208984375 296.970703125 -1.4716796875 c 1,43,-1
 240.1484375 -1.5888671875 l 2,44,45
 180.6015625 -1.5888671875 180.6015625 -1.5888671875 144.40234375 7.05859375 c 128,-1,46
 108.202148438 15.705078125 108.202148438 15.705078125 85.369140625 40.8505859375 c 0,47,48
 62.8740234375 65.6240234375 62.8740234375 65.6240234375 56.2353515625 101.451171875 c 128,-1,49
 49.5966796875 137.278320312 49.5966796875 137.278320312 50.0263671875 198.934570312 c 0,50,-1
 50.0263671875 199.14453125 l 1,51,-1
 50.037109375 470.948242188 l 2,52,53
 50.0341796875 483.5234375 50.0341796875 483.5234375 58.6357421875 492.255859375 c 128,-1,54
 67.2373046875 500.989257812 67.2373046875 500.989257812 79.390625 501.171875 c 0,0,-1
EndSplineSet
Validated: 33
EndChar

StartChar: z
Encoding: 122 122 54
Width: 431
VWidth: 0
Flags: W
LayerCount: 2
Fore
SplineSet
341.852539062 500 m 2,0,1
 354.20703125 500 354.20703125 500 362.950195312 491.256835938 c 128,-1,2
 371.693359375 482.512695312 371.693359375 482.512695312 371.693359375 470.159179688 c 0,3,4
 371.693359375 461.954101562 371.693359375 461.954101562 367.499023438 454.90234375 c 2,5,-1
 132.319335938 59.732421875 l 1,6,-1
 340.79296875 59.7724609375 l 2,7,8
 353.560546875 59.7744140625 353.560546875 59.7744140625 362.3046875 51.03125 c 128,-1,9
 371.047851562 42.2880859375 371.047851562 42.2880859375 371.047851562 29.93359375 c 128,-1,10
 371.047851562 17.5791015625 371.047851562 17.5791015625 362.3046875 8.8359375 c 128,-1,11
 353.560546875 0.0927734375 353.560546875 0.0927734375 341.206054688 0.0927734375 c 0,12,-1
 79.8408203125 0.0458984375 l 2,13,14
 67.486328125 0.046875 67.486328125 0.046875 58.7431640625 8.7900390625 c 128,-1,15
 50 17.533203125 50 17.533203125 50 29.8876953125 c 0,16,17
 50 38.091796875 50 38.091796875 54.1943359375 45.1435546875 c 2,18,-1
 289.374023438 440.313476562 l 1,19,-1
 80.900390625 440.274414062 l 1,20,-1
 80.4873046875 440.271484375 l 2,21,22
 68.1328125 440.271484375 68.1328125 440.271484375 59.3896484375 449.014648438 c 128,-1,23
 50.646484375 457.758789062 50.646484375 457.758789062 50.646484375 470.11328125 c 128,-1,24
 50.646484375 482.466796875 50.646484375 482.466796875 59.3896484375 491.2109375 c 128,-1,25
 68.1328125 499.954101562 68.1328125 499.954101562 80.4873046875 499.954101562 c 2,26,-1
 80.8876953125 499.951171875 l 1,27,-1
 341.852539062 500 l 2,0,1
EndSplineSet
Validated: 1
EndChar

StartChar: h
Encoding: 104 104 55
Width: 426
VWidth: 0
Flags: W
LayerCount: 2
Fore
SplineSet
80.0185546875 704.645507812 m 4,0,1
 92.9033203125 704.83984375 92.9033203125 704.83984375 102.020507812 695.732421875 c 132,-1,2
 111.13671875 686.624023438 111.13671875 686.624023438 110.954101562 673.73828125 c 6,3,-1
 110.954101562 501.631835938 l 5,4,-1
 171.7421875 501.755859375 l 6,5,6
 232.599609375 501.755859375 232.599609375 501.755859375 269.614257812 492.9140625 c 132,-1,7
 306.629882812 484.073242188 306.629882812 484.073242188 329.977539062 458.361328125 c 4,8,9
 352.999023438 433.0078125 352.999023438 433.0078125 359.780273438 396.338867188 c 132,-1,10
 366.560546875 359.669921875 366.560546875 359.669921875 366.114257812 296.5 c 6,11,-1
 366.116210938 296.71484375 l 5,12,-1
 366.103515625 24.92578125 l 6,13,14
 366.30078125 12.1630859375 366.30078125 12.1630859375 357.345703125 3.0693359375 c 132,-1,15
 348.390625 -6.025390625 348.390625 -6.025390625 335.626953125 -6.0244140625 c 132,-1,16
 322.86328125 -6.0234375 322.86328125 -6.0234375 313.909179688 3.072265625 c 132,-1,17
 304.955078125 12.16796875 304.955078125 12.16796875 305.155273438 24.9296875 c 6,18,-1
 305.166015625 296.823242188 l 6,19,20
 305.856445312 394.2578125 305.856445312 394.2578125 284.853515625 417.38671875 c 4,21,22
 263.58984375 440.8046875 263.58984375 440.8046875 171.7421875 440.8046875 c 6,23,-1
 110.954101562 440.681640625 l 5,24,-1
 110.954101562 23.77734375 l 6,25,26
 111.063476562 15.4248046875 111.063476562 15.4248046875 107.010742188 8.3076171875 c 132,-1,27
 102.958007812 1.19140625 102.958007812 1.19140625 95.8955078125 -2.953125 c 132,-1,28
 88.83203125 -7.0986328125 88.83203125 -7.0986328125 80.478515625 -7.0986328125 c 4,29,30
 67.7373046875 -7.0986328125 67.7373046875 -7.0986328125 58.787109375 1.9697265625 c 132,-1,31
 49.8369140625 11.037109375 49.8369140625 11.037109375 50.00390625 23.77734375 c 6,32,-1
 50.00390625 673.73828125 l 6,33,34
 49.82421875 686.353515625 49.82421875 686.353515625 58.61328125 695.404296875 c 132,-1,35
 67.4033203125 704.455078125 67.4033203125 704.455078125 80.0185546875 704.645507812 c 4,0,1
EndSplineSet
Validated: 33
EndChar

StartChar: A
Encoding: 65 65 56
Width: 547
VWidth: 0
Flags: W
LayerCount: 2
Fore
SplineSet
304.811523438 701.383789062 m 5,0,-1
 304.913085938 701.383789062 l 5,1,-1
 458.133789062 700.53125 l 6,2,3
 470.287109375 700.462890625 470.287109375 700.462890625 478.888671875 691.8125 c 132,-1,4
 487.490234375 683.162109375 487.490234375 683.162109375 487.490234375 671.0078125 c 4,5,-1
 486.619140625 28.6376953125 l 5,6,-1
 486.622070312 28.2744140625 l 6,7,8
 486.622070312 16.0517578125 486.622070312 16.0517578125 477.971679688 7.40234375 c 132,-1,9
 469.321289062 -1.248046875 469.321289062 -1.248046875 457.098632812 -1.248046875 c 132,-1,10
 444.875976562 -1.248046875 444.875976562 -1.248046875 436.225585938 7.40234375 c 132,-1,11
 427.575195312 16.0517578125 427.575195312 16.0517578125 427.575195312 28.2744140625 c 6,12,-1
 427.578125 28.7177734375 l 5,13,-1
 428.030273438 360.984375 l 5,14,-1
 113.385742188 361.1796875 l 5,15,-1
 109.16015625 361.182617188 l 5,16,-1
 109.607421875 28.58203125 l 5,17,-1
 109.610351562 28.138671875 l 6,18,19
 109.610351562 15.916015625 109.610351562 15.916015625 100.959960938 7.265625 c 132,-1,20
 92.3095703125 -1.384765625 92.3095703125 -1.384765625 80.0869140625 -1.384765625 c 132,-1,21
 67.8642578125 -1.384765625 67.8642578125 -1.384765625 59.2138671875 7.265625 c 132,-1,22
 50.5634765625 15.916015625 50.5634765625 15.916015625 50.5634765625 28.138671875 c 6,23,-1
 50.56640625 28.501953125 l 5,24,-1
 50 450.557617188 l 6,25,26
 51.0380859375 580.524414062 51.0380859375 580.524414062 117.467773438 642.56640625 c 4,27,28
 180.193359375 701.1484375 180.193359375 701.1484375 304.811523438 701.383789062 c 5,0,-1
304.900390625 642.34375 m 6,29,30
 203.533203125 642.15234375 203.533203125 642.15234375 157.7890625 599.4296875 c 4,31,32
 109.900390625 554.70703125 109.900390625 554.70703125 109.064453125 450.374023438 c 4,33,-1
 109.10546875 420.221679688 l 5,34,-1
 113.4453125 420.219726562 l 5,35,-1
 428.134765625 420.022460938 l 5,36,-1
 428.434570312 641.655273438 l 5,37,-1
 304.900390625 642.34375 l 6,29,30
EndSplineSet
Validated: 1
EndChar

StartChar: B
Encoding: 66 66 57
Width: 548
VWidth: 0
Flags: W
LayerCount: 2
Fore
SplineSet
360.970703125 700.779296875 m 5,0,-1
 361.061523438 700.779296875 l 6,1,2
 399.267578125 700.779296875 399.267578125 700.779296875 427.747070312 684.170898438 c 132,-1,3
 456.225585938 667.563476562 456.225585938 667.563476562 469.852539062 640.974609375 c 4,4,5
 488.038085938 605.490234375 488.038085938 605.490234375 488.038085938 539.522460938 c 4,6,7
 488.038085938 469.521484375 488.038085938 469.521484375 471.963867188 432.391601562 c 4,8,9
 461.600585938 408.451171875 461.600585938 408.451171875 440.85546875 391.145507812 c 5,10,11
 441.224609375 390.831054688 441.224609375 390.831054688 442.096679688 390.186523438 c 132,-1,12
 442.96875 389.541015625 442.96875 389.541015625 443.4140625 389.138671875 c 4,13,14
 488.038085938 348.724609375 488.038085938 348.724609375 488.038085938 247.18359375 c 6,15,-1
 488.038085938 167.36328125 l 6,16,17
 488.038085938 95.0048828125 488.038085938 95.0048828125 470.677734375 59.1259765625 c 4,18,19
 457.341796875 31.564453125 457.341796875 31.564453125 428.360351562 14.6396484375 c 132,-1,20
 399.379882812 -2.2861328125 399.379882812 -2.2861328125 360.544921875 -1.60546875 c 4,21,22
 315.462890625 -1.5361328125 315.462890625 -1.5361328125 221.4765625 -1.373046875 c 132,-1,23
 127.491210938 -1.208984375 127.491210938 -1.208984375 80.267578125 -1.130859375 c 4,24,25
 68.115234375 -1.109375 68.115234375 -1.109375 59.501953125 7.505859375 c 132,-1,26
 50.888671875 16.12109375 50.888671875 16.12109375 50.8701171875 28.2724609375 c 6,27,-1
 50 670.438476562 l 6,28,29
 50 682.627929688 50 682.627929688 58.6015625 691.255859375 c 132,-1,30
 67.2021484375 699.883789062 67.2021484375 699.883789062 79.35546875 699.921875 c 6,31,-1
 360.970703125 700.779296875 l 5,0,-1
361.061523438 641.890625 m 6,32,-1
 108.930664062 641.124023438 l 5,33,-1
 109.225585938 423.201171875 l 5,34,-1
 361.161132812 422.331054688 l 6,35,36
 387.384765625 422.333007812 387.384765625 422.333007812 398.754882812 430.056640625 c 132,-1,37
 410.125976562 437.780273438 410.125976562 437.780273438 417.920898438 455.788085938 c 4,38,39
 429.149414062 481.725585938 429.149414062 481.725585938 429.149414062 539.522460938 c 4,40,41
 429.149414062 591.2734375 429.149414062 591.2734375 417.444335938 614.114257812 c 4,42,43
 409.932617188 628.771484375 409.932617188 628.771484375 398.4609375 635.330078125 c 132,-1,44
 386.990234375 641.889648438 386.990234375 641.889648438 361.061523438 641.890625 c 6,32,-1
109.305664062 364.3125 m 5,45,-1
 109.720703125 57.7080078125 l 5,46,47
 145.87890625 57.6474609375 145.87890625 57.6474609375 231.848632812 57.498046875 c 132,-1,48
 317.819335938 57.3486328125 317.819335938 57.3486328125 361.109375 57.2783203125 c 6,49,-1
 361.576171875 57.2744140625 l 6,50,51
 388.049804688 56.810546875 388.049804688 56.810546875 399.15234375 63.1318359375 c 132,-1,52
 410.25390625 69.453125 410.25390625 69.453125 417.666992188 84.7744140625 c 4,53,54
 429.149414062 108.505859375 429.149414062 108.505859375 429.149414062 167.36328125 c 6,55,-1
 429.149414062 247.18359375 l 6,56,57
 429.149414062 322.607421875 429.149414062 322.607421875 403.8828125 345.490234375 c 4,58,59
 385.901367188 361.775390625 385.901367188 361.775390625 331.336914062 363.45703125 c 4,60,61
 330.388671875 363.477539062 330.388671875 363.477539062 329.494140625 363.552734375 c 6,62,-1
 109.305664062 364.3125 l 5,45,-1
EndSplineSet
EndChar

StartChar: C
Encoding: 67 67 58
Width: 512
VWidth: 0
Flags: W
LayerCount: 2
Fore
SplineSet
329.455078125 702.57421875 m 4,0,1
 344.25 702.521484375 344.25 702.521484375 388.456054688 701.795898438 c 132,-1,2
 432.662109375 701.069335938 432.662109375 701.069335938 461.752929688 701.111328125 c 6,3,-1
 462.23828125 701.115234375 l 6,4,5
 474.560546875 701.115234375 474.560546875 701.115234375 483.280273438 692.395507812 c 132,-1,6
 492 683.674804688 492 683.674804688 492 671.353515625 c 132,-1,7
 492 659.032226562 492 659.032226562 483.280273438 650.311523438 c 132,-1,8
 474.560546875 641.590820312 474.560546875 641.590820312 462.23828125 641.590820312 c 6,9,-1
 461.836914062 641.59375 l 6,10,11
 431.40625 641.549804688 431.40625 641.549804688 387.958007812 642.217773438 c 132,-1,12
 344.509765625 642.88671875 344.509765625 642.88671875 327.538085938 642.971679688 c 132,-1,13
 310.56640625 643.057617188 310.56640625 643.057617188 278.514648438 641.82421875 c 4,14,15
 214.900390625 637.811523438 214.900390625 637.811523438 173.259765625 609.791015625 c 4,16,17
 132.389648438 582.294921875 132.389648438 582.294921875 117.721679688 491.95703125 c 4,18,19
 109.297851562 440.075195312 109.297851562 440.075195312 109.140625 331.235351562 c 4,20,-1
 109.140625 331.223632812 l 6,21,22
 108.974609375 240.369140625 108.974609375 240.369140625 121.182617188 180.768554688 c 4,23,24
 137.229492188 102.44140625 137.229492188 102.44140625 171.000976562 84.4384765625 c 4,25,26
 183.818359375 77.607421875 183.818359375 77.607421875 196.637695312 72.875 c 132,-1,27
 209.458007812 68.1416015625 209.458007812 68.1416015625 227.69140625 65.267578125 c 132,-1,28
 245.92578125 62.3935546875 245.92578125 62.3935546875 258.830078125 60.8095703125 c 132,-1,29
 271.735351562 59.2265625 271.735351562 59.2265625 299.326171875 58.7880859375 c 132,-1,30
 326.91796875 58.3505859375 326.91796875 58.3505859375 342.874023438 58.3896484375 c 132,-1,31
 358.831054688 58.427734375 358.831054688 58.427734375 398.747070312 58.8994140625 c 132,-1,32
 438.663085938 59.37109375 438.663085938 59.37109375 461.612304688 59.51171875 c 4,33,34
 461.936523438 59.517578125 461.936523438 59.517578125 462.201171875 59.517578125 c 4,35,36
 474.5234375 59.517578125 474.5234375 59.517578125 483.243164062 50.7978515625 c 132,-1,37
 491.962890625 42.0771484375 491.962890625 42.0771484375 491.962890625 29.755859375 c 132,-1,38
 491.962890625 17.4345703125 491.962890625 17.4345703125 483.243164062 8.7138671875 c 132,-1,39
 474.5234375 -0.0068359375 474.5234375 -0.0068359375 462.201171875 -0.0068359375 c 4,40,41
 437.54296875 -0.1552734375 437.54296875 -0.1552734375 389.827148438 -0.87109375 c 132,-1,42
 342.112304688 -1.5869140625 342.112304688 -1.5869140625 324.232421875 -1.537109375 c 132,-1,43
 306.352539062 -1.48828125 306.352539062 -1.48828125 273.627929688 -0.1484375 c 132,-1,44
 240.90234375 1.1904296875 240.90234375 1.1904296875 223.709960938 4.7060546875 c 132,-1,45
 206.518554688 8.2216796875 206.518554688 8.2216796875 184.430664062 14.9140625 c 132,-1,46
 162.342773438 21.6064453125 162.342773438 21.6064453125 143.000976562 31.9150390625 c 4,47,48
 84.53515625 63.080078125 84.53515625 63.080078125 62.87109375 168.826171875 c 4,49,50
 49.4404296875 234.383789062 49.4404296875 234.383789062 49.6171875 331.326171875 c 4,51,-1
 49.6171875 331.336914062 l 6,52,53
 49.783203125 444.947265625 49.783203125 444.947265625 58.966796875 501.50390625 c 4,54,55
 77.7646484375 617.283203125 77.7646484375 617.283203125 140.025390625 659.181640625 c 4,56,57
 195.057617188 696.2109375 195.057617188 696.2109375 274.76953125 701.237304688 c 4,58,59
 292.001953125 702.32421875 292.001953125 702.32421875 313.794921875 702.528320312 c 4,60,61
 321.01953125 702.595703125 321.01953125 702.595703125 329.455078125 702.57421875 c 4,0,1
EndSplineSet
EndChar

StartChar: D
Encoding: 68 68 59
Width: 559
VWidth: 0
Flags: W
LayerCount: 2
Fore
SplineSet
164.090820312 702.387695312 m 0,0,1
 217.297851562 702.325195312 217.297851562 702.325195312 253.272460938 700.090820312 c 0,2,3
 360.450195312 693.435546875 360.450195312 693.435546875 411.094726562 660.776367188 c 0,4,5
 411.340820312 660.619140625 411.340820312 660.619140625 411.609375 660.4375 c 0,6,7
 472.49609375 619.365234375 472.49609375 619.365234375 490.879882812 501.038085938 c 0,8,9
 499.802734375 443.611328125 499.802734375 443.611328125 499.966796875 330.104492188 c 0,10,11
 500.122070312 245.182617188 500.122070312 245.182617188 481.428710938 165.580078125 c 0,12,13
 469.405273438 114.376953125 469.405273438 114.376953125 453.061523438 81.294921875 c 128,-1,14
 436.716796875 48.212890625 436.716796875 48.212890625 405.908203125 31.6474609375 c 0,15,16
 363.571289062 8.8828125 363.571289062 8.8828125 307.68359375 3.7255859375 c 128,-1,17
 251.795898438 -1.431640625 251.795898438 -1.431640625 123.637695312 -1.33984375 c 0,18,19
 95.0244140625 -1.318359375 95.0244140625 -1.318359375 79.685546875 -1.3369140625 c 0,20,21
 67.376953125 -1.3369140625 67.376953125 -1.3369140625 58.6884765625 7.349609375 c 128,-1,22
 50.0009765625 16.037109375 50.0009765625 16.037109375 50 28.3115234375 c 2,23,-1
 50 672.65625 l 2,24,25
 50.001953125 684.930664062 50.001953125 684.930664062 58.689453125 693.6171875 c 128,-1,26
 67.376953125 702.303710938 67.376953125 702.303710938 79.6513671875 702.303710938 c 0,27,28
 87.380859375 702.134765625 87.380859375 702.134765625 120.762695312 702.266601562 c 128,-1,29
 154.14453125 702.399414062 154.14453125 702.399414062 164.090820312 702.387695312 c 0,0,1
164.146484375 643.05078125 m 0,30,31
 144.8046875 643.072265625 144.8046875 643.072265625 109.303710938 643.020507812 c 1,32,-1
 109.303710938 58.109375 l 1,33,34
 236.134765625 58.390625 236.134765625 58.390625 291.700195312 62.9091796875 c 128,-1,35
 347.266601562 67.4267578125 347.266601562 67.4267578125 377.836914062 83.865234375 c 0,36,37
 387.563476562 89.0947265625 387.563476562 89.0947265625 401.497070312 116.4765625 c 128,-1,38
 415.431640625 143.857421875 415.431640625 143.857421875 423.712890625 179.123046875 c 0,39,40
 440.826171875 251.997070312 440.826171875 251.997070312 440.6796875 329.989257812 c 0,41,-1
 440.6796875 330.001953125 l 2,42,43
 440.5234375 438.977539062 440.5234375 438.977539062 432.296875 491.924804688 c 0,44,45
 417.948242188 584.274414062 417.948242188 584.274414062 378.724609375 611.080078125 c 0,46,47
 340.990234375 635.235351562 340.990234375 635.235351562 249.61328125 640.909179688 c 0,48,49
 216.149414062 642.987304688 216.149414062 642.987304688 164.146484375 643.05078125 c 0,30,31
EndSplineSet
EndChar

StartChar: E
Encoding: 69 69 60
Width: 559
VWidth: 0
Flags: W
LayerCount: 2
Fore
SplineSet
187.524414062 700.34765625 m 2,0,-1
 469.302734375 700.34765625 l 2,1,2
 481.946289062 700.350585938 481.946289062 700.350585938 490.598632812 691.698242188 c 128,-1,3
 499.25 683.045898438 499.25 683.045898438 499.25 670.821289062 c 128,-1,4
 499.25 658.595703125 499.25 658.595703125 490.598632812 649.943359375 c 128,-1,5
 481.946289062 641.291015625 481.946289062 641.291015625 469.720703125 641.291015625 c 0,6,-1
 187.524414062 641.293945312 l 2,7,8
 158.610351562 641.293945312 158.610351562 641.293945312 144.584960938 629.561523438 c 0,9,10
 130.174804688 617.504882812 130.174804688 617.504882812 122.217773438 586.34375 c 0,11,12
 111.057617188 542.627929688 111.057617188 542.627929688 109.53515625 421.065429688 c 1,13,-1
 434.616210938 421.065429688 l 2,14,15
 447.259765625 421.069335938 447.259765625 421.069335938 455.912109375 412.416992188 c 128,-1,16
 464.563476562 403.764648438 464.563476562 403.764648438 464.563476562 391.5390625 c 128,-1,17
 464.563476562 379.313476562 464.563476562 379.313476562 455.912109375 370.661132812 c 128,-1,18
 447.259765625 362.008789062 447.259765625 362.008789062 435.034179688 362.008789062 c 0,19,-1
 109.143554688 362.01171875 l 2,20,21
 109.142578125 361.530273438 109.142578125 361.530273438 109.114257812 353.166992188 c 128,-1,22
 109.084960938 344.803710938 109.084960938 344.803710938 109.078125 340.319335938 c 0,23,24
 108.799804688 151.329101562 108.799804688 151.329101562 122.485351562 104.380859375 c 0,25,26
 130.228515625 77.826171875 130.228515625 77.826171875 144.3046875 67.9228515625 c 0,27,28
 159.104492188 57.51171875 159.104492188 57.51171875 190.677734375 57.51171875 c 2,29,-1
 469.302734375 57.51171875 l 2,30,31
 481.9453125 57.5146484375 481.9453125 57.5146484375 490.59765625 48.8623046875 c 128,-1,32
 499.25 40.2099609375 499.25 40.2099609375 499.25 27.984375 c 128,-1,33
 499.25 15.7587890625 499.25 15.7587890625 490.59765625 7.1064453125 c 128,-1,34
 481.9453125 -1.5458984375 481.9453125 -1.5458984375 469.719726562 -1.5458984375 c 0,35,-1
 190.677734375 -1.54296875 l 2,36,37
 140.413085938 -1.54296875 140.413085938 -1.54296875 110.325195312 19.623046875 c 0,38,39
 79.326171875 41.4326171875 79.326171875 41.4326171875 65.79296875 87.8525390625 c 0,40,41
 57.9697265625 114.688476562 57.9697265625 114.688476562 54.3583984375 156.659179688 c 128,-1,42
 50.74609375 198.62890625 50.74609375 198.62890625 50.3291015625 231.0390625 c 128,-1,43
 49.9111328125 263.44921875 49.9111328125 263.44921875 50.0234375 340.40625 c 0,44,45
 50.1396484375 420.188476562 50.1396484375 420.188476562 50.5390625 451.651367188 c 128,-1,46
 50.9384765625 483.115234375 50.9384765625 483.115234375 54.3427734375 527.828125 c 128,-1,47
 57.7470703125 572.541015625 57.7470703125 572.541015625 65.0009765625 600.953125 c 0,48,49
 77.6708984375 650.575195312 77.6708984375 650.575195312 106.692382812 674.85546875 c 0,50,51
 137.1640625 700.34765625 137.1640625 700.34765625 187.524414062 700.34765625 c 2,0,-1
EndSplineSet
EndChar

StartChar: F
Encoding: 70 70 61
Width: 485
VWidth: 0
Flags: W
LayerCount: 2
Fore
SplineSet
175.133789062 700.397460938 m 2,0,-1
 435.135742188 700.397460938 l 2,1,2
 447.744140625 700.400390625 447.744140625 700.400390625 456.372070312 691.772460938 c 128,-1,3
 465 683.14453125 465 683.14453125 465 670.953125 c 128,-1,4
 465 658.76171875 465 658.76171875 456.372070312 650.1328125 c 128,-1,5
 447.744140625 641.504882812 447.744140625 641.504882812 435.552734375 641.504882812 c 0,6,-1
 175.133789062 641.5078125 l 2,7,8
 136.362304688 641.5078125 136.362304688 641.5078125 123.139648438 628.1640625 c 0,9,10
 108.45703125 613.346679688 108.45703125 613.346679688 108.45703125 568.49609375 c 2,11,-1
 108.45703125 419.305664062 l 1,12,-1
 370.671875 419.305664062 l 2,13,14
 383.280273438 419.30859375 383.280273438 419.30859375 391.908203125 410.680664062 c 128,-1,15
 400.536132812 402.052734375 400.536132812 402.052734375 400.536132812 389.861328125 c 128,-1,16
 400.536132812 377.669921875 400.536132812 377.669921875 391.908203125 369.041992188 c 128,-1,17
 383.280273438 360.4140625 383.280273438 360.4140625 371.088867188 360.4140625 c 0,18,-1
 108.45703125 360.416992188 l 1,19,-1
 108.45703125 27.97265625 l 2,20,21
 108.459960938 15.365234375 108.459960938 15.365234375 99.8310546875 6.7373046875 c 128,-1,22
 91.203125 -1.890625 91.203125 -1.890625 79.01171875 -1.890625 c 128,-1,23
 66.8203125 -1.890625 66.8203125 -1.890625 58.1923828125 6.7373046875 c 128,-1,24
 49.564453125 15.365234375 49.564453125 15.365234375 49.564453125 27.556640625 c 0,25,-1
 49.5673828125 568.49609375 l 2,26,27
 49.5673828125 637.581054688 49.5673828125 637.581054688 81.310546875 669.616210938 c 0,28,29
 111.811523438 700.397460938 111.811523438 700.397460938 175.133789062 700.397460938 c 2,0,-1
EndSplineSet
EndChar

StartChar: G
Encoding: 71 71 62
Width: 567
VWidth: 0
Flags: W
LayerCount: 2
Fore
SplineSet
476.651367188 703.5546875 m 0,0,1
 489.259765625 703.557617188 489.259765625 703.557617188 497.887695312 694.9296875 c 128,-1,2
 506.515625 686.301757812 506.515625 686.301757812 506.515625 674.110351562 c 128,-1,3
 506.515625 661.918945312 506.515625 661.918945312 497.887695312 653.291015625 c 128,-1,4
 489.259765625 644.663085938 489.259765625 644.663085938 477.068359375 644.663085938 c 0,5,6
 327.431640625 644.666015625 327.431640625 644.666015625 251.827148438 630.001953125 c 0,7,8
 179.766601562 616.026367188 179.766601562 616.026367188 149.73046875 584.4296875 c 0,9,10
 122.745117188 556.0390625 122.745117188 556.0390625 114.572265625 494.763671875 c 0,11,12
 108.888671875 452.14453125 108.888671875 452.14453125 108.888671875 327.8515625 c 0,13,14
 108.888671875 208.448242188 108.888671875 208.448242188 115.1015625 168.291992188 c 0,15,16
 123.126953125 116.428710938 123.126953125 116.428710938 148.765625 95.296875 c 128,-1,17
 174.5546875 74.0419921875 174.5546875 74.0419921875 244.489257812 64.6005859375 c 128,-1,18
 314.423828125 55.1591796875 314.423828125 55.1591796875 448.426757812 54.4208984375 c 1,19,-1
 448.426757812 243.368164062 l 1,20,-1
 448.423828125 243.78515625 l 2,21,22
 448.423828125 255.794921875 448.423828125 255.794921875 456.921875 264.421875 c 128,-1,23
 465.420898438 273.048828125 465.420898438 273.048828125 477.428710938 273.229492188 c 0,24,25
 490.0625 273.232421875 490.0625 273.232421875 498.690429688 264.604492188 c 128,-1,26
 507.318359375 255.9765625 507.318359375 255.9765625 507.318359375 243.78515625 c 2,27,-1
 507.315429688 243.368164062 l 1,28,-1
 507.315429688 25.802734375 l 1,29,-1
 507.318359375 25.4306640625 l 2,30,31
 507.318359375 9.1318359375 507.318359375 9.1318359375 493.506835938 0.4775390625 c 0,32,33
 493.2578125 0.314453125 493.2578125 0.314453125 492.981445312 0.1435546875 c 128,-1,34
 492.549804688 -0.123046875 492.549804688 -0.123046875 492.11328125 -0.37109375 c 0,35,36
 485.1328125 -4.5478515625 485.1328125 -4.5478515625 476.995117188 -4.5478515625 c 0,37,38
 306.663085938 -4.62109375 306.663085938 -4.62109375 230.97265625 4.49609375 c 128,-1,39
 155.282226562 13.61328125 155.282226562 13.61328125 111.310546875 49.8544921875 c 0,40,41
 68.3603515625 85.2548828125 68.3603515625 85.2548828125 56.9052734375 159.288085938 c 0,42,43
 50 203.916015625 50 203.916015625 50 327.8515625 c 0,44,45
 50 456.059570312 50 456.059570312 56.2001953125 502.547851562 c 0,46,47
 66.8984375 582.763671875 66.8984375 582.763671875 107.046875 625 c 0,48,49
 150.060546875 670.252929688 150.060546875 670.252929688 240.614257812 687.814453125 c 0,50,51
 321.765625 703.5546875 321.765625 703.5546875 476.651367188 703.5546875 c 0,0,1
EndSplineSet
EndChar

StartChar: H
Encoding: 72 72 63
Width: 547
VWidth: 0
Flags: W
LayerCount: 2
Fore
SplineSet
79.0517578125 702.44921875 m 4,0,-1
 79.53125 702.453125 l 6,1,2
 91.75390625 702.453125 91.75390625 702.453125 100.404296875 693.802734375 c 132,-1,3
 109.0546875 685.15234375 109.0546875 685.15234375 109.0546875 672.9296875 c 4,4,-1
 109.271484375 420.02734375 l 5,5,-1
 428.116210938 419.829101562 l 5,6,-1
 428.45703125 672.518554688 l 6,7,8
 428.454101562 684.951171875 428.454101562 684.951171875 436.985351562 693.600585938 c 132,-1,9
 445.516601562 702.25 445.516601562 702.25 457.571289062 702.416015625 c 6,10,-1
 457.977539062 702.418945312 l 6,11,12
 470.200195312 702.418945312 470.200195312 702.418945312 478.850585938 693.768554688 c 132,-1,13
 487.500976562 685.118164062 487.500976562 685.118164062 487.500976562 672.895507812 c 6,14,-1
 487.498046875 672.438476562 l 5,15,-1
 486.627929688 28.2607421875 l 6,16,17
 486.629882812 15.6748046875 486.629882812 15.6748046875 477.979492188 7.0244140625 c 132,-1,18
 469.329101562 -1.6259765625 469.329101562 -1.6259765625 457.106445312 -1.6259765625 c 132,-1,19
 444.883789062 -1.6259765625 444.883789062 -1.6259765625 436.233398438 7.0244140625 c 132,-1,20
 427.583007812 15.6748046875 427.583007812 15.6748046875 427.583007812 27.8974609375 c 4,21,-1
 428.03515625 360.796875 l 5,22,-1
 109.313476562 360.994140625 l 5,23,-1
 109.6015625 28.1943359375 l 6,24,25
 109.60546875 15.541015625 109.60546875 15.541015625 100.955078125 6.890625 c 132,-1,26
 92.3046875 -1.759765625 92.3046875 -1.759765625 80.08203125 -1.759765625 c 132,-1,27
 67.859375 -1.759765625 67.859375 -1.759765625 59.208984375 6.890625 c 132,-1,28
 50.55859375 15.541015625 50.55859375 15.541015625 50.55859375 27.763671875 c 4,29,-1
 50.0029296875 672.486328125 l 5,30,-1
 50 672.9296875 l 6,31,32
 50 684.958984375 50 684.958984375 58.5126953125 693.608398438 c 132,-1,33
 67.0244140625 702.256835938 67.0244140625 702.256835938 79.0517578125 702.44921875 c 4,0,-1
EndSplineSet
Validated: 1
EndChar

StartChar: I
Encoding: 73 73 64
Width: 168
VWidth: 0
Flags: W
LayerCount: 2
Fore
SplineSet
78.5234375 702.643554688 m 6,0,-1
 78.994140625 702.647460938 l 6,1,2
 91.1845703125 702.647460938 91.1845703125 702.647460938 99.8115234375 694.01953125 c 132,-1,3
 108.439453125 685.391601562 108.439453125 685.391601562 108.439453125 673.201171875 c 4,4,-1
 108.9921875 28.5458984375 l 5,5,-1
 108.99609375 28.07421875 l 6,6,7
 108.99609375 15.8837890625 108.99609375 15.8837890625 100.368164062 7.255859375 c 132,-1,8
 91.7412109375 -1.37109375 91.7412109375 -1.37109375 79.55078125 -1.37109375 c 132,-1,9
 67.3603515625 -1.37109375 67.3603515625 -1.37109375 58.732421875 7.2568359375 c 132,-1,10
 50.1044921875 15.8837890625 50.1044921875 15.8837890625 50.1044921875 28.07421875 c 4,11,-1
 49.5498046875 672.760742188 l 6,12,13
 49.546875 685.19921875 49.546875 685.19921875 58.037109375 693.826171875 c 132,-1,14
 66.52734375 702.452148438 66.52734375 702.452148438 78.5234375 702.643554688 c 6,0,-1
EndSplineSet
Validated: 1
EndChar

StartChar: J
Encoding: 74 74 65
Width: 428
VWidth: 0
Flags: W
LayerCount: 2
Fore
SplineSet
339.0234375 701.755859375 m 0,0,1
 351.658203125 701.758789062 351.658203125 701.758789062 360.286132812 693.130859375 c 128,-1,2
 368.9140625 684.502929688 368.9140625 684.502929688 368.9140625 672.311523438 c 0,3,-1
 368.911132812 206.05078125 l 2,4,5
 368.911132812 134.026367188 368.911132812 134.026367188 355.688476562 94.041015625 c 0,6,7
 340.073242188 46.8193359375 340.073242188 46.8193359375 301.361328125 24.27734375 c 0,8,9
 278.662109375 11.060546875 278.662109375 11.060546875 245.413085938 4.751953125 c 128,-1,10
 212.1640625 -1.5556640625 212.1640625 -1.5556640625 184.83984375 -2.5009765625 c 128,-1,11
 157.515625 -3.4462890625 157.515625 -3.4462890625 99.6865234375 -3.3623046875 c 0,12,13
 86.62109375 -3.34375 86.62109375 -3.34375 79.86328125 -3.34375 c 0,14,15
 67.255859375 -3.3466796875 67.255859375 -3.3466796875 58.6279296875 5.28125 c 128,-1,16
 50 13.9091796875 50 13.9091796875 50 26.1005859375 c 128,-1,17
 50 38.2919921875 50 38.2919921875 58.6279296875 46.919921875 c 128,-1,18
 67.255859375 55.5478515625 67.255859375 55.5478515625 79.447265625 55.5478515625 c 0,19,20
 238.029296875 55.544921875 238.029296875 55.544921875 271.727539062 75.1669921875 c 0,21,22
 291.165039062 86.4853515625 291.165039062 86.4853515625 299.779296875 112.530273438 c 0,23,24
 310.022460938 143.508789062 310.022460938 143.508789062 310.022460938 206.05078125 c 2,25,-1
 310.022460938 671.89453125 l 2,26,27
 310.01953125 684.321289062 310.01953125 684.321289062 318.517578125 692.948242188 c 128,-1,28
 327.015625 701.575195312 327.015625 701.575195312 339.0234375 701.755859375 c 0,0,1
EndSplineSet
EndChar

StartChar: P
Encoding: 80 80 66
Width: 408
VWidth: 0
Flags: W
LayerCount: 2
Fore
SplineSet
155.080078125 703.22265625 m 4,0,1
 210.7109375 703.186523438 210.7109375 703.186523438 242.7265625 698.671875 c 132,-1,2
 274.741210938 694.15625 274.741210938 694.15625 300.862304688 679.474609375 c 4,3,4
 324.793945312 666.022460938 324.793945312 666.022460938 336.147460938 642.473632812 c 132,-1,5
 347.501953125 618.924804688 347.501953125 618.924804688 355.896484375 581.798828125 c 4,6,7
 368.16015625 527.571289062 368.16015625 527.571289062 367.998046875 468.087890625 c 4,8,9
 367.887695312 390.099609375 367.887695312 390.099609375 361.86328125 350.296875 c 4,10,11
 349.069335938 265.772460938 349.069335938 265.772460938 305.30078125 235.462890625 c 4,12,13
 267.162109375 209.052734375 267.162109375 209.052734375 213.165039062 204.81640625 c 4,14,15
 195.255859375 203.412109375 195.255859375 203.412109375 109.358398438 203.970703125 c 5,16,-1
 109.358398438 28.181640625 l 6,17,18
 109.361328125 19.7744140625 109.361328125 19.7744140625 105.416015625 12.9853515625 c 132,-1,19
 101.469726562 6.1953125 101.469726562 6.1953125 94.6796875 2.2490234375 c 132,-1,20
 87.8896484375 -1.6962890625 87.8896484375 -1.6962890625 79.8876953125 -1.6962890625 c 4,21,22
 67.6865234375 -1.6962890625 67.6865234375 -1.6962890625 59.05078125 6.939453125 c 132,-1,23
 50.4150390625 15.5751953125 50.4150390625 15.5751953125 50.4150390625 27.7763671875 c 4,24,-1
 50.41796875 666.79296875 l 6,25,26
 49.6484375 670.091796875 49.6484375 670.091796875 49.6484375 673.482421875 c 4,27,28
 49.6484375 685.685546875 49.6484375 685.685546875 58.28515625 694.321289062 c 132,-1,29
 66.9208984375 702.958007812 66.9208984375 702.958007812 79.1240234375 702.958007812 c 4,30,31
 94.134765625 702.956054688 94.134765625 702.956054688 119.255859375 703.092773438 c 132,-1,32
 144.375976562 703.229492188 144.375976562 703.229492188 155.080078125 703.22265625 c 4,0,1
109.379882812 643.982421875 m 5,33,-1
 109.380859375 262.930664062 l 5,34,35
 194.692382812 262.495117188 194.692382812 262.495117188 208.578125 263.583984375 c 4,36,37
 246.708984375 266.575195312 246.708984375 266.575195312 271.763671875 283.92578125 c 4,38,39
 294.616210938 299.750976562 294.616210938 299.750976562 303.603515625 359.12109375 c 4,40,41
 308.969726562 394.576171875 308.969726562 394.576171875 309.07421875 468.208007812 c 4,42,-1
 309.07421875 468.244140625 l 6,43,44
 309.216796875 521.0625 309.216796875 521.0625 298.422851562 568.797851562 c 4,45,46
 295.00390625 583.920898438 295.00390625 583.920898438 289.095703125 598.09375 c 132,-1,47
 283.188476562 612.266601562 283.188476562 612.266601562 278.622070312 619.6015625 c 132,-1,48
 274.0546875 626.936523438 274.0546875 626.936523438 272.001953125 628.08984375 c 4,49,50
 254.051757812 638.180664062 254.051757812 638.180664062 220.131835938 641.0234375 c 132,-1,51
 186.2109375 643.866210938 186.2109375 643.866210938 109.379882812 643.982421875 c 5,33,-1
EndSplineSet
EndChar

StartChar: Q
Encoding: 81 81 67
Width: 584
VWidth: 0
Flags: W
LayerCount: 2
Fore
SplineSet
287.111328125 705.33203125 m 5,0,-1
 287.110351562 705.34375 l 5,1,2
 348.880859375 705.34375 348.880859375 705.34375 387.587890625 692.255859375 c 4,3,4
 404.700195312 686.470703125 404.700195312 686.470703125 432.895507812 669.159179688 c 4,5,6
 466.379882812 648.599609375 466.379882812 648.599609375 483.462890625 609.994140625 c 132,-1,7
 500.545898438 571.387695312 500.545898438 571.387695312 510.689453125 515.225585938 c 4,8,9
 524.072265625 441.119140625 524.072265625 441.119140625 524.22265625 339.615234375 c 4,10,11
 524.450195312 254.790039062 524.450195312 254.790039062 505.506835938 174.544921875 c 4,12,13
 493.678710938 124.435546875 493.678710938 124.435546875 477.688476562 91.2958984375 c 132,-1,14
 461.697265625 58.15625 461.697265625 58.15625 432.60546875 40.1884765625 c 4,15,16
 431.559570312 39.54296875 431.559570312 39.54296875 425.208984375 35.5400390625 c 132,-1,17
 418.857421875 31.5380859375 418.857421875 31.5380859375 416.424804688 30.138671875 c 132,-1,18
 413.9921875 28.740234375 413.9921875 28.740234375 407.291015625 24.908203125 c 132,-1,19
 400.58984375 21.0751953125 400.58984375 21.0751953125 396.19140625 19.2470703125 c 132,-1,20
 391.79296875 17.4189453125 391.79296875 17.4189453125 384.338867188 14.181640625 c 132,-1,21
 376.885742188 10.9443359375 376.885742188 10.9443359375 370.118164062 9.1123046875 c 132,-1,22
 363.3515625 7.2802734375 363.3515625 7.2802734375 354.743164062 5.0625 c 132,-1,23
 346.134765625 2.8447265625 346.134765625 2.8447265625 336.596679688 1.43359375 c 132,-1,24
 327.059570312 0.0224609375 327.059570312 0.0224609375 316.716796875 -0.8515625 c 5,25,-1
 316.862304688 -39.255859375 l 5,26,-1
 316.866210938 -39.755859375 l 6,27,28
 316.866210938 -51.958984375 316.866210938 -51.958984375 308.229492188 -60.5947265625 c 132,-1,29
 299.59375 -69.2314453125 299.59375 -69.2314453125 287.390625 -69.2314453125 c 132,-1,30
 275.1875 -69.2314453125 275.1875 -69.2314453125 266.551757812 -60.5947265625 c 132,-1,31
 257.915039062 -51.958984375 257.915039062 -51.958984375 257.915039062 -39.755859375 c 6,32,-1
 257.916992188 -39.4765625 l 5,33,-1
 257.771484375 -0.875 l 5,34,35
 228.53515625 1.5693359375 228.53515625 1.5693359375 202.171875 10.509765625 c 132,-1,36
 175.807617188 19.44921875 175.807617188 19.44921875 169.028320312 23.447265625 c 132,-1,37
 162.249023438 27.4462890625 162.249023438 27.4462890625 141.615234375 40.1884765625 c 4,38,39
 112.5234375 58.15625 112.5234375 58.15625 96.5478515625 91.2890625 c 132,-1,40
 80.572265625 124.421875 80.572265625 124.421875 68.7509765625 174.543945312 c 4,41,42
 49.8583984375 254.651367188 49.8583984375 254.651367188 50.0009765625 339.599609375 c 4,43,-1
 50.0009765625 339.63671875 l 6,44,45
 50.30078125 441.56640625 50.30078125 441.56640625 63.58203125 515.21484375 c 4,46,47
 73.712890625 571.389648438 73.712890625 571.389648438 90.7783203125 609.990234375 c 132,-1,48
 107.84375 648.590820312 107.84375 648.590820312 141.330078125 669.147460938 c 4,49,50
 169.520507812 686.458007812 169.520507812 686.458007812 186.635742188 692.244140625 c 4,51,52
 225.342773438 705.33203125 225.342773438 705.33203125 287.111328125 705.33203125 c 5,0,-1
287.088867188 645.772460938 m 132,-1,54
 235.123046875 645.776367188 235.123046875 645.776367188 205.69140625 635.82421875 c 4,55,56
 194.947265625 632.190429688 194.947265625 632.190429688 172.470703125 618.393554688 c 4,57,58
 157.954101562 609.478515625 157.954101562 609.478515625 143.830078125 577.932617188 c 132,-1,59
 129.706054688 546.38671875 129.706054688 546.38671875 122.177734375 504.637695312 c 4,60,61
 109.826171875 436.14453125 109.826171875 436.14453125 109.541015625 339.493164062 c 4,62,63
 109.411132812 261.532226562 109.411132812 261.532226562 126.702148438 188.2109375 c 4,64,65
 135.057617188 152.783203125 135.057617188 152.783203125 148.850585938 124.986328125 c 132,-1,66
 162.642578125 97.189453125 162.642578125 97.189453125 172.893554688 90.8564453125 c 4,67,68
 176.8125 88.4365234375 176.8125 88.4365234375 186.5234375 81.9921875 c 132,-1,69
 196.234375 75.546875 196.234375 75.546875 200.60546875 73.26171875 c 132,-1,70
 204.977539062 70.9765625 204.977539062 70.9765625 213.9921875 67.1005859375 c 132,-1,71
 223.006835938 63.2236328125 223.006835938 63.2236328125 233.349609375 61.3603515625 c 132,-1,72
 243.692382812 59.4970703125 243.692382812 59.4970703125 257.528320312 58.4755859375 c 5,73,-1
 257.341796875 107.950195312 l 6,74,75
 257.337890625 120.454101562 257.337890625 120.454101562 265.810546875 129.088867188 c 132,-1,76
 274.284179688 137.723632812 274.284179688 137.723632812 286.256835938 137.950195312 c 4,77,78
 286.512695312 137.955078125 286.512695312 137.955078125 286.8125 137.955078125 c 4,79,80
 299.015625 137.955078125 299.015625 137.955078125 307.651367188 129.318359375 c 132,-1,81
 316.288085938 120.682617188 316.288085938 120.682617188 316.288085938 108.479492188 c 4,82,-1
 316.473632812 58.4619140625 l 5,83,84
 330.353515625 59.478515625 330.353515625 59.478515625 340.72265625 61.3369140625 c 132,-1,85
 351.092773438 63.1953125 351.092773438 63.1953125 360.1328125 67.0791015625 c 132,-1,86
 369.172851562 70.9619140625 369.172851562 70.9619140625 373.540039062 73.240234375 c 132,-1,87
 377.908203125 75.51953125 377.908203125 75.51953125 387.646484375 81.9814453125 c 132,-1,88
 397.384765625 88.4443359375 397.384765625 88.4443359375 401.2890625 90.85546875 c 4,89,90
 411.546875 97.19140625 411.546875 97.19140625 425.3515625 124.991210938 c 132,-1,91
 439.155273438 152.791015625 439.155273438 152.791015625 447.518554688 188.216796875 c 4,92,93
 464.856445312 261.662109375 464.856445312 261.662109375 464.643554688 339.4609375 c 4,94,-1
 464.643554688 339.5 l 6,95,96
 464.505859375 435.71484375 464.505859375 435.71484375 452.05859375 504.633789062 c 4,97,98
 444.51953125 546.373046875 444.51953125 546.373046875 430.37890625 577.922851562 c 132,-1,99
 416.23828125 609.473632812 416.23828125 609.473632812 401.715820312 618.389648438 c 4,100,101
 379.249023438 632.18359375 379.249023438 632.18359375 368.493164062 635.8203125 c 4,102,53
 339.05859375 645.772460938 339.05859375 645.772460938 287.088867188 645.772460938 c 132,-1,54
EndSplineSet
Validated: 33
EndChar

StartChar: R
Encoding: 82 82 68
Width: 548
VWidth: 0
Flags: W
LayerCount: 2
Fore
SplineSet
347.556640625 700.631835938 m 1,0,-1
 347.650390625 700.631835938 l 2,1,2
 415.911132812 700.631835938 415.911132812 700.631835938 452.693359375 658.643554688 c 0,3,4
 488.984375 617.215820312 488.984375 617.215820312 488.984375 538.8515625 c 0,5,6
 488.984375 458.151367188 488.984375 458.151367188 457.794921875 412.736328125 c 0,7,8
 448.453125 399.133789062 448.453125 399.133789062 434.538085938 387.927734375 c 1,9,10
 438.328125 384.853515625 438.328125 384.853515625 441.40234375 381.91015625 c 0,11,12
 488.984375 336.337890625 488.984375 336.337890625 488.984375 217.24609375 c 2,13,-1
 488.984375 26.55859375 l 1,14,-1
 488.987304688 26.1416015625 l 2,15,16
 488.987304688 13.9501953125 488.987304688 13.9501953125 480.359375 5.322265625 c 128,-1,17
 471.731445312 -3.3056640625 471.731445312 -3.3056640625 459.540039062 -3.3056640625 c 128,-1,18
 447.348632812 -3.3056640625 447.348632812 -3.3056640625 438.720703125 5.322265625 c 128,-1,19
 430.092773438 13.9501953125 430.092773438 13.9501953125 430.092773438 26.1416015625 c 2,20,-1
 430.095703125 26.55859375 l 1,21,-1
 430.095703125 217.24609375 l 2,22,23
 430.095703125 311.198242188 430.095703125 311.198242188 400.670898438 339.37890625 c 0,24,25
 382.474609375 356.806640625 382.474609375 356.806640625 327.426757812 358.504882812 c 0,26,27
 324.9453125 358.546875 324.9453125 358.546875 322.501953125 359.005859375 c 2,28,-1
 109.310546875 359.39453125 l 1,29,-1
 109.759765625 26.599609375 l 1,30,-1
 109.762695312 26.14453125 l 2,31,32
 109.762695312 13.953125 109.762695312 13.953125 101.134765625 5.3251953125 c 128,-1,33
 92.5068359375 -3.302734375 92.5068359375 -3.302734375 80.3154296875 -3.302734375 c 128,-1,34
 68.1240234375 -3.302734375 68.1240234375 -3.302734375 59.49609375 5.3251953125 c 128,-1,35
 50.8681640625 13.953125 50.8681640625 13.953125 50.8681640625 26.14453125 c 2,36,-1
 50.8701171875 26.51953125 l 1,37,-1
 50 670.2890625 l 2,38,39
 50 682.475585938 50 682.475585938 58.599609375 691.103515625 c 128,-1,40
 67.19921875 699.731445312 67.19921875 699.731445312 79.349609375 699.772460938 c 2,41,-1
 347.556640625 700.631835938 l 1,0,-1
347.650390625 641.7421875 m 2,42,-1
 108.928710938 640.978515625 l 1,43,-1
 109.23046875 418.283203125 l 1,44,-1
 347.65234375 417.849609375 l 2,45,46
 389.8671875 417.849609375 389.8671875 417.849609375 409.251953125 446.07421875 c 0,47,48
 430.095703125 476.424804688 430.095703125 476.424804688 430.095703125 538.8515625 c 0,49,50
 430.095703125 595.068359375 430.095703125 595.068359375 408.396484375 619.83984375 c 0,51,52
 389.211914062 641.741210938 389.211914062 641.741210938 347.650390625 641.7421875 c 2,42,-1
EndSplineSet
EndChar

StartChar: S
Encoding: 83 83 69
Width: 529
VWidth: 0
Flags: W
LayerCount: 2
Fore
SplineSet
300.696289062 701.310546875 m 2,0,-1
 300.731445312 701.310546875 l 1,1,-1
 439.739257812 701.24609375 l 2,2,3
 452.333007812 701.248046875 452.333007812 701.248046875 460.9609375 692.620117188 c 128,-1,4
 469.588867188 683.9921875 469.588867188 683.9921875 469.588867188 671.80078125 c 128,-1,5
 469.588867188 659.609375 469.588867188 659.609375 460.9609375 650.981445312 c 128,-1,6
 452.333007812 642.353515625 452.333007812 642.353515625 440.141601562 642.353515625 c 2,7,-1
 439.711914062 642.356445312 l 1,8,-1
 300.80078125 642.421875 l 2,9,10
 199.671875 642.2421875 199.671875 642.2421875 153.791015625 611.173828125 c 0,11,12
 108.888671875 580.768554688 108.888671875 580.768554688 108.888671875 509.845703125 c 0,13,14
 108.888671875 434.994140625 108.888671875 434.994140625 140.9921875 407.40625 c 0,15,16
 173.655273438 379.3359375 173.655273438 379.3359375 259.928710938 379.3359375 c 0,17,18
 364.62109375 379.3359375 364.62109375 379.3359375 418.567382812 326.965820312 c 0,19,20
 469.859375 277.174804688 469.859375 277.174804688 469.859375 186.423828125 c 0,21,22
 469.859375 91.8251953125 469.859375 91.8251953125 414.04296875 46.6083984375 c 0,23,24
 354.625 -1.52734375 354.625 -1.52734375 219.1171875 -1.52734375 c 0,25,-1
 80.1240234375 -1.462890625 l 1,26,-1
 79.7216796875 -1.4658203125 l 2,27,28
 67.5302734375 -1.4658203125 67.5302734375 -1.4658203125 58.90234375 7.162109375 c 128,-1,29
 50.2744140625 15.791015625 50.2744140625 15.791015625 50.2744140625 27.982421875 c 128,-1,30
 50.2744140625 40.173828125 50.2744140625 40.173828125 58.90234375 48.8017578125 c 128,-1,31
 67.5302734375 57.4296875 67.5302734375 57.4296875 79.7216796875 57.4296875 c 2,32,-1
 80.1513671875 57.42578125 l 1,33,-1
 219.129882812 57.361328125 l 2,34,35
 333.766601562 57.3623046875 333.766601562 57.3623046875 376.974609375 92.365234375 c 0,36,37
 410.969726562 119.904296875 410.969726562 119.904296875 410.969726562 186.423828125 c 0,38,39
 410.969726562 252.270507812 410.969726562 252.270507812 377.549804688 284.713867188 c 0,40,41
 340.740234375 320.447265625 340.740234375 320.447265625 259.928710938 320.447265625 c 0,42,43
 151.828125 320.447265625 151.828125 320.447265625 102.610351562 362.743164062 c 0,44,45
 50 407.954101562 50 407.954101562 50 509.845703125 c 0,46,47
 50 612.013671875 50 612.013671875 120.772460938 659.9375 c 0,48,49
 181.557617188 701.09765625 181.557617188 701.09765625 300.696289062 701.310546875 c 2,0,-1
EndSplineSet
EndChar

StartChar: T
Encoding: 84 84 70
Width: 597
VWidth: 0
Flags: W
LayerCount: 2
Fore
SplineSet
547.091796875 703.247070312 m 5,0,-1
 547.524414062 703.252929688 l 6,1,2
 559.727539062 703.252929688 559.727539062 703.252929688 568.36328125 694.616210938 c 132,-1,3
 577 685.98046875 577 685.98046875 577 673.77734375 c 132,-1,4
 577 661.57421875 577 661.57421875 568.36328125 652.938476562 c 132,-1,5
 559.727539062 644.301757812 559.727539062 644.301757812 547.524414062 644.301757812 c 4,6,-1
 342.555664062 644.060546875 l 5,7,-1
 343.091796875 27.9609375 l 6,8,9
 343.094726562 15.3291015625 343.094726562 15.3291015625 334.458007812 6.693359375 c 132,-1,10
 325.822265625 -1.943359375 325.822265625 -1.943359375 313.619140625 -1.943359375 c 132,-1,11
 301.416015625 -1.943359375 301.416015625 -1.943359375 292.780273438 6.693359375 c 132,-1,12
 284.143554688 15.3291015625 284.143554688 15.3291015625 284.143554688 27.5322265625 c 4,13,-1
 283.607421875 643.98828125 l 5,14,-1
 79.5859375 643.745117188 l 6,15,16
 66.943359375 643.7421875 66.943359375 643.7421875 58.3076171875 652.37890625 c 132,-1,17
 49.6708984375 661.014648438 49.6708984375 661.014648438 49.6708984375 673.217773438 c 132,-1,18
 49.6708984375 685.420898438 49.6708984375 685.420898438 58.3076171875 694.056640625 c 132,-1,19
 66.943359375 702.693359375 66.943359375 702.693359375 79.146484375 702.693359375 c 4,20,-1
 547.091796875 703.247070312 l 5,0,-1
EndSplineSet
EndChar

StartChar: U
Encoding: 85 85 71
Width: 555
VWidth: 0
Flags: W
LayerCount: 2
Fore
SplineSet
79.07421875 701.104492188 m 4,0,-1
 79.0849609375 701.114257812 l 5,1,-1
 79.5234375 701.1171875 l 6,2,3
 91.748046875 701.1171875 91.748046875 701.1171875 100.399414062 692.465820312 c 132,-1,4
 109.05078125 683.814453125 109.05078125 683.814453125 109.05078125 671.58984375 c 6,5,-1
 109.047851562 671.170898438 l 5,6,-1
 109.047851562 208.848632812 l 6,7,8
 109.453125 137.274414062 109.453125 137.274414062 143.926757812 100.684570312 c 4,9,10
 183.6953125 58.4794921875 183.6953125 58.4794921875 272.959960938 58.4794921875 c 4,11,12
 362.46875 58.4794921875 362.46875 58.4794921875 402.827148438 101.112304688 c 4,13,14
 437.926757812 138.189453125 437.926757812 138.189453125 436.872070312 208.236328125 c 4,15,-1
 436.872070312 671.170898438 l 5,16,-1
 436.870117188 671.533203125 l 6,17,18
 436.870117188 683.7578125 436.870117188 683.7578125 445.521484375 692.41015625 c 132,-1,19
 454.172851562 701.061523438 454.172851562 701.061523438 466.397460938 701.061523438 c 132,-1,20
 478.622070312 701.061523438 478.622070312 701.061523438 487.274414062 692.41015625 c 132,-1,21
 495.92578125 683.7578125 495.92578125 683.7578125 495.92578125 671.533203125 c 6,22,-1
 495.923828125 671.170898438 l 5,23,-1
 495.923828125 209.126953125 l 6,24,25
 497.337890625 115.04296875 497.337890625 115.04296875 445.71875 60.515625 c 4,26,27
 387.888671875 -0.572265625 387.888671875 -0.572265625 272.963867188 -0.572265625 c 132,-1,28
 158.202148438 -0.572265625 158.202148438 -0.572265625 100.952148438 60.1875 c 4,29,30
 50.5380859375 113.692382812 50.5380859375 113.692382812 50.00390625 208.509765625 c 4,31,-1
 50.00390625 671.161132812 l 5,32,-1
 50 671.580078125 l 6,33,34
 50 683.618164062 50 683.618164062 58.5185546875 692.26953125 c 132,-1,35
 67.0380859375 700.919921875 67.0380859375 700.919921875 79.07421875 701.104492188 c 4,0,-1
EndSplineSet
Validated: 33
EndChar

StartChar: V
Encoding: 86 86 72
Width: 508
VWidth: 0
Flags: W
LayerCount: 2
Fore
SplineSet
79.6611328125 701.725585938 m 4,0,1
 88.93359375 701.62109375 88.93359375 701.62109375 97.181640625 695.201171875 c 132,-1,2
 105.4296875 688.780273438 105.4296875 688.780273438 107.807617188 679.814453125 c 6,3,-1
 261.640625 131.336914062 l 5,4,-1
 430.240234375 680.502929688 l 6,5,6
 432.80859375 689.276367188 432.80859375 689.276367188 441.096679688 695.486328125 c 132,-1,7
 449.385742188 701.696289062 449.385742188 701.696289062 458.52734375 701.696289062 c 4,8,9
 470.728515625 701.696289062 470.728515625 701.696289062 479.364257812 693.060546875 c 132,-1,10
 488 684.424804688 488 684.424804688 488 672.22265625 c 4,11,12
 488 667.598632812 488 667.598632812 486.5859375 663.203125 c 6,13,-1
 288.530273438 18.103515625 l 6,14,15
 285.881835938 9.486328125 285.881835938 9.486328125 277.627929688 3.388671875 c 132,-1,16
 269.373046875 -2.708984375 269.373046875 -2.708984375 260.358398438 -2.708984375 c 4,17,18
 251.111328125 -2.708984375 251.111328125 -2.708984375 242.796875 3.591796875 c 132,-1,19
 234.483398438 9.892578125 234.483398438 9.892578125 231.983398438 18.794921875 c 6,20,-1
 51.060546875 663.895507812 l 6,21,22
 49.8505859375 667.987304688 49.8505859375 667.987304688 49.8505859375 672.25390625 c 4,23,24
 49.8505859375 684.456054688 49.8505859375 684.456054688 58.486328125 693.091796875 c 132,-1,25
 67.1220703125 701.727539062 67.1220703125 701.727539062 79.6611328125 701.725585938 c 4,0,1
EndSplineSet
EndChar

StartChar: W
Encoding: 87 87 73
Width: 919
VWidth: 0
Flags: W
LayerCount: 2
Fore
SplineSet
79.0224609375 702.043945312 m 4,0,-1
 79.0361328125 702.051757812 l 5,1,-1
 79.474609375 702.0546875 l 6,2,3
 91.6767578125 702.0546875 91.6767578125 702.0546875 100.3125 693.418945312 c 132,-1,4
 108.948242188 684.783203125 108.948242188 684.783203125 108.948242188 672.581054688 c 6,5,-1
 108.944335938 672.165039062 l 5,6,-1
 108.944335938 206.975585938 l 6,7,8
 109.33984375 135.045898438 109.33984375 135.045898438 142.842773438 98.3193359375 c 4,9,10
 181.084960938 56.3974609375 181.084960938 56.3974609375 266.96484375 56.3974609375 c 4,11,12
 353.08203125 56.3974609375 353.08203125 56.3974609375 391.909179688 98.7490234375 c 4,13,14
 426.02734375 135.963867188 426.02734375 135.963867188 424.9921875 206.381835938 c 6,15,-1
 424.9921875 206.598632812 l 5,16,-1
 424.9921875 467.875976562 l 6,17,18
 424.990234375 480.482421875 424.990234375 480.482421875 433.625976562 489.118164062 c 132,-1,19
 442.26171875 497.75390625 442.26171875 497.75390625 454.462890625 497.75390625 c 132,-1,20
 466.665039062 497.75390625 466.665039062 497.75390625 475.30078125 489.118164062 c 132,-1,21
 483.936523438 480.482421875 483.936523438 480.482421875 483.936523438 468.28125 c 4,22,-1
 483.93359375 214.46484375 l 6,23,24
 484.865234375 210.8515625 484.865234375 210.8515625 484.865234375 207.114257812 c 4,25,26
 485.2578125 135.048828125 485.2578125 135.048828125 518.760742188 98.32421875 c 4,27,28
 557.00390625 56.4013671875 557.00390625 56.4013671875 642.8828125 56.4013671875 c 4,29,30
 728.997070312 56.4013671875 728.997070312 56.4013671875 767.827148438 98.75390625 c 4,31,32
 801.942382812 135.96484375 801.942382812 135.96484375 800.908203125 206.385742188 c 6,33,-1
 800.908203125 206.602539062 l 5,34,-1
 800.908203125 672.169921875 l 5,35,-1
 800.905273438 672.586914062 l 6,36,37
 800.905273438 684.602539062 800.905273438 684.602539062 809.408203125 693.237304688 c 132,-1,38
 817.912109375 701.872070312 817.912109375 701.872070312 829.926757812 702.056640625 c 4,39,-1
 829.931640625 702.056640625 l 5,40,-1
 830.372070312 702.059570312 l 6,41,42
 842.57421875 702.059570312 842.57421875 702.059570312 851.208984375 693.423828125 c 132,-1,43
 859.844726562 684.788085938 859.844726562 684.788085938 859.844726562 672.5859375 c 6,44,-1
 859.841796875 672.169921875 l 5,45,-1
 859.841796875 207.247070312 l 6,46,47
 861.221679688 113.399414062 861.221679688 113.399414062 811.270507812 58.9140625 c 4,48,49
 754.919921875 -2.5458984375 754.919921875 -2.5458984375 642.880859375 -2.5458984375 c 132,-1,50
 530.99609375 -2.5458984375 530.99609375 -2.5458984375 475.21484375 58.5888671875 c 4,51,52
 463.962890625 70.9228515625 463.962890625 70.9228515625 455.23046875 85.591796875 c 5,53,54
 446.522460938 71.0947265625 446.522460938 71.0947265625 435.35546875 58.9140625 c 4,55,56
 379.004882812 -2.5458984375 379.004882812 -2.5458984375 266.966796875 -2.5458984375 c 132,-1,57
 155.084960938 -2.5458984375 155.084960938 -2.5458984375 99.2998046875 58.5888671875 c 4,58,59
 50.521484375 112.04296875 50.521484375 112.04296875 50.0029296875 206.64453125 c 4,60,-1
 50.0029296875 672.158203125 l 5,61,-1
 50 672.57421875 l 6,62,63
 50 684.590820312 50 684.590820312 58.50390625 693.225585938 c 132,-1,64
 67.0068359375 701.860351562 67.0068359375 701.860351562 79.0224609375 702.043945312 c 4,0,-1
EndSplineSet
Validated: 33
EndChar

StartChar: X
Encoding: 88 88 74
Width: 529
VWidth: 0
Flags: W
LayerCount: 2
Fore
SplineSet
460.014648438 702.6328125 m 4,0,1
 472.014648438 702.432617188 472.014648438 702.432617188 480.5078125 693.797851562 c 132,-1,2
 489 685.1640625 489 685.1640625 489 673.163085938 c 4,3,4
 489 664.91796875 489 664.91796875 484.717773438 657.864257812 c 6,5,-1
 303.840820312 350.309570312 l 5,6,-1
 484.717773438 42.75390625 l 6,7,8
 488.989257812 35.7109375 488.989257812 35.7109375 488.989257812 27.47265625 c 4,9,10
 488.989257812 15.2705078125 488.989257812 15.2705078125 480.353515625 6.634765625 c 132,-1,11
 471.717773438 -2.0009765625 471.717773438 -2.0009765625 459.515625 -2.0009765625 c 4,12,13
 442.39453125 -2.0009765625 442.39453125 -2.0009765625 433.913085938 12.8720703125 c 6,14,-1
 269.645507812 292.172851562 l 5,15,-1
 105.37890625 12.8720703125 l 6,16,17
 96.8974609375 -2.0009765625 96.8974609375 -2.0009765625 79.7763671875 -2.0009765625 c 4,18,19
 67.57421875 -2.0009765625 67.57421875 -2.0009765625 58.9384765625 6.634765625 c 132,-1,20
 50.302734375 15.2705078125 50.302734375 15.2705078125 50.302734375 27.47265625 c 4,21,22
 50.302734375 35.7109375 50.302734375 35.7109375 54.57421875 42.75390625 c 6,23,-1
 235.451171875 350.309570312 l 5,24,-1
 54.57421875 657.864257812 l 6,25,26
 50.2919921875 664.915039062 50.2919921875 664.915039062 50.2919921875 673.163085938 c 4,27,28
 50.2919921875 684.80859375 50.2919921875 684.80859375 58.5244140625 693.434570312 c 132,-1,29
 66.7568359375 702.060546875 66.7568359375 702.060546875 78.3896484375 702.604492188 c 4,30,31
 79.083984375 702.63671875 79.083984375 702.63671875 79.7646484375 702.63671875 c 4,32,33
 96.9033203125 702.63671875 96.9033203125 702.63671875 105.37890625 687.743164062 c 6,34,-1
 269.645507812 408.443359375 l 5,35,-1
 433.913085938 687.743164062 l 6,36,37
 442.388671875 702.63671875 442.388671875 702.63671875 460.014648438 702.6328125 c 4,0,1
EndSplineSet
EndChar

StartChar: Y
Encoding: 89 89 75
Width: 523
VWidth: 0
Flags: W
LayerCount: 2
Fore
SplineSet
80.8818359375 702.55859375 m 4,0,1
 96.96484375 702.018554688 96.96484375 702.018554688 105.204101562 688.182617188 c 6,2,-1
 276.704101562 409.260742188 l 5,3,-1
 448.204101562 688.182617188 l 6,4,5
 456.7734375 702.578125 456.7734375 702.578125 473.528320312 702.578125 c 4,6,7
 474.060546875 702.578125 474.060546875 702.578125 474.594726562 702.55859375 c 4,8,9
 486.354492188 702.131835938 486.354492188 702.131835938 494.677734375 693.501953125 c 132,-1,10
 503 684.872070312 503 684.872070312 503 673.104492188 c 4,11,12
 503 664.541015625 503 664.541015625 498.413085938 657.313476562 c 6,13,-1
 306.201171875 344.702148438 l 5,14,-1
 307.239257812 27.2021484375 l 6,15,16
 307.243164062 18.7109375 307.243164062 18.7109375 303.297851562 11.921875 c 132,-1,17
 299.3515625 5.1318359375 299.3515625 5.1318359375 292.561523438 1.185546875 c 132,-1,18
 285.771484375 -2.759765625 285.771484375 -2.759765625 277.76953125 -2.759765625 c 4,19,20
 265.567382812 -2.759765625 265.567382812 -2.759765625 256.931640625 5.8759765625 c 132,-1,21
 248.295898438 14.51171875 248.295898438 14.51171875 248.295898438 26.712890625 c 4,22,-1
 247.260742188 344.622070312 l 5,23,-1
 55.0048828125 657.310546875 l 6,24,25
 50.41796875 664.540039062 50.41796875 664.540039062 50.41796875 673.1015625 c 4,26,27
 50.41796875 685.303710938 50.41796875 685.303710938 59.0537109375 693.939453125 c 132,-1,28
 67.689453125 702.575195312 67.689453125 702.575195312 79.890625 702.575195312 c 4,29,30
 80.4169921875 702.575195312 80.4169921875 702.575195312 80.8818359375 702.55859375 c 4,0,1
EndSplineSet
EndChar

StartChar: Z
Encoding: 90 90 76
Width: 528
VWidth: 0
Flags: W
LayerCount: 2
Fore
SplineSet
458.529296875 701.818359375 m 6,0,1
 470.728515625 701.81640625 470.728515625 701.81640625 479.364257812 693.180664062 c 132,-1,2
 488 684.544921875 488 684.544921875 488 672.342773438 c 4,3,4
 488 664.321289062 488 664.321289062 483.934570312 657.40625 c 6,5,-1
 130.723632812 56.83984375 l 5,6,-1
 456.946289062 56.896484375 l 6,7,8
 469.631835938 56.900390625 469.631835938 56.900390625 478.267578125 48.2646484375 c 132,-1,9
 486.903320312 39.62890625 486.903320312 39.62890625 486.903320312 27.4267578125 c 132,-1,10
 486.903320312 15.224609375 486.903320312 15.224609375 478.267578125 6.5888671875 c 132,-1,11
 469.631835938 -2.046875 469.631835938 -2.046875 457.4296875 -2.046875 c 4,12,-1
 79.201171875 -2.1103515625 l 6,13,14
 67 -2.109375 67 -2.109375 58.3642578125 6.5263671875 c 132,-1,15
 49.7294921875 15.162109375 49.7294921875 15.162109375 49.7294921875 27.36328125 c 4,16,17
 49.7294921875 35.38671875 49.7294921875 35.38671875 53.7958984375 42.302734375 c 6,18,-1
 407.006835938 642.869140625 l 5,19,-1
 80.7841796875 642.8125 l 6,20,21
 68.1728515625 642.809570312 68.1728515625 642.809570312 59.537109375 651.4453125 c 132,-1,22
 50.9013671875 660.081054688 50.9013671875 660.081054688 50.9013671875 672.283203125 c 132,-1,23
 50.9013671875 684.485351562 50.9013671875 684.485351562 59.537109375 693.120117188 c 132,-1,24
 68.1728515625 701.755859375 68.1728515625 701.755859375 80.375 701.755859375 c 4,25,-1
 458.529296875 701.818359375 l 6,0,1
EndSplineSet
EndChar

StartChar: at
Encoding: 64 64 114
Width: 648
VWidth: 0
Flags: W
LayerCount: 2
Fore
SplineSet
215.896484375 699.3984375 m 2,0,-1
 425.41015625 699.3984375 l 2,1,2
 493.932617188 699.3984375 493.932617188 699.3984375 540.16796875 652.852539062 c 128,-1,3
 586.40234375 606.306640625 586.40234375 606.306640625 586.40234375 540.813476562 c 2,4,-1
 586.4609375 235.674804688 l 1,5,-1
 586.454101562 235.379882812 l 2,6,7
 585.377929688 185.856445312 585.377929688 185.856445312 560.967773438 158.263671875 c 0,8,9
 523.8671875 116.326171875 523.8671875 116.326171875 433.852539062 116.326171875 c 0,10,11
 364.576171875 116.326171875 364.576171875 116.326171875 336.678710938 117.0234375 c 128,-1,12
 308.780273438 117.721679688 308.780273438 117.721679688 276.162109375 122.8125 c 128,-1,13
 243.544921875 127.903320312 243.544921875 127.903320312 223.19921875 139.044921875 c 0,14,15
 191.430664062 156.443359375 191.430664062 156.443359375 181.0546875 193.387695312 c 0,16,17
 174.193359375 217.8203125 174.193359375 217.8203125 174.193359375 269.776367188 c 0,18,19
 174.193359375 324.323242188 174.193359375 324.323242188 213.337890625 354.270507812 c 0,20,21
 245.541015625 378.908203125 245.541015625 378.908203125 294.209960938 378.96875 c 0,22,-1
 411.393554688 379.094726562 l 1,23,-1
 411.454101562 436.599609375 l 2,24,25
 411.470703125 452.7890625 411.470703125 452.7890625 407.380859375 466.869140625 c 128,-1,26
 403.291015625 480.94921875 403.291015625 480.94921875 400.044921875 486.302734375 c 128,-1,27
 396.798828125 491.655273438 396.798828125 491.655273438 395.104492188 493.194335938 c 128,-1,28
 393.231445312 494.885742188 393.231445312 494.885742188 389.352539062 498.497070312 c 128,-1,29
 385.47265625 502.108398438 385.47265625 502.108398438 384.415039062 502.959960938 c 128,-1,30
 383.357421875 503.811523438 383.357421875 503.811523438 380.56640625 505.890625 c 128,-1,31
 377.776367188 507.969726562 377.776367188 507.969726562 375.712890625 508.69921875 c 128,-1,32
 373.650390625 509.428710938 373.650390625 509.428710938 370.286132812 510.5546875 c 128,-1,33
 366.921875 511.680664062 366.921875 511.680664062 362.348632812 512.727539062 c 0,34,35
 331.875 519.704101562 331.875 519.704101562 238.155273438 517.69921875 c 0,36,37
 237.655273438 517.682617188 237.655273438 517.682617188 237.194335938 517.682617188 c 0,38,39
 226.05078125 517.682617188 226.05078125 517.682617188 218.165039062 525.569335938 c 128,-1,40
 210.278320312 533.455078125 210.278320312 533.455078125 210.278320312 544.598632812 c 128,-1,41
 210.278320312 555.6640625 210.278320312 555.6640625 218.109375 563.55078125 c 128,-1,42
 225.940429688 571.4375 225.940429688 571.4375 237.005859375 571.514648438 c 0,43,44
 264.310546875 572.098632812 264.310546875 572.098632812 284.60546875 572.063476562 c 0,45,46
 344.826171875 571.959960938 344.826171875 571.959960938 374.360351562 565.19921875 c 0,47,48
 402.924804688 558.66015625 402.924804688 558.66015625 431.180664062 533.142578125 c 0,49,-1
 431.1875 533.135742188 l 2,50,51
 465.349609375 502.263671875 465.349609375 502.263671875 465.280273438 436.54296875 c 2,52,-1
 465 171.779296875 l 1,53,54
 505.143554688 176.396484375 505.143554688 176.396484375 520.653320312 193.9296875 c 0,55,56
 531.974609375 206.7265625 531.974609375 206.7265625 532.6328125 236.423828125 c 2,57,-1
 532.57421875 540.811523438 l 2,58,59
 532.57421875 586 532.57421875 586 503.16796875 615.78515625 c 128,-1,60
 473.76171875 645.5703125 473.76171875 645.5703125 425.41015625 645.5703125 c 2,61,-1
 215.896484375 645.5703125 l 2,62,63
 167.680664062 645.5703125 167.680664062 645.5703125 135.75390625 617.19140625 c 128,-1,64
 103.828125 588.811523438 103.828125 588.811523438 103.828125 541.165039062 c 2,65,-1
 103.828125 164.86328125 l 2,66,67
 103.828125 108.680664062 103.828125 108.680664062 137.641601562 79.046875 c 0,68,69
 167.940429688 52.4931640625 167.940429688 52.4931640625 215.544921875 52.4931640625 c 2,70,-1
 561.354492188 52.4931640625 l 1,71,-1
 561.713867188 52.49609375 l 2,72,73
 572.857421875 52.49609375 572.857421875 52.49609375 580.744140625 44.609375 c 128,-1,74
 588.630859375 36.72265625 588.630859375 36.72265625 588.630859375 25.5791015625 c 128,-1,75
 588.630859375 14.435546875 588.630859375 14.435546875 580.744140625 6.5498046875 c 128,-1,76
 572.857421875 -1.3369140625 572.857421875 -1.3369140625 561.713867188 -1.3369140625 c 2,77,-1
 561.354492188 -1.3349609375 l 1,78,-1
 215.544921875 -1.3349609375 l 2,79,80
 147.692382812 -1.3349609375 147.692382812 -1.3349609375 102.1640625 38.5654296875 c 0,81,82
 50 84.2822265625 50 84.2822265625 50 164.86328125 c 2,83,-1
 50 541.165039062 l 2,84,85
 50 609.858398438 50 609.858398438 99.2109375 654.627929688 c 128,-1,86
 148.422851562 699.3984375 148.422851562 699.3984375 215.896484375 699.3984375 c 2,0,-1
411.336914062 325.266601562 m 1,87,-1
 294.2734375 325.140625 l 2,88,89
 263.794921875 325.102539062 263.794921875 325.102539062 246.043945312 311.521484375 c 0,90,91
 228.021484375 297.732421875 228.021484375 297.732421875 228.021484375 269.776367188 c 0,92,93
 228.021484375 225.234375 228.021484375 225.234375 232.877929688 207.942382812 c 0,94,95
 237.135742188 192.783203125 237.135742188 192.783203125 249.053710938 186.256835938 c 0,96,97
 276.37890625 171.29296875 276.37890625 171.29296875 411.171875 170.247070312 c 1,98,-1
 411.336914062 325.266601562 l 1,87,-1
EndSplineSet
Validated: 33
EndChar

StartChar: bar
Encoding: 124 124 115
Width: 170
Flags: W
HStem: 682.154 20G<73.5178 80.0696>
VStem: 50.1428 59.8516<0.120714 692.928>
LayerCount: 2
Fore
SplineSet
79.6201171875 700.154296875 m 0,0,-1
 80.0703125 700.153320312 l 2,1,2
 92.1435546875 700 92.1435546875 700 101.229492188 691.384765625 c 0,3,4
 110.143554688 683 110.143554688 683 109.998046875 670.225585938 c 0,5,-1
 109.995117188 -69.548828125 l 6,6,7
 110.143554688 -82 110.143554688 -82 101.23046875 -91.154296875 c 4,8,9
 92.1435546875 -100 92.1435546875 -100 80.0712890625 -99.9228515625 c 132,-1,10
 68.1435546875 -100 68.1435546875 -100 58.912109375 -91.154296875 c 4,11,12
 50.1435546875 -82 50.1435546875 -82 50.1435546875 -69.9951171875 c 4,13,-1
 50.146484375 669.806640625 l 2,14,15
 50.1435546875 682 50.1435546875 682 58.7802734375 691.203125 c 0,16,17
 67.1435546875 700 67.1435546875 700 79.6201171875 700.154296875 c 0,0,-1
EndSplineSet
Validated: 1
EndChar

StartChar: exclam
Encoding: 33 33 116
Width: 170
VWidth: 0
Flags: W
LayerCount: 2
Fore
SplineSet
80.2861328125 -0.9345703125 m 128,-1,1
 67.74609375 -0.9345703125 67.74609375 -0.9345703125 58.873046875 7.9384765625 c 128,-1,2
 50 16.8125 50 16.8125 50 29.3505859375 c 128,-1,3
 50 41.888671875 50 41.888671875 58.873046875 50.76171875 c 128,-1,4
 67.74609375 59.634765625 67.74609375 59.634765625 80.2861328125 59.634765625 c 128,-1,5
 92.82421875 59.634765625 92.82421875 59.634765625 101.698242188 50.76171875 c 128,-1,6
 110.571289062 41.888671875 110.571289062 41.888671875 110.571289062 29.3505859375 c 128,-1,7
 110.571289062 16.8125 110.571289062 16.8125 101.698242188 7.9384765625 c 128,-1,0
 92.82421875 -0.9345703125 92.82421875 -0.9345703125 80.2861328125 -0.9345703125 c 128,-1,1
79.884765625 186.420898438 m 0,8,9
 67.537109375 186.607421875 67.537109375 186.607421875 58.798828125 195.478515625 c 128,-1,10
 50.0595703125 204.348632812 50.0595703125 204.348632812 50.0625 217.126953125 c 2,11,-1
 50.0625 658.115234375 l 1,12,-1
 50.0595703125 658.565429688 l 2,13,14
 50.0595703125 671.100585938 50.0595703125 671.100585938 58.931640625 679.97265625 c 128,-1,15
 67.8037109375 688.844726562 67.8037109375 688.844726562 80.33984375 688.844726562 c 128,-1,16
 92.875 688.844726562 92.875 688.844726562 101.747070312 679.97265625 c 128,-1,17
 110.619140625 671.100585938 110.619140625 671.100585938 110.619140625 658.565429688 c 2,18,-1
 110.616210938 658.115234375 l 1,19,-1
 110.619140625 216.698242188 l 0,20,21
 110.619140625 204.162109375 110.619140625 204.162109375 101.747070312 195.290039062 c 128,-1,22
 92.875 186.41796875 92.875 186.41796875 79.884765625 186.420898438 c 0,8,9
EndSplineSet
Validated: 1
EndChar

StartChar: parenleft
Encoding: 40 40 117
Width: 238
VWidth: 0
Flags: W
LayerCount: 2
Fore
SplineSet
161.866210938 700.4296875 m 2,0,1
 173.346679688 700.247070312 173.346679688 700.247070312 181.471679688 691.9921875 c 128,-1,2
 189.596679688 683.736328125 189.596679688 683.736328125 189.596679688 672.254882812 c 0,3,4
 189.596679688 661.240234375 189.596679688 661.240234375 182.126953125 653.14453125 c 0,5,6
 152.133789062 619.69921875 152.133789062 619.69921875 137.20703125 579.895507812 c 0,7,8
 106.3515625 497.622070312 106.3515625 497.622070312 106.3515625 352.315429688 c 128,-1,9
 106.3515625 206.841796875 106.3515625 206.841796875 137.287109375 122.224609375 c 0,10,11
 152.526367188 80.5419921875 152.526367188 80.5419921875 182.549804688 45.486328125 c 0,12,13
 189.598632812 37.49609375 189.598632812 37.49609375 189.598632812 26.84375 c 0,14,15
 189.598632812 15.177734375 189.598632812 15.177734375 181.341796875 6.921875 c 128,-1,16
 173.0859375 -1.3349609375 173.0859375 -1.3349609375 161.419921875 -1.3349609375 c 0,17,18
 148.201171875 -1.3349609375 148.201171875 -1.3349609375 139.75 8.830078125 c 0,19,20
 103.096679688 51.630859375 103.096679688 51.630859375 84.3623046875 102.875 c 0,21,22
 50 196.865234375 50 196.865234375 50 352.315429688 c 128,-1,23
 50 507.836914062 50 507.836914062 84.4443359375 599.68359375 c 0,24,25
 103.1015625 649.431640625 103.1015625 649.431640625 140.173828125 690.768554688 c 0,26,27
 148.596679688 700.43359375 148.596679688 700.43359375 161.416992188 700.43359375 c 2,28,-1
 161.866210938 700.4296875 l 2,0,1
EndSplineSet
EndChar

